G04 #@! TF.GenerationSoftware,KiCad,Pcbnew,9.0.7*
G04 #@! TF.CreationDate,2026-01-31T21:00:05+05:30*
G04 #@! TF.ProjectId,SnekPad,536e656b-5061-4642-9e6b-696361645f70,rev?*
G04 #@! TF.SameCoordinates,Original*
G04 #@! TF.FileFunction,Legend,Bot*
G04 #@! TF.FilePolarity,Positive*
%FSLAX46Y46*%
G04 Gerber Fmt 4.6, Leading zero omitted, Abs format (unit mm)*
G04 Created by KiCad (PCBNEW 9.0.7) date 2026-01-31 21:00:05*
%MOMM*%
%LPD*%
G01*
G04 APERTURE LIST*
G04 Aperture macros list*
%AMRoundRect*
0 Rectangle with rounded corners*
0 $1 Rounding radius*
0 $2 $3 $4 $5 $6 $7 $8 $9 X,Y pos of 4 corners*
0 Add a 4 corners polygon primitive as box body*
4,1,4,$2,$3,$4,$5,$6,$7,$8,$9,$2,$3,0*
0 Add four circle primitives for the rounded corners*
1,1,$1+$1,$2,$3*
1,1,$1+$1,$4,$5*
1,1,$1+$1,$6,$7*
1,1,$1+$1,$8,$9*
0 Add four rect primitives between the rounded corners*
20,1,$1+$1,$2,$3,$4,$5,0*
20,1,$1+$1,$4,$5,$6,$7,0*
20,1,$1+$1,$6,$7,$8,$9,0*
20,1,$1+$1,$8,$9,$2,$3,0*%
G04 Aperture macros list end*
%ADD10C,0.150000*%
%ADD11C,0.120000*%
%ADD12C,1.524000*%
%ADD13R,2.000000X2.000000*%
%ADD14C,2.000000*%
%ADD15R,3.200000X2.000000*%
%ADD16C,1.700000*%
%ADD17C,4.000000*%
%ADD18C,2.200000*%
%ADD19RoundRect,0.170000X0.680000X-0.680000X0.680000X0.680000X-0.680000X0.680000X-0.680000X-0.680000X0*%
%ADD20RoundRect,0.250000X0.550000X-0.550000X0.550000X0.550000X-0.550000X0.550000X-0.550000X-0.550000X0*%
%ADD21C,1.600000*%
G04 APERTURE END LIST*
D10*
X202779819Y-116110655D02*
X201779819Y-116110655D01*
X201779819Y-116110655D02*
X201779819Y-116348750D01*
X201779819Y-116348750D02*
X201827438Y-116491607D01*
X201827438Y-116491607D02*
X201922676Y-116586845D01*
X201922676Y-116586845D02*
X202017914Y-116634464D01*
X202017914Y-116634464D02*
X202208390Y-116682083D01*
X202208390Y-116682083D02*
X202351247Y-116682083D01*
X202351247Y-116682083D02*
X202541723Y-116634464D01*
X202541723Y-116634464D02*
X202636961Y-116586845D01*
X202636961Y-116586845D02*
X202732200Y-116491607D01*
X202732200Y-116491607D02*
X202779819Y-116348750D01*
X202779819Y-116348750D02*
X202779819Y-116110655D01*
X201779819Y-117539226D02*
X201779819Y-117348750D01*
X201779819Y-117348750D02*
X201827438Y-117253512D01*
X201827438Y-117253512D02*
X201875057Y-117205893D01*
X201875057Y-117205893D02*
X202017914Y-117110655D01*
X202017914Y-117110655D02*
X202208390Y-117063036D01*
X202208390Y-117063036D02*
X202589342Y-117063036D01*
X202589342Y-117063036D02*
X202684580Y-117110655D01*
X202684580Y-117110655D02*
X202732200Y-117158274D01*
X202732200Y-117158274D02*
X202779819Y-117253512D01*
X202779819Y-117253512D02*
X202779819Y-117443988D01*
X202779819Y-117443988D02*
X202732200Y-117539226D01*
X202732200Y-117539226D02*
X202684580Y-117586845D01*
X202684580Y-117586845D02*
X202589342Y-117634464D01*
X202589342Y-117634464D02*
X202351247Y-117634464D01*
X202351247Y-117634464D02*
X202256009Y-117586845D01*
X202256009Y-117586845D02*
X202208390Y-117539226D01*
X202208390Y-117539226D02*
X202160771Y-117443988D01*
X202160771Y-117443988D02*
X202160771Y-117253512D01*
X202160771Y-117253512D02*
X202208390Y-117158274D01*
X202208390Y-117158274D02*
X202256009Y-117110655D01*
X202256009Y-117110655D02*
X202351247Y-117063036D01*
X202459819Y-120396845D02*
X201459819Y-120396845D01*
X202459819Y-120968273D02*
X201888390Y-120539702D01*
X201459819Y-120968273D02*
X202031247Y-120396845D01*
X183729819Y-116110655D02*
X182729819Y-116110655D01*
X182729819Y-116110655D02*
X182729819Y-116348750D01*
X182729819Y-116348750D02*
X182777438Y-116491607D01*
X182777438Y-116491607D02*
X182872676Y-116586845D01*
X182872676Y-116586845D02*
X182967914Y-116634464D01*
X182967914Y-116634464D02*
X183158390Y-116682083D01*
X183158390Y-116682083D02*
X183301247Y-116682083D01*
X183301247Y-116682083D02*
X183491723Y-116634464D01*
X183491723Y-116634464D02*
X183586961Y-116586845D01*
X183586961Y-116586845D02*
X183682200Y-116491607D01*
X183682200Y-116491607D02*
X183729819Y-116348750D01*
X183729819Y-116348750D02*
X183729819Y-116110655D01*
X182729819Y-117586845D02*
X182729819Y-117110655D01*
X182729819Y-117110655D02*
X183206009Y-117063036D01*
X183206009Y-117063036D02*
X183158390Y-117110655D01*
X183158390Y-117110655D02*
X183110771Y-117205893D01*
X183110771Y-117205893D02*
X183110771Y-117443988D01*
X183110771Y-117443988D02*
X183158390Y-117539226D01*
X183158390Y-117539226D02*
X183206009Y-117586845D01*
X183206009Y-117586845D02*
X183301247Y-117634464D01*
X183301247Y-117634464D02*
X183539342Y-117634464D01*
X183539342Y-117634464D02*
X183634580Y-117586845D01*
X183634580Y-117586845D02*
X183682200Y-117539226D01*
X183682200Y-117539226D02*
X183729819Y-117443988D01*
X183729819Y-117443988D02*
X183729819Y-117205893D01*
X183729819Y-117205893D02*
X183682200Y-117110655D01*
X183682200Y-117110655D02*
X183634580Y-117063036D01*
X183409819Y-120396845D02*
X182409819Y-120396845D01*
X183409819Y-120968273D02*
X182838390Y-120539702D01*
X182409819Y-120968273D02*
X182981247Y-120396845D01*
X164679819Y-116110655D02*
X163679819Y-116110655D01*
X163679819Y-116110655D02*
X163679819Y-116348750D01*
X163679819Y-116348750D02*
X163727438Y-116491607D01*
X163727438Y-116491607D02*
X163822676Y-116586845D01*
X163822676Y-116586845D02*
X163917914Y-116634464D01*
X163917914Y-116634464D02*
X164108390Y-116682083D01*
X164108390Y-116682083D02*
X164251247Y-116682083D01*
X164251247Y-116682083D02*
X164441723Y-116634464D01*
X164441723Y-116634464D02*
X164536961Y-116586845D01*
X164536961Y-116586845D02*
X164632200Y-116491607D01*
X164632200Y-116491607D02*
X164679819Y-116348750D01*
X164679819Y-116348750D02*
X164679819Y-116110655D01*
X164013152Y-117539226D02*
X164679819Y-117539226D01*
X163632200Y-117301131D02*
X164346485Y-117063036D01*
X164346485Y-117063036D02*
X164346485Y-117682083D01*
X164359819Y-120396845D02*
X163359819Y-120396845D01*
X164359819Y-120968273D02*
X163788390Y-120539702D01*
X163359819Y-120968273D02*
X163931247Y-120396845D01*
X202779819Y-97060655D02*
X201779819Y-97060655D01*
X201779819Y-97060655D02*
X201779819Y-97298750D01*
X201779819Y-97298750D02*
X201827438Y-97441607D01*
X201827438Y-97441607D02*
X201922676Y-97536845D01*
X201922676Y-97536845D02*
X202017914Y-97584464D01*
X202017914Y-97584464D02*
X202208390Y-97632083D01*
X202208390Y-97632083D02*
X202351247Y-97632083D01*
X202351247Y-97632083D02*
X202541723Y-97584464D01*
X202541723Y-97584464D02*
X202636961Y-97536845D01*
X202636961Y-97536845D02*
X202732200Y-97441607D01*
X202732200Y-97441607D02*
X202779819Y-97298750D01*
X202779819Y-97298750D02*
X202779819Y-97060655D01*
X201779819Y-97965417D02*
X201779819Y-98584464D01*
X201779819Y-98584464D02*
X202160771Y-98251131D01*
X202160771Y-98251131D02*
X202160771Y-98393988D01*
X202160771Y-98393988D02*
X202208390Y-98489226D01*
X202208390Y-98489226D02*
X202256009Y-98536845D01*
X202256009Y-98536845D02*
X202351247Y-98584464D01*
X202351247Y-98584464D02*
X202589342Y-98584464D01*
X202589342Y-98584464D02*
X202684580Y-98536845D01*
X202684580Y-98536845D02*
X202732200Y-98489226D01*
X202732200Y-98489226D02*
X202779819Y-98393988D01*
X202779819Y-98393988D02*
X202779819Y-98108274D01*
X202779819Y-98108274D02*
X202732200Y-98013036D01*
X202732200Y-98013036D02*
X202684580Y-97965417D01*
X202459819Y-101346845D02*
X201459819Y-101346845D01*
X202459819Y-101918273D02*
X201888390Y-101489702D01*
X201459819Y-101918273D02*
X202031247Y-101346845D01*
X183729819Y-97060655D02*
X182729819Y-97060655D01*
X182729819Y-97060655D02*
X182729819Y-97298750D01*
X182729819Y-97298750D02*
X182777438Y-97441607D01*
X182777438Y-97441607D02*
X182872676Y-97536845D01*
X182872676Y-97536845D02*
X182967914Y-97584464D01*
X182967914Y-97584464D02*
X183158390Y-97632083D01*
X183158390Y-97632083D02*
X183301247Y-97632083D01*
X183301247Y-97632083D02*
X183491723Y-97584464D01*
X183491723Y-97584464D02*
X183586961Y-97536845D01*
X183586961Y-97536845D02*
X183682200Y-97441607D01*
X183682200Y-97441607D02*
X183729819Y-97298750D01*
X183729819Y-97298750D02*
X183729819Y-97060655D01*
X182825057Y-98013036D02*
X182777438Y-98060655D01*
X182777438Y-98060655D02*
X182729819Y-98155893D01*
X182729819Y-98155893D02*
X182729819Y-98393988D01*
X182729819Y-98393988D02*
X182777438Y-98489226D01*
X182777438Y-98489226D02*
X182825057Y-98536845D01*
X182825057Y-98536845D02*
X182920295Y-98584464D01*
X182920295Y-98584464D02*
X183015533Y-98584464D01*
X183015533Y-98584464D02*
X183158390Y-98536845D01*
X183158390Y-98536845D02*
X183729819Y-97965417D01*
X183729819Y-97965417D02*
X183729819Y-98584464D01*
X183409819Y-101346845D02*
X182409819Y-101346845D01*
X183409819Y-101918273D02*
X182838390Y-101489702D01*
X182409819Y-101918273D02*
X182981247Y-101346845D01*
X164679819Y-97060655D02*
X163679819Y-97060655D01*
X163679819Y-97060655D02*
X163679819Y-97298750D01*
X163679819Y-97298750D02*
X163727438Y-97441607D01*
X163727438Y-97441607D02*
X163822676Y-97536845D01*
X163822676Y-97536845D02*
X163917914Y-97584464D01*
X163917914Y-97584464D02*
X164108390Y-97632083D01*
X164108390Y-97632083D02*
X164251247Y-97632083D01*
X164251247Y-97632083D02*
X164441723Y-97584464D01*
X164441723Y-97584464D02*
X164536961Y-97536845D01*
X164536961Y-97536845D02*
X164632200Y-97441607D01*
X164632200Y-97441607D02*
X164679819Y-97298750D01*
X164679819Y-97298750D02*
X164679819Y-97060655D01*
X164679819Y-98584464D02*
X164679819Y-98013036D01*
X164679819Y-98298750D02*
X163679819Y-98298750D01*
X163679819Y-98298750D02*
X163822676Y-98203512D01*
X163822676Y-98203512D02*
X163917914Y-98108274D01*
X163917914Y-98108274D02*
X163965533Y-98013036D01*
X164359819Y-101346845D02*
X163359819Y-101346845D01*
X164359819Y-101918273D02*
X163788390Y-101489702D01*
X163359819Y-101918273D02*
X163931247Y-101346845D01*
D11*
G04 #@! TO.C,D6*
X200205000Y-119618750D02*
X200205000Y-118968750D01*
X201325000Y-118368750D02*
X199085000Y-118368750D01*
X201325000Y-118248750D02*
X199085000Y-118248750D01*
X201325000Y-118128750D02*
X199085000Y-118128750D01*
X200205000Y-114078750D02*
X200205000Y-114728750D01*
X201325000Y-118968750D02*
X199085000Y-118968750D01*
X199085000Y-114728750D01*
X201325000Y-114728750D01*
X201325000Y-118968750D01*
G04 #@! TO.C,D5*
X181155000Y-119618750D02*
X181155000Y-118968750D01*
X182275000Y-118368750D02*
X180035000Y-118368750D01*
X182275000Y-118248750D02*
X180035000Y-118248750D01*
X182275000Y-118128750D02*
X180035000Y-118128750D01*
X181155000Y-114078750D02*
X181155000Y-114728750D01*
X182275000Y-118968750D02*
X180035000Y-118968750D01*
X180035000Y-114728750D01*
X182275000Y-114728750D01*
X182275000Y-118968750D01*
G04 #@! TO.C,D4*
X162105000Y-119618750D02*
X162105000Y-118968750D01*
X163225000Y-118368750D02*
X160985000Y-118368750D01*
X163225000Y-118248750D02*
X160985000Y-118248750D01*
X163225000Y-118128750D02*
X160985000Y-118128750D01*
X162105000Y-114078750D02*
X162105000Y-114728750D01*
X163225000Y-118968750D02*
X160985000Y-118968750D01*
X160985000Y-114728750D01*
X163225000Y-114728750D01*
X163225000Y-118968750D01*
G04 #@! TO.C,D3*
X200205000Y-100568750D02*
X200205000Y-99918750D01*
X201325000Y-99318750D02*
X199085000Y-99318750D01*
X201325000Y-99198750D02*
X199085000Y-99198750D01*
X201325000Y-99078750D02*
X199085000Y-99078750D01*
X200205000Y-95028750D02*
X200205000Y-95678750D01*
X201325000Y-99918750D02*
X199085000Y-99918750D01*
X199085000Y-95678750D01*
X201325000Y-95678750D01*
X201325000Y-99918750D01*
G04 #@! TO.C,D2*
X181155000Y-100568750D02*
X181155000Y-99918750D01*
X182275000Y-99318750D02*
X180035000Y-99318750D01*
X182275000Y-99198750D02*
X180035000Y-99198750D01*
X182275000Y-99078750D02*
X180035000Y-99078750D01*
X181155000Y-95028750D02*
X181155000Y-95678750D01*
X182275000Y-99918750D02*
X180035000Y-99918750D01*
X180035000Y-95678750D01*
X182275000Y-95678750D01*
X182275000Y-99918750D01*
G04 #@! TO.C,D1*
X162105000Y-100568750D02*
X162105000Y-99918750D01*
X163225000Y-99318750D02*
X160985000Y-99318750D01*
X163225000Y-99198750D02*
X160985000Y-99198750D01*
X163225000Y-99078750D02*
X160985000Y-99078750D01*
X162105000Y-95028750D02*
X162105000Y-95678750D01*
X163225000Y-99918750D02*
X160985000Y-99918750D01*
X160985000Y-95678750D01*
X163225000Y-95678750D01*
X163225000Y-99918750D01*
G04 #@! TD*
%LPC*%
D12*
G04 #@! TO.C,U1*
X124185000Y-76843750D03*
X124185000Y-79383750D03*
X124185000Y-81923750D03*
X124185000Y-84463750D03*
X124185000Y-87003750D03*
X124185000Y-89543750D03*
X124185000Y-92083750D03*
X139425000Y-92083750D03*
X139425000Y-89543750D03*
X139425000Y-87003750D03*
X139425000Y-84463750D03*
X139425000Y-81923750D03*
X139425000Y-79383750D03*
X139425000Y-76843750D03*
G04 #@! TD*
D13*
G04 #@! TO.C,SW1*
X185036250Y-77157500D03*
D14*
X185036250Y-82157500D03*
X185036250Y-79657500D03*
D15*
X192536250Y-74057500D03*
X192536250Y-85257500D03*
D14*
X199536250Y-82157500D03*
X199536250Y-77157500D03*
G04 #@! TD*
D16*
G04 #@! TO.C,S6*
X185600000Y-115420000D03*
D17*
X190680000Y-115420000D03*
D16*
X195760000Y-115420000D03*
D18*
X193220000Y-110340000D03*
X186870000Y-112880000D03*
G04 #@! TD*
D16*
G04 #@! TO.C,S5*
X166550000Y-115420000D03*
D17*
X171630000Y-115420000D03*
D16*
X176710000Y-115420000D03*
D18*
X174170000Y-110340000D03*
X167820000Y-112880000D03*
G04 #@! TD*
D16*
G04 #@! TO.C,S4*
X147500000Y-115420000D03*
D17*
X152580000Y-115420000D03*
D16*
X157660000Y-115420000D03*
D18*
X155120000Y-110340000D03*
X148770000Y-112880000D03*
G04 #@! TD*
D16*
G04 #@! TO.C,S3*
X185600000Y-96370000D03*
D17*
X190680000Y-96370000D03*
D16*
X195760000Y-96370000D03*
D18*
X193220000Y-91290000D03*
X186870000Y-93830000D03*
G04 #@! TD*
D16*
G04 #@! TO.C,S2*
X166550000Y-96370000D03*
D17*
X171630000Y-96370000D03*
D16*
X176710000Y-96370000D03*
D18*
X174170000Y-91290000D03*
X167820000Y-93830000D03*
G04 #@! TD*
D16*
G04 #@! TO.C,S1*
X147500000Y-96370000D03*
D17*
X152580000Y-96370000D03*
D16*
X157660000Y-96370000D03*
D18*
X155120000Y-91290000D03*
X148770000Y-93830000D03*
G04 #@! TD*
D19*
G04 #@! TO.C,J1*
X145055000Y-84155000D03*
D16*
X145055000Y-81615000D03*
X145055000Y-79075000D03*
X145055000Y-76535000D03*
G04 #@! TD*
D20*
G04 #@! TO.C,D6*
X200205000Y-120658750D03*
D21*
X200205000Y-113038750D03*
G04 #@! TD*
D20*
G04 #@! TO.C,D5*
X181155000Y-120658750D03*
D21*
X181155000Y-113038750D03*
G04 #@! TD*
D20*
G04 #@! TO.C,D4*
X162105000Y-120658750D03*
D21*
X162105000Y-113038750D03*
G04 #@! TD*
D20*
G04 #@! TO.C,D3*
X200205000Y-101608750D03*
D21*
X200205000Y-93988750D03*
G04 #@! TD*
D20*
G04 #@! TO.C,D2*
X181155000Y-101608750D03*
D21*
X181155000Y-93988750D03*
G04 #@! TD*
D20*
G04 #@! TO.C,D1*
X162105000Y-101608750D03*
D21*
X162105000Y-93988750D03*
G04 #@! TD*
%LPD*%
M02*
