M48
; DRILL file {KiCad 9.0.7} date 2026-01-31T21:00:05+0530
; FORMAT={-:-/ absolute / metric / decimal}
; #@! TF.CreationDate,2026-01-31T21:00:05+05:30
; #@! TF.GenerationSoftware,Kicad,Pcbnew,9.0.7
; #@! TF.FileFunction,Plated,1,2,PTH
FMAT,2
METRIC
; #@! TA.AperFunction,Plated,PTH,ComponentDrill
T1C0.800
; #@! TA.AperFunction,Plated,PTH,ComponentDrill
T2C0.889
; #@! TA.AperFunction,Plated,PTH,ComponentDrill
T3C1.000
; #@! TA.AperFunction,Plated,PTH,ComponentDrill
T4C1.500
%
G90
G05
T1
X162.105Y-93.989
X162.105Y-101.609
X162.105Y-113.039
X162.105Y-120.659
X181.155Y-93.989
X181.155Y-101.609
X181.155Y-113.039
X181.155Y-120.659
X200.205Y-93.989
X200.205Y-101.609
X200.205Y-113.039
X200.205Y-120.659
T2
X124.185Y-76.844
X124.185Y-79.384
X124.185Y-81.924
X124.185Y-84.464
X124.185Y-87.004
X124.185Y-89.544
X124.185Y-92.084
X139.425Y-76.844
X139.425Y-79.384
X139.425Y-81.924
X139.425Y-84.464
X139.425Y-87.004
X139.425Y-89.544
X139.425Y-92.084
T3
X145.055Y-76.535
X145.055Y-79.075
X145.055Y-81.615
X145.055Y-84.155
X185.036Y-77.157
X185.036Y-79.657
X185.036Y-82.157
X199.536Y-77.157
X199.536Y-82.157
T4
X148.77Y-93.83
X148.77Y-112.88
X155.12Y-91.29
X155.12Y-110.34
X167.82Y-93.83
X167.82Y-112.88
X174.17Y-91.29
X174.17Y-110.34
X186.87Y-93.83
X186.87Y-112.88
X193.22Y-91.29
X193.22Y-110.34
T4
G00X191.886Y-74.057
M15
G01X193.186Y-74.057
M16
G05
G00X191.886Y-85.257
M15
G01X193.186Y-85.257
M16
G05
M30
