G04 #@! TF.GenerationSoftware,KiCad,Pcbnew,9.0.7*
G04 #@! TF.CreationDate,2026-01-31T21:00:05+05:30*
G04 #@! TF.ProjectId,SnekPad,536e656b-5061-4642-9e6b-696361645f70,rev?*
G04 #@! TF.SameCoordinates,Original*
G04 #@! TF.FileFunction,Copper,L2,Bot*
G04 #@! TF.FilePolarity,Positive*
%FSLAX46Y46*%
G04 Gerber Fmt 4.6, Leading zero omitted, Abs format (unit mm)*
G04 Created by KiCad (PCBNEW 9.0.7) date 2026-01-31 21:00:05*
%MOMM*%
%LPD*%
G01*
G04 APERTURE LIST*
G04 Aperture macros list*
%AMRoundRect*
0 Rectangle with rounded corners*
0 $1 Rounding radius*
0 $2 $3 $4 $5 $6 $7 $8 $9 X,Y pos of 4 corners*
0 Add a 4 corners polygon primitive as box body*
4,1,4,$2,$3,$4,$5,$6,$7,$8,$9,$2,$3,0*
0 Add four circle primitives for the rounded corners*
1,1,$1+$1,$2,$3*
1,1,$1+$1,$4,$5*
1,1,$1+$1,$6,$7*
1,1,$1+$1,$8,$9*
0 Add four rect primitives between the rounded corners*
20,1,$1+$1,$2,$3,$4,$5,0*
20,1,$1+$1,$4,$5,$6,$7,0*
20,1,$1+$1,$6,$7,$8,$9,0*
20,1,$1+$1,$8,$9,$2,$3,0*%
G04 Aperture macros list end*
G04 #@! TA.AperFunction,ComponentPad*
%ADD10C,1.524000*%
G04 #@! TD*
G04 #@! TA.AperFunction,ComponentPad*
%ADD11R,2.000000X2.000000*%
G04 #@! TD*
G04 #@! TA.AperFunction,ComponentPad*
%ADD12C,2.000000*%
G04 #@! TD*
G04 #@! TA.AperFunction,ComponentPad*
%ADD13R,3.200000X2.000000*%
G04 #@! TD*
G04 #@! TA.AperFunction,ComponentPad*
%ADD14C,2.200000*%
G04 #@! TD*
G04 #@! TA.AperFunction,ComponentPad*
%ADD15RoundRect,0.170000X0.680000X-0.680000X0.680000X0.680000X-0.680000X0.680000X-0.680000X-0.680000X0*%
G04 #@! TD*
G04 #@! TA.AperFunction,ComponentPad*
%ADD16C,1.700000*%
G04 #@! TD*
G04 #@! TA.AperFunction,ComponentPad*
%ADD17RoundRect,0.250000X0.550000X-0.550000X0.550000X0.550000X-0.550000X0.550000X-0.550000X-0.550000X0*%
G04 #@! TD*
G04 #@! TA.AperFunction,ComponentPad*
%ADD18C,1.600000*%
G04 #@! TD*
G04 #@! TA.AperFunction,Conductor*
%ADD19C,0.200000*%
G04 #@! TD*
G04 APERTURE END LIST*
D10*
G04 #@! TO.P,U1,1,GPIO26/ADC0/A0*
G04 #@! TO.N,/Enc A*
X124185000Y-76843750D03*
G04 #@! TO.P,U1,2,GPIO27/ADC1/A1*
G04 #@! TO.N,/Enc B*
X124185000Y-79383750D03*
G04 #@! TO.P,U1,3,GPIO28/ADC2/A2*
G04 #@! TO.N,/Enc SW1*
X124185000Y-81923750D03*
G04 #@! TO.P,U1,4,GPIO29/ADC3/A3*
G04 #@! TO.N,unconnected-(U1-GPIO29{slash}ADC3{slash}A3-Pad4)*
X124185000Y-84463750D03*
G04 #@! TO.P,U1,5,GPIO6/SDA*
G04 #@! TO.N,/SDA*
X124185000Y-87003750D03*
G04 #@! TO.P,U1,6,GPIO7/SCL*
G04 #@! TO.N,/SCL*
X124185000Y-89543750D03*
G04 #@! TO.P,U1,7,GPIO0/TX*
G04 #@! TO.N,/Row 1*
X124185000Y-92083750D03*
G04 #@! TO.P,U1,8,GPIO1/RX*
G04 #@! TO.N,/Row 2*
X139425000Y-92083750D03*
G04 #@! TO.P,U1,9,GPIO2/SCK*
G04 #@! TO.N,/Col 1*
X139425000Y-89543750D03*
G04 #@! TO.P,U1,10,GPIO4/MISO*
G04 #@! TO.N,/Col 3*
X139425000Y-87003750D03*
G04 #@! TO.P,U1,11,GPIO3/MOSI*
G04 #@! TO.N,/Col 2*
X139425000Y-84463750D03*
G04 #@! TO.P,U1,12,3V3*
G04 #@! TO.N,/VCC*
X139425000Y-81923750D03*
G04 #@! TO.P,U1,13,GND*
G04 #@! TO.N,GND*
X139425000Y-79383750D03*
G04 #@! TO.P,U1,14,VBUS*
G04 #@! TO.N,unconnected-(U1-VBUS-Pad14)*
X139425000Y-76843750D03*
G04 #@! TD*
D11*
G04 #@! TO.P,SW1,A,A*
G04 #@! TO.N,/Enc A*
X185036250Y-77157500D03*
D12*
G04 #@! TO.P,SW1,B,B*
G04 #@! TO.N,/Enc B*
X185036250Y-82157500D03*
G04 #@! TO.P,SW1,C,C*
G04 #@! TO.N,GND*
X185036250Y-79657500D03*
D13*
G04 #@! TO.P,SW1,MP*
G04 #@! TO.N,N/C*
X192536250Y-74057500D03*
X192536250Y-85257500D03*
D12*
G04 #@! TO.P,SW1,S1,S1*
G04 #@! TO.N,/Enc SW1*
X199536250Y-82157500D03*
G04 #@! TO.P,SW1,S2,S2*
G04 #@! TO.N,GND*
X199536250Y-77157500D03*
G04 #@! TD*
D14*
G04 #@! TO.P,S6,1,1*
G04 #@! TO.N,/Col 3*
X193220000Y-110340000D03*
G04 #@! TO.P,S6,2,2*
G04 #@! TO.N,Net-(D6-A)*
X186870000Y-112880000D03*
G04 #@! TD*
G04 #@! TO.P,S5,1,1*
G04 #@! TO.N,/Col 2*
X174170000Y-110340000D03*
G04 #@! TO.P,S5,2,2*
G04 #@! TO.N,Net-(D5-A)*
X167820000Y-112880000D03*
G04 #@! TD*
G04 #@! TO.P,S4,1,1*
G04 #@! TO.N,/Col 1*
X155120000Y-110340000D03*
G04 #@! TO.P,S4,2,2*
G04 #@! TO.N,Net-(D4-A)*
X148770000Y-112880000D03*
G04 #@! TD*
G04 #@! TO.P,S3,1,1*
G04 #@! TO.N,/Col 3*
X193220000Y-91290000D03*
G04 #@! TO.P,S3,2,2*
G04 #@! TO.N,Net-(D3-A)*
X186870000Y-93830000D03*
G04 #@! TD*
G04 #@! TO.P,S2,1,1*
G04 #@! TO.N,/Col 2*
X174170000Y-91290000D03*
G04 #@! TO.P,S2,2,2*
G04 #@! TO.N,Net-(D2-A)*
X167820000Y-93830000D03*
G04 #@! TD*
G04 #@! TO.P,S1,1,1*
G04 #@! TO.N,/Col 1*
X155120000Y-91290000D03*
G04 #@! TO.P,S1,2,2*
G04 #@! TO.N,Net-(D1-A)*
X148770000Y-93830000D03*
G04 #@! TD*
D15*
G04 #@! TO.P,J1,1,GND*
G04 #@! TO.N,GND*
X145055000Y-84155000D03*
D16*
G04 #@! TO.P,J1,2,VCC*
G04 #@! TO.N,/VCC*
X145055000Y-81615000D03*
G04 #@! TO.P,J1,3,SCL*
G04 #@! TO.N,/SCL*
X145055000Y-79075000D03*
G04 #@! TO.P,J1,4,SDA*
G04 #@! TO.N,/SDA*
X145055000Y-76535000D03*
G04 #@! TD*
D17*
G04 #@! TO.P,D6,1,K*
G04 #@! TO.N,/Row 2*
X200205000Y-120658750D03*
D18*
G04 #@! TO.P,D6,2,A*
G04 #@! TO.N,Net-(D6-A)*
X200205000Y-113038750D03*
G04 #@! TD*
D17*
G04 #@! TO.P,D5,1,K*
G04 #@! TO.N,/Row 2*
X181155000Y-120658750D03*
D18*
G04 #@! TO.P,D5,2,A*
G04 #@! TO.N,Net-(D5-A)*
X181155000Y-113038750D03*
G04 #@! TD*
D17*
G04 #@! TO.P,D4,1,K*
G04 #@! TO.N,/Row 2*
X162105000Y-120658750D03*
D18*
G04 #@! TO.P,D4,2,A*
G04 #@! TO.N,Net-(D4-A)*
X162105000Y-113038750D03*
G04 #@! TD*
D17*
G04 #@! TO.P,D3,1,K*
G04 #@! TO.N,/Row 1*
X200205000Y-101608750D03*
D18*
G04 #@! TO.P,D3,2,A*
G04 #@! TO.N,Net-(D3-A)*
X200205000Y-93988750D03*
G04 #@! TD*
D17*
G04 #@! TO.P,D2,1,K*
G04 #@! TO.N,/Row 1*
X181155000Y-101608750D03*
D18*
G04 #@! TO.P,D2,2,A*
G04 #@! TO.N,Net-(D2-A)*
X181155000Y-93988750D03*
G04 #@! TD*
D17*
G04 #@! TO.P,D1,1,K*
G04 #@! TO.N,/Row 1*
X162105000Y-101608750D03*
D18*
G04 #@! TO.P,D1,2,A*
G04 #@! TO.N,Net-(D1-A)*
X162105000Y-93988750D03*
G04 #@! TD*
D19*
G04 #@! TO.N,/SDA*
X135503750Y-75685000D02*
X124185000Y-87003750D01*
X144205000Y-75685000D02*
X135503750Y-75685000D01*
X145055000Y-76535000D02*
X144205000Y-75685000D01*
G04 #@! TO.N,GND*
X141122750Y-77686000D02*
X139425000Y-79383750D01*
X147361260Y-75856500D02*
X145531760Y-77686000D01*
X145531760Y-77686000D02*
X141122750Y-77686000D01*
X198235250Y-75856500D02*
X147361260Y-75856500D01*
X199536250Y-77157500D02*
X198235250Y-75856500D01*
X140267250Y-80226000D02*
X139425000Y-79383750D01*
X184467750Y-80226000D02*
X140267250Y-80226000D01*
X185036250Y-79657500D02*
X184467750Y-80226000D01*
X144196250Y-84155000D02*
X139425000Y-79383750D01*
X145055000Y-84155000D02*
X144196250Y-84155000D01*
G04 #@! TO.N,/Col 2*
X138362000Y-85526750D02*
X139425000Y-84463750D01*
X138362000Y-87444060D02*
X138362000Y-85526750D01*
X138984690Y-88066750D02*
X138362000Y-87444060D01*
X170946750Y-88066750D02*
X138984690Y-88066750D01*
X174170000Y-91290000D02*
X170946750Y-88066750D01*
G04 #@! TO.N,/Col 3*
X188933750Y-87003750D02*
X139425000Y-87003750D01*
X193220000Y-91290000D02*
X188933750Y-87003750D01*
G04 #@! TO.N,/Col 1*
X141171250Y-91290000D02*
X139425000Y-89543750D01*
X155120000Y-91290000D02*
X141171250Y-91290000D01*
G04 #@! TO.N,/Col 3*
X193220000Y-91290000D02*
X193220000Y-110340000D01*
G04 #@! TO.N,/Col 2*
X174170000Y-91290000D02*
X174170000Y-110340000D01*
G04 #@! TO.N,/Col 1*
X155120000Y-91290000D02*
X155120000Y-110340000D01*
G04 #@! TD*
G04 #@! TA.AperFunction,NonConductor*
G36*
X143649037Y-76305185D02*
G01*
X143694792Y-76357989D01*
X143704256Y-76423812D01*
X143704882Y-76423862D01*
X143704663Y-76426640D01*
X143704736Y-76427147D01*
X143704500Y-76428706D01*
X143704500Y-76641286D01*
X143737753Y-76851239D01*
X143761129Y-76923182D01*
X143763124Y-76993023D01*
X143727044Y-77052856D01*
X143664343Y-77083684D01*
X143643198Y-77085500D01*
X141043693Y-77085500D01*
X140890964Y-77126423D01*
X140878566Y-77133581D01*
X140875242Y-77135501D01*
X140860203Y-77144183D01*
X140792304Y-77160653D01*
X140726278Y-77137800D01*
X140683088Y-77082877D01*
X140675734Y-77017396D01*
X140679595Y-76993023D01*
X140687500Y-76943111D01*
X140687500Y-76744389D01*
X140656413Y-76548114D01*
X140623824Y-76447817D01*
X140621830Y-76377977D01*
X140657910Y-76318144D01*
X140720611Y-76287316D01*
X140741756Y-76285500D01*
X143581998Y-76285500D01*
X143649037Y-76305185D01*
G37*
G04 #@! TD.AperFunction*
G04 #@! TA.AperFunction,NonConductor*
G36*
X183478789Y-76476685D02*
G01*
X183524544Y-76529489D01*
X183535750Y-76581000D01*
X183535750Y-78205370D01*
X183535751Y-78205376D01*
X183542158Y-78264983D01*
X183592452Y-78399828D01*
X183592456Y-78399835D01*
X183678702Y-78515044D01*
X183678705Y-78515047D01*
X183796448Y-78603190D01*
X183838319Y-78659123D01*
X183843303Y-78728815D01*
X183822455Y-78775341D01*
X183752909Y-78871063D01*
X183645683Y-79081503D01*
X183572696Y-79306131D01*
X183538681Y-79520898D01*
X183508752Y-79584033D01*
X183449440Y-79620964D01*
X183416208Y-79625500D01*
X146466802Y-79625500D01*
X146399763Y-79605815D01*
X146354008Y-79553011D01*
X146344064Y-79483853D01*
X146348871Y-79463182D01*
X146372246Y-79391243D01*
X146405500Y-79181287D01*
X146405500Y-78968713D01*
X146372246Y-78758757D01*
X146306557Y-78556588D01*
X146210051Y-78367184D01*
X146210049Y-78367181D01*
X146210048Y-78367179D01*
X146085109Y-78195213D01*
X146066126Y-78176230D01*
X146032641Y-78114907D01*
X146037625Y-78045215D01*
X146066126Y-78000868D01*
X147573677Y-76493319D01*
X147635000Y-76459834D01*
X147661358Y-76457000D01*
X183411750Y-76457000D01*
X183478789Y-76476685D01*
G37*
G04 #@! TD.AperFunction*
G04 #@! TA.AperFunction,NonConductor*
G36*
X143805749Y-78306185D02*
G01*
X143851504Y-78358989D01*
X143861448Y-78428147D01*
X143849195Y-78466795D01*
X143803444Y-78556585D01*
X143803443Y-78556587D01*
X143803443Y-78556588D01*
X143801917Y-78561286D01*
X143737753Y-78758760D01*
X143704500Y-78968713D01*
X143704500Y-79181286D01*
X143737753Y-79391239D01*
X143761129Y-79463182D01*
X143763124Y-79533023D01*
X143727044Y-79592856D01*
X143664343Y-79623684D01*
X143643198Y-79625500D01*
X140810134Y-79625500D01*
X140743095Y-79605815D01*
X140697340Y-79553011D01*
X140687998Y-79488044D01*
X140687118Y-79487975D01*
X140687425Y-79484060D01*
X140687396Y-79483853D01*
X140687492Y-79483215D01*
X140687500Y-79483118D01*
X140687500Y-79284389D01*
X140656414Y-79088120D01*
X140655870Y-79085854D01*
X140655914Y-79084965D01*
X140655651Y-79083302D01*
X140656000Y-79083246D01*
X140659359Y-79016071D01*
X140688762Y-78969222D01*
X141008740Y-78649245D01*
X141335166Y-78322819D01*
X141396489Y-78289334D01*
X141422847Y-78286500D01*
X143738710Y-78286500D01*
X143805749Y-78306185D01*
G37*
G04 #@! TD.AperFunction*
G04 #@! TA.AperFunction,NonConductor*
G36*
X143805749Y-80846185D02*
G01*
X143851504Y-80898989D01*
X143861448Y-80968147D01*
X143849195Y-81006793D01*
X143846042Y-81012983D01*
X143803444Y-81096585D01*
X143803443Y-81096587D01*
X143803443Y-81096588D01*
X143801917Y-81101286D01*
X143737753Y-81298760D01*
X143704500Y-81508713D01*
X143704500Y-81721286D01*
X143737753Y-81931239D01*
X143803444Y-82133414D01*
X143899951Y-82322820D01*
X144024890Y-82494786D01*
X144174913Y-82644809D01*
X144208398Y-82706132D01*
X144203414Y-82775824D01*
X144161542Y-82831757D01*
X144146230Y-82841555D01*
X144135621Y-82847293D01*
X144097797Y-82859080D01*
X143961383Y-82941545D01*
X143958750Y-82942970D01*
X143927371Y-82949666D01*
X143896347Y-82957858D01*
X143893423Y-82956911D01*
X143890419Y-82957553D01*
X143860396Y-82946220D01*
X143829873Y-82936340D01*
X143826237Y-82933326D01*
X143825051Y-82932879D01*
X143824017Y-82931487D01*
X143812071Y-82921586D01*
X141928666Y-81038181D01*
X141895181Y-80976858D01*
X141900165Y-80907166D01*
X141942037Y-80851233D01*
X142007501Y-80826816D01*
X142016347Y-80826500D01*
X143738710Y-80826500D01*
X143805749Y-80846185D01*
G37*
G04 #@! TD.AperFunction*
G04 #@! TA.AperFunction,NonConductor*
G36*
X190792755Y-72365185D02*
G01*
X190838510Y-72417989D01*
X190848454Y-72487147D01*
X190819429Y-72550703D01*
X190769049Y-72585682D01*
X190693921Y-72613702D01*
X190693914Y-72613706D01*
X190578705Y-72699952D01*
X190578702Y-72699955D01*
X190492456Y-72815164D01*
X190492452Y-72815171D01*
X190442158Y-72950017D01*
X190435751Y-73009616D01*
X190435751Y-73009623D01*
X190435750Y-73009635D01*
X190435750Y-75105370D01*
X190435751Y-75105387D01*
X190437188Y-75118744D01*
X190424783Y-75187504D01*
X190377173Y-75238641D01*
X190313899Y-75256000D01*
X147447930Y-75256000D01*
X147447914Y-75255999D01*
X147440318Y-75255999D01*
X147282203Y-75255999D01*
X147205839Y-75276461D01*
X147129474Y-75296923D01*
X147129469Y-75296926D01*
X146992550Y-75375975D01*
X146992542Y-75375981D01*
X146442556Y-75925966D01*
X146381233Y-75959451D01*
X146311541Y-75954467D01*
X146255608Y-75912595D01*
X146244390Y-75894579D01*
X146210050Y-75827182D01*
X146085109Y-75655213D01*
X145934786Y-75504890D01*
X145762820Y-75379951D01*
X145573414Y-75283444D01*
X145573413Y-75283443D01*
X145573412Y-75283443D01*
X145371243Y-75217754D01*
X145371241Y-75217753D01*
X145371240Y-75217753D01*
X145180253Y-75187504D01*
X145161287Y-75184500D01*
X144948713Y-75184500D01*
X144929747Y-75187504D01*
X144738755Y-75217754D01*
X144738748Y-75217755D01*
X144696475Y-75231491D01*
X144626634Y-75233486D01*
X144593625Y-75219444D01*
X144580962Y-75211726D01*
X144573716Y-75204480D01*
X144486904Y-75154360D01*
X144436785Y-75125423D01*
X144284057Y-75084499D01*
X144125943Y-75084499D01*
X144118347Y-75084499D01*
X144118331Y-75084500D01*
X135590420Y-75084500D01*
X135590404Y-75084499D01*
X135582808Y-75084499D01*
X135424693Y-75084499D01*
X135348329Y-75104961D01*
X135271964Y-75125423D01*
X135271959Y-75125426D01*
X135135040Y-75204475D01*
X135135032Y-75204481D01*
X125655457Y-84684056D01*
X125594134Y-84717541D01*
X125524442Y-84712557D01*
X125468509Y-84670685D01*
X125444092Y-84605221D01*
X125445302Y-84576985D01*
X125447500Y-84563111D01*
X125447500Y-84364389D01*
X125416413Y-84168114D01*
X125355005Y-83979118D01*
X125355005Y-83979117D01*
X125264786Y-83802055D01*
X125236708Y-83763409D01*
X125147981Y-83641286D01*
X125007464Y-83500769D01*
X124846694Y-83383963D01*
X124690218Y-83304234D01*
X124639423Y-83256260D01*
X124622628Y-83188439D01*
X124645165Y-83122304D01*
X124690218Y-83083265D01*
X124846694Y-83003537D01*
X125007464Y-82886731D01*
X125147981Y-82746214D01*
X125264787Y-82585444D01*
X125355005Y-82408382D01*
X125416413Y-82219386D01*
X125447500Y-82023111D01*
X125447500Y-81824389D01*
X125416413Y-81628114D01*
X125355005Y-81439118D01*
X125355005Y-81439117D01*
X125309035Y-81348899D01*
X125264787Y-81262056D01*
X125147981Y-81101286D01*
X125007464Y-80960769D01*
X124846694Y-80843963D01*
X124690218Y-80764234D01*
X124639423Y-80716260D01*
X124622628Y-80648439D01*
X124645165Y-80582304D01*
X124690218Y-80543265D01*
X124846694Y-80463537D01*
X125007464Y-80346731D01*
X125147981Y-80206214D01*
X125264787Y-80045444D01*
X125355005Y-79868382D01*
X125416413Y-79679386D01*
X125447500Y-79483111D01*
X125447500Y-79284389D01*
X125416413Y-79088114D01*
X125355005Y-78899118D01*
X125355005Y-78899117D01*
X125291937Y-78775341D01*
X125264787Y-78722056D01*
X125147981Y-78561286D01*
X125007464Y-78420769D01*
X124846694Y-78303963D01*
X124690218Y-78224234D01*
X124639423Y-78176260D01*
X124622628Y-78108439D01*
X124645165Y-78042304D01*
X124690218Y-78003265D01*
X124846694Y-77923537D01*
X125007464Y-77806731D01*
X125147981Y-77666214D01*
X125264787Y-77505444D01*
X125355005Y-77328382D01*
X125416413Y-77139386D01*
X125447500Y-76943111D01*
X125447500Y-76744389D01*
X125416413Y-76548114D01*
X125376944Y-76426640D01*
X125355006Y-76359120D01*
X125355005Y-76359117D01*
X125264786Y-76182055D01*
X125263286Y-76179990D01*
X125147981Y-76021286D01*
X125007464Y-75880769D01*
X124846694Y-75763963D01*
X124835839Y-75758432D01*
X124669632Y-75673744D01*
X124669629Y-75673743D01*
X124480637Y-75612337D01*
X124382498Y-75596793D01*
X124284361Y-75581250D01*
X124085639Y-75581250D01*
X124020214Y-75591612D01*
X123889362Y-75612337D01*
X123700370Y-75673743D01*
X123700367Y-75673744D01*
X123523305Y-75763963D01*
X123362533Y-75880771D01*
X123222021Y-76021283D01*
X123105213Y-76182055D01*
X123014994Y-76359117D01*
X123014993Y-76359120D01*
X122953587Y-76548112D01*
X122922500Y-76744389D01*
X122922500Y-76943110D01*
X122953587Y-77139387D01*
X123014993Y-77328379D01*
X123014994Y-77328382D01*
X123052526Y-77402041D01*
X123105213Y-77505444D01*
X123222019Y-77666214D01*
X123362536Y-77806731D01*
X123523306Y-77923537D01*
X123626708Y-77976223D01*
X123679780Y-78003265D01*
X123730576Y-78051240D01*
X123747371Y-78119061D01*
X123724833Y-78185196D01*
X123679780Y-78224235D01*
X123523305Y-78303963D01*
X123362533Y-78420771D01*
X123222021Y-78561283D01*
X123105213Y-78722055D01*
X123014994Y-78899117D01*
X123014993Y-78899120D01*
X122953587Y-79088112D01*
X122953587Y-79088114D01*
X122922500Y-79284389D01*
X122922500Y-79483111D01*
X122923281Y-79488044D01*
X122953587Y-79679387D01*
X123014993Y-79868379D01*
X123014994Y-79868382D01*
X123105213Y-80045444D01*
X123222019Y-80206214D01*
X123362536Y-80346731D01*
X123523306Y-80463537D01*
X123641832Y-80523929D01*
X123679780Y-80543265D01*
X123730576Y-80591240D01*
X123747371Y-80659061D01*
X123724833Y-80725196D01*
X123679780Y-80764235D01*
X123523305Y-80843963D01*
X123362533Y-80960771D01*
X123222021Y-81101283D01*
X123105213Y-81262055D01*
X123014994Y-81439117D01*
X123014993Y-81439120D01*
X122953587Y-81628112D01*
X122922500Y-81824389D01*
X122922500Y-82023110D01*
X122953587Y-82219387D01*
X123014993Y-82408379D01*
X123014994Y-82408382D01*
X123059019Y-82494784D01*
X123105213Y-82585444D01*
X123222019Y-82746214D01*
X123362536Y-82886731D01*
X123523306Y-83003537D01*
X123631076Y-83058449D01*
X123679780Y-83083265D01*
X123730576Y-83131240D01*
X123747371Y-83199061D01*
X123724833Y-83265196D01*
X123679780Y-83304235D01*
X123523305Y-83383963D01*
X123362533Y-83500771D01*
X123222021Y-83641283D01*
X123105213Y-83802055D01*
X123014994Y-83979117D01*
X123014993Y-83979120D01*
X122953587Y-84168112D01*
X122922500Y-84364389D01*
X122922500Y-84563110D01*
X122953587Y-84759387D01*
X123014993Y-84948379D01*
X123014994Y-84948382D01*
X123064851Y-85046230D01*
X123105213Y-85125444D01*
X123222019Y-85286214D01*
X123362536Y-85426731D01*
X123523306Y-85543537D01*
X123626708Y-85596223D01*
X123679780Y-85623265D01*
X123730576Y-85671240D01*
X123747371Y-85739061D01*
X123724833Y-85805196D01*
X123679780Y-85844235D01*
X123523305Y-85923963D01*
X123362533Y-86040771D01*
X123222021Y-86181283D01*
X123105213Y-86342055D01*
X123014994Y-86519117D01*
X123014993Y-86519120D01*
X122953587Y-86708112D01*
X122922500Y-86904389D01*
X122922500Y-87103110D01*
X122953587Y-87299387D01*
X123014993Y-87488379D01*
X123014994Y-87488382D01*
X123032693Y-87523117D01*
X123105213Y-87665444D01*
X123222019Y-87826214D01*
X123362536Y-87966731D01*
X123523306Y-88083537D01*
X123641832Y-88143929D01*
X123679780Y-88163265D01*
X123730576Y-88211240D01*
X123747371Y-88279061D01*
X123724833Y-88345196D01*
X123679780Y-88384235D01*
X123523305Y-88463963D01*
X123362533Y-88580771D01*
X123222021Y-88721283D01*
X123105213Y-88882055D01*
X123014994Y-89059117D01*
X123014993Y-89059120D01*
X122953587Y-89248112D01*
X122922500Y-89444389D01*
X122922500Y-89643110D01*
X122953587Y-89839387D01*
X123014993Y-90028379D01*
X123014994Y-90028382D01*
X123035793Y-90069201D01*
X123105213Y-90205444D01*
X123222019Y-90366214D01*
X123362536Y-90506731D01*
X123523306Y-90623537D01*
X123625516Y-90675616D01*
X123679780Y-90703265D01*
X123730576Y-90751240D01*
X123747371Y-90819061D01*
X123724833Y-90885196D01*
X123679780Y-90924235D01*
X123523305Y-91003963D01*
X123362533Y-91120771D01*
X123222021Y-91261283D01*
X123105213Y-91422055D01*
X123014994Y-91599117D01*
X123014993Y-91599120D01*
X122953587Y-91788112D01*
X122922500Y-91984389D01*
X122922500Y-92183110D01*
X122953587Y-92379387D01*
X123014993Y-92568379D01*
X123014994Y-92568382D01*
X123061101Y-92658870D01*
X123105213Y-92745444D01*
X123222019Y-92906214D01*
X123362536Y-93046731D01*
X123523306Y-93163537D01*
X123610149Y-93207785D01*
X123700367Y-93253755D01*
X123700370Y-93253756D01*
X123794866Y-93284459D01*
X123889364Y-93315163D01*
X124085639Y-93346250D01*
X124085640Y-93346250D01*
X124284360Y-93346250D01*
X124284361Y-93346250D01*
X124480636Y-93315163D01*
X124669632Y-93253755D01*
X124846694Y-93163537D01*
X125007464Y-93046731D01*
X125147981Y-92906214D01*
X125264787Y-92745444D01*
X125355005Y-92568382D01*
X125416413Y-92379386D01*
X125447500Y-92183111D01*
X125447500Y-91984389D01*
X125416413Y-91788114D01*
X125376341Y-91664785D01*
X125355006Y-91599120D01*
X125355005Y-91599117D01*
X125264786Y-91422055D01*
X125260359Y-91415962D01*
X125147981Y-91261286D01*
X125007464Y-91120769D01*
X124846694Y-91003963D01*
X124690218Y-90924234D01*
X124639423Y-90876260D01*
X124622628Y-90808439D01*
X124645165Y-90742304D01*
X124690218Y-90703265D01*
X124846694Y-90623537D01*
X125007464Y-90506731D01*
X125147981Y-90366214D01*
X125264787Y-90205444D01*
X125355005Y-90028382D01*
X125416413Y-89839386D01*
X125447500Y-89643111D01*
X125447500Y-89444389D01*
X125416413Y-89248114D01*
X125355005Y-89059118D01*
X125355005Y-89059117D01*
X125264786Y-88882055D01*
X125251767Y-88864136D01*
X125147981Y-88721286D01*
X125007464Y-88580769D01*
X124846694Y-88463963D01*
X124690218Y-88384234D01*
X124639423Y-88336260D01*
X124622628Y-88268439D01*
X124645165Y-88202304D01*
X124690218Y-88163265D01*
X124846694Y-88083537D01*
X125007464Y-87966731D01*
X125147981Y-87826214D01*
X125264787Y-87665444D01*
X125355005Y-87488382D01*
X125416413Y-87299386D01*
X125447500Y-87103111D01*
X125447500Y-86904389D01*
X125416413Y-86708114D01*
X125416409Y-86708102D01*
X125415869Y-86705849D01*
X125415913Y-86704959D01*
X125415651Y-86703302D01*
X125415999Y-86703246D01*
X125419360Y-86636066D01*
X125448760Y-86589223D01*
X135716167Y-76321819D01*
X135777490Y-76288334D01*
X135803848Y-76285500D01*
X138108244Y-76285500D01*
X138175283Y-76305185D01*
X138221038Y-76357989D01*
X138230982Y-76427147D01*
X138226175Y-76447816D01*
X138222271Y-76459834D01*
X138193587Y-76548112D01*
X138162500Y-76744389D01*
X138162500Y-76943110D01*
X138193587Y-77139387D01*
X138254993Y-77328379D01*
X138254994Y-77328382D01*
X138292526Y-77402041D01*
X138345213Y-77505444D01*
X138462019Y-77666214D01*
X138602536Y-77806731D01*
X138763306Y-77923537D01*
X138866708Y-77976223D01*
X138919780Y-78003265D01*
X138970576Y-78051240D01*
X138987371Y-78119061D01*
X138964833Y-78185196D01*
X138919780Y-78224235D01*
X138763305Y-78303963D01*
X138602533Y-78420771D01*
X138462021Y-78561283D01*
X138345213Y-78722055D01*
X138254994Y-78899117D01*
X138254993Y-78899120D01*
X138193587Y-79088112D01*
X138193587Y-79088114D01*
X138162500Y-79284389D01*
X138162500Y-79483111D01*
X138163281Y-79488044D01*
X138193587Y-79679387D01*
X138254993Y-79868379D01*
X138254994Y-79868382D01*
X138345213Y-80045444D01*
X138462019Y-80206214D01*
X138602536Y-80346731D01*
X138763306Y-80463537D01*
X138881832Y-80523929D01*
X138919780Y-80543265D01*
X138970576Y-80591240D01*
X138987371Y-80659061D01*
X138964833Y-80725196D01*
X138919780Y-80764235D01*
X138763305Y-80843963D01*
X138602533Y-80960771D01*
X138462021Y-81101283D01*
X138345213Y-81262055D01*
X138254994Y-81439117D01*
X138254993Y-81439120D01*
X138193587Y-81628112D01*
X138162500Y-81824389D01*
X138162500Y-82023110D01*
X138193587Y-82219387D01*
X138254993Y-82408379D01*
X138254994Y-82408382D01*
X138299019Y-82494784D01*
X138345213Y-82585444D01*
X138462019Y-82746214D01*
X138602536Y-82886731D01*
X138763306Y-83003537D01*
X138871076Y-83058449D01*
X138919780Y-83083265D01*
X138970576Y-83131240D01*
X138987371Y-83199061D01*
X138964833Y-83265196D01*
X138919780Y-83304235D01*
X138763305Y-83383963D01*
X138602533Y-83500771D01*
X138462021Y-83641283D01*
X138345213Y-83802055D01*
X138254994Y-83979117D01*
X138254993Y-83979120D01*
X138193587Y-84168112D01*
X138162500Y-84364389D01*
X138162500Y-84563110D01*
X138193586Y-84759386D01*
X138194131Y-84761653D01*
X138194086Y-84762540D01*
X138194349Y-84764198D01*
X138194000Y-84764253D01*
X138193611Y-84772021D01*
X138197240Y-84781749D01*
X138191895Y-84806318D01*
X138190638Y-84831435D01*
X138184200Y-84841692D01*
X138182388Y-84850022D01*
X138161238Y-84878276D01*
X137993286Y-85046228D01*
X137993285Y-85046228D01*
X137993284Y-85046229D01*
X137881481Y-85158032D01*
X137881479Y-85158035D01*
X137831361Y-85244844D01*
X137831359Y-85244846D01*
X137802425Y-85294959D01*
X137802424Y-85294960D01*
X137802423Y-85294965D01*
X137761499Y-85447693D01*
X137761499Y-85447695D01*
X137761499Y-85615796D01*
X137761500Y-85615809D01*
X137761500Y-87357390D01*
X137761499Y-87357408D01*
X137761499Y-87523114D01*
X137761498Y-87523114D01*
X137802423Y-87675845D01*
X137815234Y-87698034D01*
X137881477Y-87812772D01*
X137881481Y-87812777D01*
X138000349Y-87931645D01*
X138000355Y-87931650D01*
X138538322Y-88469619D01*
X138571807Y-88530942D01*
X138566823Y-88600634D01*
X138538323Y-88644980D01*
X138462022Y-88721282D01*
X138462021Y-88721283D01*
X138345213Y-88882055D01*
X138254994Y-89059117D01*
X138254993Y-89059120D01*
X138193587Y-89248112D01*
X138162500Y-89444389D01*
X138162500Y-89643110D01*
X138193587Y-89839387D01*
X138254993Y-90028379D01*
X138254994Y-90028382D01*
X138275793Y-90069201D01*
X138345213Y-90205444D01*
X138462019Y-90366214D01*
X138602536Y-90506731D01*
X138763306Y-90623537D01*
X138865516Y-90675616D01*
X138919780Y-90703265D01*
X138970576Y-90751240D01*
X138987371Y-90819061D01*
X138964833Y-90885196D01*
X138919780Y-90924235D01*
X138763305Y-91003963D01*
X138602533Y-91120771D01*
X138462021Y-91261283D01*
X138345213Y-91422055D01*
X138254994Y-91599117D01*
X138254993Y-91599120D01*
X138193587Y-91788112D01*
X138162500Y-91984389D01*
X138162500Y-92183110D01*
X138193587Y-92379387D01*
X138254993Y-92568379D01*
X138254994Y-92568382D01*
X138301101Y-92658870D01*
X138345213Y-92745444D01*
X138462019Y-92906214D01*
X138602536Y-93046731D01*
X138763306Y-93163537D01*
X138850149Y-93207785D01*
X138940367Y-93253755D01*
X138940370Y-93253756D01*
X139034866Y-93284459D01*
X139129364Y-93315163D01*
X139325639Y-93346250D01*
X139325640Y-93346250D01*
X139524360Y-93346250D01*
X139524361Y-93346250D01*
X139720636Y-93315163D01*
X139909632Y-93253755D01*
X140086694Y-93163537D01*
X140247464Y-93046731D01*
X140387981Y-92906214D01*
X140504787Y-92745444D01*
X140595005Y-92568382D01*
X140656413Y-92379386D01*
X140687500Y-92183111D01*
X140687500Y-91984389D01*
X140679307Y-91932663D01*
X140688261Y-91863373D01*
X140733257Y-91809920D01*
X140800008Y-91789280D01*
X140847413Y-91797969D01*
X140855885Y-91801322D01*
X140939466Y-91849577D01*
X141051269Y-91879534D01*
X141092192Y-91890500D01*
X141092193Y-91890500D01*
X153553700Y-91890500D01*
X153620739Y-91910185D01*
X153664185Y-91958205D01*
X153751132Y-92128848D01*
X153899201Y-92332649D01*
X153899205Y-92332654D01*
X154077345Y-92510794D01*
X154077350Y-92510798D01*
X154255117Y-92639952D01*
X154281155Y-92658870D01*
X154451795Y-92745815D01*
X154502591Y-92793789D01*
X154519500Y-92856300D01*
X154519500Y-94835461D01*
X154499815Y-94902500D01*
X154447011Y-94948255D01*
X154377853Y-94958199D01*
X154314297Y-94929174D01*
X154297125Y-94910949D01*
X154275644Y-94882955D01*
X154067047Y-94674358D01*
X154067040Y-94674352D01*
X153832993Y-94494761D01*
X153577510Y-94347258D01*
X153577500Y-94347254D01*
X153304961Y-94234364D01*
X153304954Y-94234362D01*
X153304952Y-94234361D01*
X153019993Y-94158007D01*
X152971113Y-94151571D01*
X152727513Y-94119500D01*
X152727506Y-94119500D01*
X152432494Y-94119500D01*
X152432486Y-94119500D01*
X152154085Y-94156153D01*
X152140007Y-94158007D01*
X151965428Y-94204785D01*
X151855048Y-94234361D01*
X151855038Y-94234364D01*
X151582499Y-94347254D01*
X151582489Y-94347258D01*
X151327006Y-94494761D01*
X151092959Y-94674352D01*
X151092952Y-94674358D01*
X150884358Y-94882952D01*
X150884352Y-94882959D01*
X150704761Y-95117006D01*
X150557258Y-95372489D01*
X150557254Y-95372499D01*
X150444364Y-95645038D01*
X150444361Y-95645048D01*
X150368008Y-95930004D01*
X150368006Y-95930015D01*
X150329500Y-96222486D01*
X150329500Y-96517513D01*
X150350866Y-96679798D01*
X150368007Y-96809993D01*
X150442212Y-97086930D01*
X150444361Y-97094951D01*
X150444364Y-97094961D01*
X150557254Y-97367500D01*
X150557258Y-97367510D01*
X150704761Y-97622993D01*
X150884352Y-97857040D01*
X150884358Y-97857047D01*
X151092952Y-98065641D01*
X151092959Y-98065647D01*
X151327006Y-98245238D01*
X151582489Y-98392741D01*
X151582490Y-98392741D01*
X151582493Y-98392743D01*
X151855048Y-98505639D01*
X152140007Y-98581993D01*
X152432494Y-98620500D01*
X152432501Y-98620500D01*
X152727499Y-98620500D01*
X152727506Y-98620500D01*
X153019993Y-98581993D01*
X153304952Y-98505639D01*
X153577507Y-98392743D01*
X153832994Y-98245238D01*
X154067042Y-98065646D01*
X154275646Y-97857042D01*
X154297124Y-97829052D01*
X154353552Y-97787849D01*
X154423298Y-97783694D01*
X154484218Y-97817906D01*
X154516971Y-97879624D01*
X154519500Y-97904538D01*
X154519500Y-108773699D01*
X154499815Y-108840738D01*
X154451795Y-108884184D01*
X154281151Y-108971132D01*
X154077350Y-109119201D01*
X154077345Y-109119205D01*
X153899205Y-109297345D01*
X153899201Y-109297350D01*
X153751132Y-109501151D01*
X153636760Y-109725616D01*
X153558910Y-109965214D01*
X153519500Y-110214038D01*
X153519500Y-110465961D01*
X153558910Y-110714785D01*
X153636760Y-110954383D01*
X153751132Y-111178848D01*
X153899201Y-111382649D01*
X153899205Y-111382654D01*
X154077345Y-111560794D01*
X154077350Y-111560798D01*
X154255117Y-111689952D01*
X154281155Y-111708870D01*
X154424184Y-111781747D01*
X154505616Y-111823239D01*
X154505618Y-111823239D01*
X154505621Y-111823241D01*
X154745215Y-111901090D01*
X154994038Y-111940500D01*
X154994039Y-111940500D01*
X155245961Y-111940500D01*
X155245962Y-111940500D01*
X155494785Y-111901090D01*
X155734379Y-111823241D01*
X155958845Y-111708870D01*
X156162656Y-111560793D01*
X156340793Y-111382656D01*
X156488870Y-111178845D01*
X156603241Y-110954379D01*
X156681090Y-110714785D01*
X156720500Y-110465962D01*
X156720500Y-110214038D01*
X156681090Y-109965215D01*
X156603241Y-109725621D01*
X156603239Y-109725618D01*
X156603239Y-109725616D01*
X156561747Y-109644184D01*
X156488870Y-109501155D01*
X156469952Y-109475117D01*
X156340798Y-109297350D01*
X156340794Y-109297345D01*
X156162654Y-109119205D01*
X156162649Y-109119201D01*
X155958848Y-108971132D01*
X155958847Y-108971131D01*
X155958845Y-108971130D01*
X155889186Y-108935637D01*
X155788205Y-108884184D01*
X155737409Y-108836209D01*
X155720500Y-108773699D01*
X155720500Y-101008733D01*
X160804500Y-101008733D01*
X160804500Y-102208751D01*
X160804501Y-102208768D01*
X160815000Y-102311546D01*
X160815001Y-102311549D01*
X160870185Y-102478081D01*
X160870186Y-102478084D01*
X160962288Y-102627406D01*
X161086344Y-102751462D01*
X161235666Y-102843564D01*
X161402203Y-102898749D01*
X161504991Y-102909250D01*
X162705008Y-102909249D01*
X162807797Y-102898749D01*
X162974334Y-102843564D01*
X163123656Y-102751462D01*
X163247712Y-102627406D01*
X163339814Y-102478084D01*
X163394999Y-102311547D01*
X163405500Y-102208759D01*
X163405499Y-101008742D01*
X163394999Y-100905953D01*
X163339814Y-100739416D01*
X163247712Y-100590094D01*
X163123656Y-100466038D01*
X162974334Y-100373936D01*
X162807797Y-100318751D01*
X162807795Y-100318750D01*
X162705010Y-100308250D01*
X161504998Y-100308250D01*
X161504981Y-100308251D01*
X161402203Y-100318750D01*
X161402200Y-100318751D01*
X161235668Y-100373935D01*
X161235663Y-100373937D01*
X161086342Y-100466039D01*
X160962289Y-100590092D01*
X160870187Y-100739413D01*
X160870186Y-100739416D01*
X160815001Y-100905953D01*
X160815001Y-100905954D01*
X160815000Y-100905954D01*
X160804500Y-101008733D01*
X155720500Y-101008733D01*
X155720500Y-96283389D01*
X156559500Y-96283389D01*
X156559500Y-96456611D01*
X156586598Y-96627701D01*
X156640127Y-96792445D01*
X156718768Y-96946788D01*
X156820586Y-97086928D01*
X156943072Y-97209414D01*
X157083212Y-97311232D01*
X157237555Y-97389873D01*
X157402299Y-97443402D01*
X157573389Y-97470500D01*
X157573390Y-97470500D01*
X157746610Y-97470500D01*
X157746611Y-97470500D01*
X157917701Y-97443402D01*
X158082445Y-97389873D01*
X158236788Y-97311232D01*
X158376928Y-97209414D01*
X158499414Y-97086928D01*
X158601232Y-96946788D01*
X158679873Y-96792445D01*
X158733402Y-96627701D01*
X158760500Y-96456611D01*
X158760500Y-96283389D01*
X165449500Y-96283389D01*
X165449500Y-96456611D01*
X165476598Y-96627701D01*
X165530127Y-96792445D01*
X165608768Y-96946788D01*
X165710586Y-97086928D01*
X165833072Y-97209414D01*
X165973212Y-97311232D01*
X166127555Y-97389873D01*
X166292299Y-97443402D01*
X166463389Y-97470500D01*
X166463390Y-97470500D01*
X166636610Y-97470500D01*
X166636611Y-97470500D01*
X166807701Y-97443402D01*
X166972445Y-97389873D01*
X167126788Y-97311232D01*
X167266928Y-97209414D01*
X167389414Y-97086928D01*
X167491232Y-96946788D01*
X167569873Y-96792445D01*
X167623402Y-96627701D01*
X167650500Y-96456611D01*
X167650500Y-96283389D01*
X167623402Y-96112299D01*
X167569873Y-95947555D01*
X167491232Y-95793212D01*
X167389414Y-95653072D01*
X167337482Y-95601140D01*
X167303997Y-95539817D01*
X167308981Y-95470125D01*
X167350853Y-95414192D01*
X167416317Y-95389775D01*
X167444561Y-95390986D01*
X167445212Y-95391089D01*
X167445215Y-95391090D01*
X167694038Y-95430500D01*
X167694039Y-95430500D01*
X167945961Y-95430500D01*
X167945962Y-95430500D01*
X168194785Y-95391090D01*
X168434379Y-95313241D01*
X168658845Y-95198870D01*
X168862656Y-95050793D01*
X169040793Y-94872656D01*
X169188870Y-94668845D01*
X169303241Y-94444379D01*
X169381090Y-94204785D01*
X169420500Y-93955962D01*
X169420500Y-93704038D01*
X169381090Y-93455215D01*
X169303241Y-93215621D01*
X169303239Y-93215618D01*
X169303239Y-93215616D01*
X169217187Y-93046731D01*
X169188870Y-92991155D01*
X169169952Y-92965117D01*
X169040798Y-92787350D01*
X169040794Y-92787345D01*
X168862654Y-92609205D01*
X168862649Y-92609201D01*
X168658848Y-92461132D01*
X168658847Y-92461131D01*
X168658845Y-92461130D01*
X168588747Y-92425413D01*
X168434383Y-92346760D01*
X168194785Y-92268910D01*
X167945962Y-92229500D01*
X167694038Y-92229500D01*
X167569626Y-92249205D01*
X167445214Y-92268910D01*
X167205616Y-92346760D01*
X166981151Y-92461132D01*
X166777350Y-92609201D01*
X166777345Y-92609205D01*
X166599205Y-92787345D01*
X166599201Y-92787350D01*
X166451132Y-92991151D01*
X166336760Y-93215616D01*
X166258910Y-93455214D01*
X166219500Y-93704038D01*
X166219500Y-93955961D01*
X166258910Y-94204785D01*
X166336760Y-94444383D01*
X166451132Y-94668848D01*
X166599201Y-94872649D01*
X166599205Y-94872654D01*
X166599207Y-94872656D01*
X166777344Y-95050793D01*
X166777345Y-95050794D01*
X166777344Y-95050794D01*
X166783661Y-95055383D01*
X166826327Y-95110714D01*
X166832305Y-95180327D01*
X166799699Y-95242122D01*
X166738860Y-95276479D01*
X166691378Y-95278174D01*
X166636611Y-95269500D01*
X166463389Y-95269500D01*
X166423728Y-95275781D01*
X166292302Y-95296597D01*
X166127552Y-95350128D01*
X165973211Y-95428768D01*
X165916289Y-95470125D01*
X165833072Y-95530586D01*
X165833070Y-95530588D01*
X165833069Y-95530588D01*
X165710588Y-95653069D01*
X165710588Y-95653070D01*
X165710586Y-95653072D01*
X165666859Y-95713256D01*
X165608768Y-95793211D01*
X165530128Y-95947552D01*
X165476597Y-96112302D01*
X165459146Y-96222486D01*
X165449500Y-96283389D01*
X158760500Y-96283389D01*
X158733402Y-96112299D01*
X158679873Y-95947555D01*
X158601232Y-95793212D01*
X158499414Y-95653072D01*
X158376928Y-95530586D01*
X158236788Y-95428768D01*
X158082445Y-95350127D01*
X157917701Y-95296598D01*
X157917699Y-95296597D01*
X157917698Y-95296597D01*
X157786271Y-95275781D01*
X157746611Y-95269500D01*
X157573389Y-95269500D01*
X157533728Y-95275781D01*
X157402302Y-95296597D01*
X157237552Y-95350128D01*
X157083211Y-95428768D01*
X157026289Y-95470125D01*
X156943072Y-95530586D01*
X156943070Y-95530588D01*
X156943069Y-95530588D01*
X156820588Y-95653069D01*
X156820588Y-95653070D01*
X156820586Y-95653072D01*
X156776859Y-95713256D01*
X156718768Y-95793211D01*
X156640128Y-95947552D01*
X156586597Y-96112302D01*
X156569146Y-96222486D01*
X156559500Y-96283389D01*
X155720500Y-96283389D01*
X155720500Y-93886398D01*
X160804500Y-93886398D01*
X160804500Y-94091101D01*
X160836522Y-94293284D01*
X160899781Y-94487973D01*
X160963691Y-94613403D01*
X160991941Y-94668845D01*
X160992715Y-94670363D01*
X161113028Y-94835963D01*
X161257786Y-94980721D01*
X161354241Y-95050798D01*
X161423390Y-95101037D01*
X161539607Y-95160253D01*
X161605776Y-95193968D01*
X161605778Y-95193968D01*
X161605781Y-95193970D01*
X161710137Y-95227877D01*
X161800465Y-95257227D01*
X161877953Y-95269500D01*
X162002648Y-95289250D01*
X162002649Y-95289250D01*
X162207351Y-95289250D01*
X162207352Y-95289250D01*
X162409534Y-95257227D01*
X162604219Y-95193970D01*
X162786610Y-95101037D01*
X162879590Y-95033482D01*
X162952213Y-94980721D01*
X162952215Y-94980718D01*
X162952219Y-94980716D01*
X163096966Y-94835969D01*
X163096968Y-94835965D01*
X163096971Y-94835963D01*
X163214382Y-94674358D01*
X163217287Y-94670360D01*
X163310220Y-94487969D01*
X163373477Y-94293284D01*
X163405500Y-94091102D01*
X163405500Y-93886398D01*
X163373477Y-93684216D01*
X163310220Y-93489531D01*
X163310218Y-93489528D01*
X163310218Y-93489526D01*
X163276503Y-93423357D01*
X163217287Y-93307140D01*
X163178501Y-93253755D01*
X163096971Y-93141536D01*
X162952213Y-92996778D01*
X162786613Y-92876465D01*
X162786612Y-92876464D01*
X162786610Y-92876463D01*
X162729653Y-92847441D01*
X162604223Y-92783531D01*
X162409534Y-92720272D01*
X162234995Y-92692628D01*
X162207352Y-92688250D01*
X162002648Y-92688250D01*
X161978329Y-92692101D01*
X161800465Y-92720272D01*
X161605776Y-92783531D01*
X161423386Y-92876465D01*
X161257786Y-92996778D01*
X161113028Y-93141536D01*
X160992715Y-93307136D01*
X160899781Y-93489526D01*
X160836522Y-93684215D01*
X160804500Y-93886398D01*
X155720500Y-93886398D01*
X155720500Y-92856300D01*
X155740185Y-92789261D01*
X155788204Y-92745815D01*
X155958845Y-92658870D01*
X156162656Y-92510793D01*
X156340793Y-92332656D01*
X156488870Y-92128845D01*
X156603241Y-91904379D01*
X156681090Y-91664785D01*
X156720500Y-91415962D01*
X156720500Y-91164038D01*
X156681090Y-90915215D01*
X156603241Y-90675621D01*
X156603239Y-90675618D01*
X156603239Y-90675616D01*
X156517187Y-90506731D01*
X156488870Y-90451155D01*
X156469952Y-90425117D01*
X156340798Y-90247350D01*
X156340794Y-90247345D01*
X156162654Y-90069205D01*
X156162649Y-90069201D01*
X155958848Y-89921132D01*
X155958847Y-89921131D01*
X155958845Y-89921130D01*
X155888747Y-89885413D01*
X155734383Y-89806760D01*
X155494785Y-89728910D01*
X155245962Y-89689500D01*
X154994038Y-89689500D01*
X154869626Y-89709205D01*
X154745214Y-89728910D01*
X154505616Y-89806760D01*
X154281151Y-89921132D01*
X154077350Y-90069201D01*
X154077345Y-90069205D01*
X153899205Y-90247345D01*
X153899201Y-90247350D01*
X153751132Y-90451151D01*
X153751130Y-90451155D01*
X153671685Y-90607076D01*
X153664185Y-90621795D01*
X153616211Y-90672591D01*
X153553700Y-90689500D01*
X141471347Y-90689500D01*
X141404308Y-90669815D01*
X141383666Y-90653181D01*
X140688762Y-89958277D01*
X140655277Y-89896954D01*
X140655843Y-89844228D01*
X140655651Y-89844198D01*
X140655857Y-89842893D01*
X140655871Y-89841641D01*
X140656409Y-89839396D01*
X140656413Y-89839386D01*
X140687500Y-89643111D01*
X140687500Y-89444389D01*
X140656413Y-89248114D01*
X140595005Y-89059118D01*
X140595005Y-89059117D01*
X140504784Y-88882051D01*
X140491768Y-88864136D01*
X140468287Y-88798330D01*
X140484112Y-88730276D01*
X140534217Y-88681581D01*
X140592085Y-88667250D01*
X170646653Y-88667250D01*
X170713692Y-88686935D01*
X170734334Y-88703569D01*
X172637841Y-90607076D01*
X172671326Y-90668399D01*
X172668091Y-90733074D01*
X172662189Y-90751240D01*
X172608910Y-90915214D01*
X172569500Y-91164038D01*
X172569500Y-91415961D01*
X172608910Y-91664785D01*
X172686760Y-91904383D01*
X172801132Y-92128848D01*
X172949201Y-92332649D01*
X172949205Y-92332654D01*
X173127345Y-92510794D01*
X173127350Y-92510798D01*
X173305117Y-92639952D01*
X173331155Y-92658870D01*
X173501795Y-92745815D01*
X173552591Y-92793789D01*
X173569500Y-92856300D01*
X173569500Y-94835461D01*
X173549815Y-94902500D01*
X173497011Y-94948255D01*
X173427853Y-94958199D01*
X173364297Y-94929174D01*
X173347125Y-94910949D01*
X173325644Y-94882955D01*
X173117047Y-94674358D01*
X173117040Y-94674352D01*
X172882993Y-94494761D01*
X172627510Y-94347258D01*
X172627500Y-94347254D01*
X172354961Y-94234364D01*
X172354954Y-94234362D01*
X172354952Y-94234361D01*
X172069993Y-94158007D01*
X172021113Y-94151571D01*
X171777513Y-94119500D01*
X171777506Y-94119500D01*
X171482494Y-94119500D01*
X171482486Y-94119500D01*
X171204085Y-94156153D01*
X171190007Y-94158007D01*
X171015428Y-94204785D01*
X170905048Y-94234361D01*
X170905038Y-94234364D01*
X170632499Y-94347254D01*
X170632489Y-94347258D01*
X170377006Y-94494761D01*
X170142959Y-94674352D01*
X170142952Y-94674358D01*
X169934358Y-94882952D01*
X169934352Y-94882959D01*
X169754761Y-95117006D01*
X169607258Y-95372489D01*
X169607254Y-95372499D01*
X169494364Y-95645038D01*
X169494361Y-95645048D01*
X169418008Y-95930004D01*
X169418006Y-95930015D01*
X169379500Y-96222486D01*
X169379500Y-96517513D01*
X169400866Y-96679798D01*
X169418007Y-96809993D01*
X169492212Y-97086930D01*
X169494361Y-97094951D01*
X169494364Y-97094961D01*
X169607254Y-97367500D01*
X169607258Y-97367510D01*
X169754761Y-97622993D01*
X169934352Y-97857040D01*
X169934358Y-97857047D01*
X170142952Y-98065641D01*
X170142959Y-98065647D01*
X170377006Y-98245238D01*
X170632489Y-98392741D01*
X170632490Y-98392741D01*
X170632493Y-98392743D01*
X170905048Y-98505639D01*
X171190007Y-98581993D01*
X171482494Y-98620500D01*
X171482501Y-98620500D01*
X171777499Y-98620500D01*
X171777506Y-98620500D01*
X172069993Y-98581993D01*
X172354952Y-98505639D01*
X172627507Y-98392743D01*
X172882994Y-98245238D01*
X173117042Y-98065646D01*
X173325646Y-97857042D01*
X173347124Y-97829052D01*
X173403552Y-97787849D01*
X173473298Y-97783694D01*
X173534218Y-97817906D01*
X173566971Y-97879624D01*
X173569500Y-97904538D01*
X173569500Y-108773699D01*
X173549815Y-108840738D01*
X173501795Y-108884184D01*
X173331151Y-108971132D01*
X173127350Y-109119201D01*
X173127345Y-109119205D01*
X172949205Y-109297345D01*
X172949201Y-109297350D01*
X172801132Y-109501151D01*
X172686760Y-109725616D01*
X172608910Y-109965214D01*
X172569500Y-110214038D01*
X172569500Y-110465961D01*
X172608910Y-110714785D01*
X172686760Y-110954383D01*
X172801132Y-111178848D01*
X172949201Y-111382649D01*
X172949205Y-111382654D01*
X173127345Y-111560794D01*
X173127350Y-111560798D01*
X173305117Y-111689952D01*
X173331155Y-111708870D01*
X173474184Y-111781747D01*
X173555616Y-111823239D01*
X173555618Y-111823239D01*
X173555621Y-111823241D01*
X173795215Y-111901090D01*
X174044038Y-111940500D01*
X174044039Y-111940500D01*
X174295961Y-111940500D01*
X174295962Y-111940500D01*
X174544785Y-111901090D01*
X174784379Y-111823241D01*
X175008845Y-111708870D01*
X175212656Y-111560793D01*
X175390793Y-111382656D01*
X175538870Y-111178845D01*
X175653241Y-110954379D01*
X175731090Y-110714785D01*
X175770500Y-110465962D01*
X175770500Y-110214038D01*
X175731090Y-109965215D01*
X175653241Y-109725621D01*
X175653239Y-109725618D01*
X175653239Y-109725616D01*
X175611747Y-109644184D01*
X175538870Y-109501155D01*
X175519952Y-109475117D01*
X175390798Y-109297350D01*
X175390794Y-109297345D01*
X175212654Y-109119205D01*
X175212649Y-109119201D01*
X175008848Y-108971132D01*
X175008847Y-108971131D01*
X175008845Y-108971130D01*
X174939186Y-108935637D01*
X174838205Y-108884184D01*
X174787409Y-108836209D01*
X174770500Y-108773699D01*
X174770500Y-101008733D01*
X179854500Y-101008733D01*
X179854500Y-102208751D01*
X179854501Y-102208768D01*
X179865000Y-102311546D01*
X179865001Y-102311549D01*
X179920185Y-102478081D01*
X179920186Y-102478084D01*
X180012288Y-102627406D01*
X180136344Y-102751462D01*
X180285666Y-102843564D01*
X180452203Y-102898749D01*
X180554991Y-102909250D01*
X181755008Y-102909249D01*
X181857797Y-102898749D01*
X182024334Y-102843564D01*
X182173656Y-102751462D01*
X182297712Y-102627406D01*
X182389814Y-102478084D01*
X182444999Y-102311547D01*
X182455500Y-102208759D01*
X182455499Y-101008742D01*
X182444999Y-100905953D01*
X182389814Y-100739416D01*
X182297712Y-100590094D01*
X182173656Y-100466038D01*
X182024334Y-100373936D01*
X181857797Y-100318751D01*
X181857795Y-100318750D01*
X181755010Y-100308250D01*
X180554998Y-100308250D01*
X180554981Y-100308251D01*
X180452203Y-100318750D01*
X180452200Y-100318751D01*
X180285668Y-100373935D01*
X180285663Y-100373937D01*
X180136342Y-100466039D01*
X180012289Y-100590092D01*
X179920187Y-100739413D01*
X179920186Y-100739416D01*
X179865001Y-100905953D01*
X179865001Y-100905954D01*
X179865000Y-100905954D01*
X179854500Y-101008733D01*
X174770500Y-101008733D01*
X174770500Y-96283389D01*
X175609500Y-96283389D01*
X175609500Y-96456611D01*
X175636598Y-96627701D01*
X175690127Y-96792445D01*
X175768768Y-96946788D01*
X175870586Y-97086928D01*
X175993072Y-97209414D01*
X176133212Y-97311232D01*
X176287555Y-97389873D01*
X176452299Y-97443402D01*
X176623389Y-97470500D01*
X176623390Y-97470500D01*
X176796610Y-97470500D01*
X176796611Y-97470500D01*
X176967701Y-97443402D01*
X177132445Y-97389873D01*
X177286788Y-97311232D01*
X177426928Y-97209414D01*
X177549414Y-97086928D01*
X177651232Y-96946788D01*
X177729873Y-96792445D01*
X177783402Y-96627701D01*
X177810500Y-96456611D01*
X177810500Y-96283389D01*
X184499500Y-96283389D01*
X184499500Y-96456611D01*
X184526598Y-96627701D01*
X184580127Y-96792445D01*
X184658768Y-96946788D01*
X184760586Y-97086928D01*
X184883072Y-97209414D01*
X185023212Y-97311232D01*
X185177555Y-97389873D01*
X185342299Y-97443402D01*
X185513389Y-97470500D01*
X185513390Y-97470500D01*
X185686610Y-97470500D01*
X185686611Y-97470500D01*
X185857701Y-97443402D01*
X186022445Y-97389873D01*
X186176788Y-97311232D01*
X186316928Y-97209414D01*
X186439414Y-97086928D01*
X186541232Y-96946788D01*
X186619873Y-96792445D01*
X186673402Y-96627701D01*
X186700500Y-96456611D01*
X186700500Y-96283389D01*
X186673402Y-96112299D01*
X186619873Y-95947555D01*
X186541232Y-95793212D01*
X186439414Y-95653072D01*
X186387482Y-95601140D01*
X186353997Y-95539817D01*
X186358981Y-95470125D01*
X186400853Y-95414192D01*
X186466317Y-95389775D01*
X186494561Y-95390986D01*
X186495212Y-95391089D01*
X186495215Y-95391090D01*
X186744038Y-95430500D01*
X186744039Y-95430500D01*
X186995961Y-95430500D01*
X186995962Y-95430500D01*
X187244785Y-95391090D01*
X187484379Y-95313241D01*
X187708845Y-95198870D01*
X187912656Y-95050793D01*
X188090793Y-94872656D01*
X188238870Y-94668845D01*
X188353241Y-94444379D01*
X188431090Y-94204785D01*
X188470500Y-93955962D01*
X188470500Y-93704038D01*
X188431090Y-93455215D01*
X188353241Y-93215621D01*
X188353239Y-93215618D01*
X188353239Y-93215616D01*
X188267187Y-93046731D01*
X188238870Y-92991155D01*
X188219952Y-92965117D01*
X188090798Y-92787350D01*
X188090794Y-92787345D01*
X187912654Y-92609205D01*
X187912649Y-92609201D01*
X187708848Y-92461132D01*
X187708847Y-92461131D01*
X187708845Y-92461130D01*
X187638747Y-92425413D01*
X187484383Y-92346760D01*
X187244785Y-92268910D01*
X186995962Y-92229500D01*
X186744038Y-92229500D01*
X186619626Y-92249205D01*
X186495214Y-92268910D01*
X186255616Y-92346760D01*
X186031151Y-92461132D01*
X185827350Y-92609201D01*
X185827345Y-92609205D01*
X185649205Y-92787345D01*
X185649201Y-92787350D01*
X185501132Y-92991151D01*
X185386760Y-93215616D01*
X185308910Y-93455214D01*
X185269500Y-93704038D01*
X185269500Y-93955961D01*
X185308910Y-94204785D01*
X185386760Y-94444383D01*
X185501132Y-94668848D01*
X185649201Y-94872649D01*
X185649205Y-94872654D01*
X185649207Y-94872656D01*
X185827344Y-95050793D01*
X185827345Y-95050794D01*
X185827344Y-95050794D01*
X185833661Y-95055383D01*
X185876327Y-95110714D01*
X185882305Y-95180327D01*
X185849699Y-95242122D01*
X185788860Y-95276479D01*
X185741378Y-95278174D01*
X185686611Y-95269500D01*
X185513389Y-95269500D01*
X185473728Y-95275781D01*
X185342302Y-95296597D01*
X185177552Y-95350128D01*
X185023211Y-95428768D01*
X184966289Y-95470125D01*
X184883072Y-95530586D01*
X184883070Y-95530588D01*
X184883069Y-95530588D01*
X184760588Y-95653069D01*
X184760588Y-95653070D01*
X184760586Y-95653072D01*
X184716859Y-95713256D01*
X184658768Y-95793211D01*
X184580128Y-95947552D01*
X184526597Y-96112302D01*
X184509146Y-96222486D01*
X184499500Y-96283389D01*
X177810500Y-96283389D01*
X177783402Y-96112299D01*
X177729873Y-95947555D01*
X177651232Y-95793212D01*
X177549414Y-95653072D01*
X177426928Y-95530586D01*
X177286788Y-95428768D01*
X177132445Y-95350127D01*
X176967701Y-95296598D01*
X176967699Y-95296597D01*
X176967698Y-95296597D01*
X176836271Y-95275781D01*
X176796611Y-95269500D01*
X176623389Y-95269500D01*
X176583728Y-95275781D01*
X176452302Y-95296597D01*
X176287552Y-95350128D01*
X176133211Y-95428768D01*
X176076289Y-95470125D01*
X175993072Y-95530586D01*
X175993070Y-95530588D01*
X175993069Y-95530588D01*
X175870588Y-95653069D01*
X175870588Y-95653070D01*
X175870586Y-95653072D01*
X175826859Y-95713256D01*
X175768768Y-95793211D01*
X175690128Y-95947552D01*
X175636597Y-96112302D01*
X175619146Y-96222486D01*
X175609500Y-96283389D01*
X174770500Y-96283389D01*
X174770500Y-93886398D01*
X179854500Y-93886398D01*
X179854500Y-94091101D01*
X179886522Y-94293284D01*
X179949781Y-94487973D01*
X180013691Y-94613403D01*
X180041941Y-94668845D01*
X180042715Y-94670363D01*
X180163028Y-94835963D01*
X180307786Y-94980721D01*
X180404241Y-95050798D01*
X180473390Y-95101037D01*
X180589607Y-95160253D01*
X180655776Y-95193968D01*
X180655778Y-95193968D01*
X180655781Y-95193970D01*
X180760137Y-95227877D01*
X180850465Y-95257227D01*
X180927953Y-95269500D01*
X181052648Y-95289250D01*
X181052649Y-95289250D01*
X181257351Y-95289250D01*
X181257352Y-95289250D01*
X181459534Y-95257227D01*
X181654219Y-95193970D01*
X181836610Y-95101037D01*
X181929590Y-95033482D01*
X182002213Y-94980721D01*
X182002215Y-94980718D01*
X182002219Y-94980716D01*
X182146966Y-94835969D01*
X182146968Y-94835965D01*
X182146971Y-94835963D01*
X182264382Y-94674358D01*
X182267287Y-94670360D01*
X182360220Y-94487969D01*
X182423477Y-94293284D01*
X182455500Y-94091102D01*
X182455500Y-93886398D01*
X182423477Y-93684216D01*
X182360220Y-93489531D01*
X182360218Y-93489528D01*
X182360218Y-93489526D01*
X182326503Y-93423357D01*
X182267287Y-93307140D01*
X182228501Y-93253755D01*
X182146971Y-93141536D01*
X182002213Y-92996778D01*
X181836613Y-92876465D01*
X181836612Y-92876464D01*
X181836610Y-92876463D01*
X181779653Y-92847441D01*
X181654223Y-92783531D01*
X181459534Y-92720272D01*
X181284995Y-92692628D01*
X181257352Y-92688250D01*
X181052648Y-92688250D01*
X181028329Y-92692101D01*
X180850465Y-92720272D01*
X180655776Y-92783531D01*
X180473386Y-92876465D01*
X180307786Y-92996778D01*
X180163028Y-93141536D01*
X180042715Y-93307136D01*
X179949781Y-93489526D01*
X179886522Y-93684215D01*
X179854500Y-93886398D01*
X174770500Y-93886398D01*
X174770500Y-92856300D01*
X174790185Y-92789261D01*
X174838204Y-92745815D01*
X175008845Y-92658870D01*
X175212656Y-92510793D01*
X175390793Y-92332656D01*
X175538870Y-92128845D01*
X175653241Y-91904379D01*
X175731090Y-91664785D01*
X175770500Y-91415962D01*
X175770500Y-91164038D01*
X175731090Y-90915215D01*
X175653241Y-90675621D01*
X175653239Y-90675618D01*
X175653239Y-90675616D01*
X175567187Y-90506731D01*
X175538870Y-90451155D01*
X175519952Y-90425117D01*
X175390798Y-90247350D01*
X175390794Y-90247345D01*
X175212654Y-90069205D01*
X175212649Y-90069201D01*
X175008848Y-89921132D01*
X175008847Y-89921131D01*
X175008845Y-89921130D01*
X174938747Y-89885413D01*
X174784383Y-89806760D01*
X174544785Y-89728910D01*
X174295962Y-89689500D01*
X174044038Y-89689500D01*
X173919626Y-89709205D01*
X173795214Y-89728910D01*
X173706175Y-89757841D01*
X173613074Y-89788091D01*
X173543234Y-89790086D01*
X173487076Y-89757841D01*
X171545166Y-87815931D01*
X171511681Y-87754608D01*
X171516665Y-87684916D01*
X171558537Y-87628983D01*
X171624001Y-87604566D01*
X171632847Y-87604250D01*
X188633653Y-87604250D01*
X188700692Y-87623935D01*
X188721334Y-87640569D01*
X191687841Y-90607076D01*
X191721326Y-90668399D01*
X191718091Y-90733074D01*
X191712189Y-90751240D01*
X191658910Y-90915214D01*
X191619500Y-91164038D01*
X191619500Y-91415961D01*
X191658910Y-91664785D01*
X191736760Y-91904383D01*
X191851132Y-92128848D01*
X191999201Y-92332649D01*
X191999205Y-92332654D01*
X192177345Y-92510794D01*
X192177350Y-92510798D01*
X192355117Y-92639952D01*
X192381155Y-92658870D01*
X192551795Y-92745815D01*
X192602591Y-92793789D01*
X192619500Y-92856300D01*
X192619500Y-94835461D01*
X192599815Y-94902500D01*
X192547011Y-94948255D01*
X192477853Y-94958199D01*
X192414297Y-94929174D01*
X192397125Y-94910949D01*
X192375644Y-94882955D01*
X192167047Y-94674358D01*
X192167040Y-94674352D01*
X191932993Y-94494761D01*
X191677510Y-94347258D01*
X191677500Y-94347254D01*
X191404961Y-94234364D01*
X191404954Y-94234362D01*
X191404952Y-94234361D01*
X191119993Y-94158007D01*
X191071113Y-94151571D01*
X190827513Y-94119500D01*
X190827506Y-94119500D01*
X190532494Y-94119500D01*
X190532486Y-94119500D01*
X190254085Y-94156153D01*
X190240007Y-94158007D01*
X190065428Y-94204785D01*
X189955048Y-94234361D01*
X189955038Y-94234364D01*
X189682499Y-94347254D01*
X189682489Y-94347258D01*
X189427006Y-94494761D01*
X189192959Y-94674352D01*
X189192952Y-94674358D01*
X188984358Y-94882952D01*
X188984352Y-94882959D01*
X188804761Y-95117006D01*
X188657258Y-95372489D01*
X188657254Y-95372499D01*
X188544364Y-95645038D01*
X188544361Y-95645048D01*
X188468008Y-95930004D01*
X188468006Y-95930015D01*
X188429500Y-96222486D01*
X188429500Y-96517513D01*
X188450866Y-96679798D01*
X188468007Y-96809993D01*
X188542212Y-97086930D01*
X188544361Y-97094951D01*
X188544364Y-97094961D01*
X188657254Y-97367500D01*
X188657258Y-97367510D01*
X188804761Y-97622993D01*
X188984352Y-97857040D01*
X188984358Y-97857047D01*
X189192952Y-98065641D01*
X189192959Y-98065647D01*
X189427006Y-98245238D01*
X189682489Y-98392741D01*
X189682490Y-98392741D01*
X189682493Y-98392743D01*
X189955048Y-98505639D01*
X190240007Y-98581993D01*
X190532494Y-98620500D01*
X190532501Y-98620500D01*
X190827499Y-98620500D01*
X190827506Y-98620500D01*
X191119993Y-98581993D01*
X191404952Y-98505639D01*
X191677507Y-98392743D01*
X191932994Y-98245238D01*
X192167042Y-98065646D01*
X192375646Y-97857042D01*
X192397124Y-97829052D01*
X192453552Y-97787849D01*
X192523298Y-97783694D01*
X192584218Y-97817906D01*
X192616971Y-97879624D01*
X192619500Y-97904538D01*
X192619500Y-108773699D01*
X192599815Y-108840738D01*
X192551795Y-108884184D01*
X192381151Y-108971132D01*
X192177350Y-109119201D01*
X192177345Y-109119205D01*
X191999205Y-109297345D01*
X191999201Y-109297350D01*
X191851132Y-109501151D01*
X191736760Y-109725616D01*
X191658910Y-109965214D01*
X191619500Y-110214038D01*
X191619500Y-110465961D01*
X191658910Y-110714785D01*
X191736760Y-110954383D01*
X191851132Y-111178848D01*
X191999201Y-111382649D01*
X191999205Y-111382654D01*
X192177345Y-111560794D01*
X192177350Y-111560798D01*
X192355117Y-111689952D01*
X192381155Y-111708870D01*
X192524184Y-111781747D01*
X192605616Y-111823239D01*
X192605618Y-111823239D01*
X192605621Y-111823241D01*
X192845215Y-111901090D01*
X193094038Y-111940500D01*
X193094039Y-111940500D01*
X193345961Y-111940500D01*
X193345962Y-111940500D01*
X193594785Y-111901090D01*
X193834379Y-111823241D01*
X194058845Y-111708870D01*
X194262656Y-111560793D01*
X194440793Y-111382656D01*
X194588870Y-111178845D01*
X194703241Y-110954379D01*
X194781090Y-110714785D01*
X194820500Y-110465962D01*
X194820500Y-110214038D01*
X194781090Y-109965215D01*
X194703241Y-109725621D01*
X194703239Y-109725618D01*
X194703239Y-109725616D01*
X194661747Y-109644184D01*
X194588870Y-109501155D01*
X194569952Y-109475117D01*
X194440798Y-109297350D01*
X194440794Y-109297345D01*
X194262654Y-109119205D01*
X194262649Y-109119201D01*
X194058848Y-108971132D01*
X194058847Y-108971131D01*
X194058845Y-108971130D01*
X193989186Y-108935637D01*
X193888205Y-108884184D01*
X193837409Y-108836209D01*
X193820500Y-108773699D01*
X193820500Y-101008733D01*
X198904500Y-101008733D01*
X198904500Y-102208751D01*
X198904501Y-102208768D01*
X198915000Y-102311546D01*
X198915001Y-102311549D01*
X198970185Y-102478081D01*
X198970186Y-102478084D01*
X199062288Y-102627406D01*
X199186344Y-102751462D01*
X199335666Y-102843564D01*
X199502203Y-102898749D01*
X199604991Y-102909250D01*
X200805008Y-102909249D01*
X200907797Y-102898749D01*
X201074334Y-102843564D01*
X201223656Y-102751462D01*
X201347712Y-102627406D01*
X201439814Y-102478084D01*
X201494999Y-102311547D01*
X201505500Y-102208759D01*
X201505499Y-101008742D01*
X201494999Y-100905953D01*
X201439814Y-100739416D01*
X201347712Y-100590094D01*
X201223656Y-100466038D01*
X201074334Y-100373936D01*
X200907797Y-100318751D01*
X200907795Y-100318750D01*
X200805010Y-100308250D01*
X199604998Y-100308250D01*
X199604981Y-100308251D01*
X199502203Y-100318750D01*
X199502200Y-100318751D01*
X199335668Y-100373935D01*
X199335663Y-100373937D01*
X199186342Y-100466039D01*
X199062289Y-100590092D01*
X198970187Y-100739413D01*
X198970186Y-100739416D01*
X198915001Y-100905953D01*
X198915001Y-100905954D01*
X198915000Y-100905954D01*
X198904500Y-101008733D01*
X193820500Y-101008733D01*
X193820500Y-96283389D01*
X194659500Y-96283389D01*
X194659500Y-96456611D01*
X194686598Y-96627701D01*
X194740127Y-96792445D01*
X194818768Y-96946788D01*
X194920586Y-97086928D01*
X195043072Y-97209414D01*
X195183212Y-97311232D01*
X195337555Y-97389873D01*
X195502299Y-97443402D01*
X195673389Y-97470500D01*
X195673390Y-97470500D01*
X195846610Y-97470500D01*
X195846611Y-97470500D01*
X196017701Y-97443402D01*
X196182445Y-97389873D01*
X196336788Y-97311232D01*
X196476928Y-97209414D01*
X196599414Y-97086928D01*
X196701232Y-96946788D01*
X196779873Y-96792445D01*
X196833402Y-96627701D01*
X196860500Y-96456611D01*
X196860500Y-96283389D01*
X196833402Y-96112299D01*
X196779873Y-95947555D01*
X196701232Y-95793212D01*
X196599414Y-95653072D01*
X196476928Y-95530586D01*
X196336788Y-95428768D01*
X196182445Y-95350127D01*
X196017701Y-95296598D01*
X196017699Y-95296597D01*
X196017698Y-95296597D01*
X195886271Y-95275781D01*
X195846611Y-95269500D01*
X195673389Y-95269500D01*
X195633728Y-95275781D01*
X195502302Y-95296597D01*
X195337552Y-95350128D01*
X195183211Y-95428768D01*
X195126289Y-95470125D01*
X195043072Y-95530586D01*
X195043070Y-95530588D01*
X195043069Y-95530588D01*
X194920588Y-95653069D01*
X194920588Y-95653070D01*
X194920586Y-95653072D01*
X194876859Y-95713256D01*
X194818768Y-95793211D01*
X194740128Y-95947552D01*
X194686597Y-96112302D01*
X194669146Y-96222486D01*
X194659500Y-96283389D01*
X193820500Y-96283389D01*
X193820500Y-93886398D01*
X198904500Y-93886398D01*
X198904500Y-94091101D01*
X198936522Y-94293284D01*
X198999781Y-94487973D01*
X199063691Y-94613403D01*
X199091941Y-94668845D01*
X199092715Y-94670363D01*
X199213028Y-94835963D01*
X199357786Y-94980721D01*
X199454241Y-95050798D01*
X199523390Y-95101037D01*
X199639607Y-95160253D01*
X199705776Y-95193968D01*
X199705778Y-95193968D01*
X199705781Y-95193970D01*
X199810137Y-95227877D01*
X199900465Y-95257227D01*
X199977953Y-95269500D01*
X200102648Y-95289250D01*
X200102649Y-95289250D01*
X200307351Y-95289250D01*
X200307352Y-95289250D01*
X200509534Y-95257227D01*
X200704219Y-95193970D01*
X200886610Y-95101037D01*
X200979590Y-95033482D01*
X201052213Y-94980721D01*
X201052215Y-94980718D01*
X201052219Y-94980716D01*
X201196966Y-94835969D01*
X201196968Y-94835965D01*
X201196971Y-94835963D01*
X201314382Y-94674358D01*
X201317287Y-94670360D01*
X201410220Y-94487969D01*
X201473477Y-94293284D01*
X201505500Y-94091102D01*
X201505500Y-93886398D01*
X201473477Y-93684216D01*
X201410220Y-93489531D01*
X201410218Y-93489528D01*
X201410218Y-93489526D01*
X201376503Y-93423357D01*
X201317287Y-93307140D01*
X201278501Y-93253755D01*
X201196971Y-93141536D01*
X201052213Y-92996778D01*
X200886613Y-92876465D01*
X200886612Y-92876464D01*
X200886610Y-92876463D01*
X200829653Y-92847441D01*
X200704223Y-92783531D01*
X200509534Y-92720272D01*
X200334995Y-92692628D01*
X200307352Y-92688250D01*
X200102648Y-92688250D01*
X200078329Y-92692101D01*
X199900465Y-92720272D01*
X199705776Y-92783531D01*
X199523386Y-92876465D01*
X199357786Y-92996778D01*
X199213028Y-93141536D01*
X199092715Y-93307136D01*
X198999781Y-93489526D01*
X198936522Y-93684215D01*
X198904500Y-93886398D01*
X193820500Y-93886398D01*
X193820500Y-92856300D01*
X193840185Y-92789261D01*
X193888204Y-92745815D01*
X194058845Y-92658870D01*
X194262656Y-92510793D01*
X194440793Y-92332656D01*
X194588870Y-92128845D01*
X194703241Y-91904379D01*
X194781090Y-91664785D01*
X194820500Y-91415962D01*
X194820500Y-91164038D01*
X194781090Y-90915215D01*
X194703241Y-90675621D01*
X194703239Y-90675618D01*
X194703239Y-90675616D01*
X194617187Y-90506731D01*
X194588870Y-90451155D01*
X194569952Y-90425117D01*
X194440798Y-90247350D01*
X194440794Y-90247345D01*
X194262654Y-90069205D01*
X194262649Y-90069201D01*
X194058848Y-89921132D01*
X194058847Y-89921131D01*
X194058845Y-89921130D01*
X193988747Y-89885413D01*
X193834383Y-89806760D01*
X193594785Y-89728910D01*
X193345962Y-89689500D01*
X193094038Y-89689500D01*
X192969626Y-89709205D01*
X192845214Y-89728910D01*
X192756175Y-89757841D01*
X192663074Y-89788091D01*
X192593234Y-89790086D01*
X192537076Y-89757841D01*
X189421340Y-86642105D01*
X189421338Y-86642102D01*
X189302467Y-86523231D01*
X189302466Y-86523230D01*
X189215654Y-86473110D01*
X189215654Y-86473109D01*
X189215650Y-86473108D01*
X189165535Y-86444173D01*
X189012807Y-86403249D01*
X188854693Y-86403249D01*
X188847097Y-86403249D01*
X188847081Y-86403250D01*
X140611730Y-86403250D01*
X140544691Y-86383565D01*
X140507808Y-86345883D01*
X140507651Y-86345998D01*
X140506872Y-86344926D01*
X140506000Y-86344035D01*
X140504789Y-86342059D01*
X140504786Y-86342055D01*
X140387981Y-86181286D01*
X140247464Y-86040769D01*
X140086694Y-85923963D01*
X139930218Y-85844234D01*
X139879423Y-85796260D01*
X139862628Y-85728439D01*
X139885165Y-85662304D01*
X139930218Y-85623265D01*
X140086694Y-85543537D01*
X140247464Y-85426731D01*
X140387981Y-85286214D01*
X140504787Y-85125444D01*
X140595005Y-84948382D01*
X140656413Y-84759386D01*
X140687500Y-84563111D01*
X140687500Y-84364389D01*
X140656413Y-84168114D01*
X140595005Y-83979118D01*
X140595005Y-83979117D01*
X140504786Y-83802055D01*
X140476708Y-83763409D01*
X140387981Y-83641286D01*
X140247464Y-83500769D01*
X140086694Y-83383963D01*
X139930218Y-83304234D01*
X139879423Y-83256260D01*
X139862628Y-83188439D01*
X139885165Y-83122304D01*
X139930218Y-83083265D01*
X140086694Y-83003537D01*
X140247464Y-82886731D01*
X140387981Y-82746214D01*
X140504787Y-82585444D01*
X140595005Y-82408382D01*
X140656413Y-82219386D01*
X140687500Y-82023111D01*
X140687500Y-81824389D01*
X140685303Y-81810520D01*
X140694257Y-81741230D01*
X140739252Y-81687777D01*
X140806003Y-81667136D01*
X140873317Y-81685860D01*
X140895457Y-81703442D01*
X143668181Y-84476166D01*
X143701666Y-84537489D01*
X143704500Y-84563847D01*
X143704500Y-84889203D01*
X143710637Y-84956744D01*
X143710640Y-84956755D01*
X143759078Y-85112199D01*
X143759079Y-85112201D01*
X143759080Y-85112203D01*
X143839266Y-85244846D01*
X143843319Y-85251550D01*
X143958449Y-85366680D01*
X143958451Y-85366681D01*
X143958453Y-85366683D01*
X144097797Y-85450920D01*
X144253251Y-85499361D01*
X144320805Y-85505500D01*
X145789194Y-85505499D01*
X145789201Y-85505499D01*
X145856744Y-85499362D01*
X145856747Y-85499361D01*
X145856749Y-85499361D01*
X146012203Y-85450920D01*
X146151547Y-85366683D01*
X146266683Y-85251547D01*
X146350920Y-85112203D01*
X146399361Y-84956749D01*
X146405500Y-84889195D01*
X146405499Y-84209635D01*
X190435750Y-84209635D01*
X190435750Y-86305370D01*
X190435751Y-86305376D01*
X190442158Y-86364983D01*
X190492452Y-86499828D01*
X190492456Y-86499835D01*
X190578702Y-86615044D01*
X190578705Y-86615047D01*
X190693914Y-86701293D01*
X190693921Y-86701297D01*
X190828767Y-86751591D01*
X190828766Y-86751591D01*
X190835694Y-86752335D01*
X190888377Y-86758000D01*
X194184122Y-86757999D01*
X194243733Y-86751591D01*
X194378581Y-86701296D01*
X194493796Y-86615046D01*
X194580046Y-86499831D01*
X194630341Y-86364983D01*
X194636750Y-86305373D01*
X194636749Y-84209628D01*
X194630341Y-84150017D01*
X194580046Y-84015169D01*
X194580045Y-84015168D01*
X194580043Y-84015164D01*
X194493797Y-83899955D01*
X194493794Y-83899952D01*
X194378585Y-83813706D01*
X194378578Y-83813702D01*
X194243732Y-83763408D01*
X194243733Y-83763408D01*
X194184133Y-83757001D01*
X194184131Y-83757000D01*
X194184123Y-83757000D01*
X194184114Y-83757000D01*
X190888379Y-83757000D01*
X190888373Y-83757001D01*
X190828766Y-83763408D01*
X190693921Y-83813702D01*
X190693914Y-83813706D01*
X190578705Y-83899952D01*
X190578702Y-83899955D01*
X190492456Y-84015164D01*
X190492452Y-84015171D01*
X190442158Y-84150017D01*
X190440213Y-84168114D01*
X190435751Y-84209623D01*
X190435750Y-84209635D01*
X146405499Y-84209635D01*
X146405499Y-84150017D01*
X146405499Y-83420797D01*
X146399362Y-83353255D01*
X146399359Y-83353244D01*
X146350921Y-83197800D01*
X146350920Y-83197799D01*
X146350920Y-83197797D01*
X146266683Y-83058453D01*
X146266681Y-83058451D01*
X146266680Y-83058449D01*
X146151550Y-82943319D01*
X146150973Y-82942970D01*
X146012203Y-82859080D01*
X145985875Y-82850876D01*
X145927728Y-82812139D01*
X145899754Y-82748114D01*
X145910835Y-82679129D01*
X145935080Y-82644815D01*
X146085104Y-82494792D01*
X146210051Y-82322816D01*
X146306557Y-82133412D01*
X146372246Y-81931243D01*
X146405500Y-81721287D01*
X146405500Y-81508713D01*
X146372246Y-81298757D01*
X146306557Y-81096588D01*
X146260804Y-81006794D01*
X146247909Y-80938126D01*
X146274185Y-80873385D01*
X146331291Y-80833128D01*
X146371290Y-80826500D01*
X183945861Y-80826500D01*
X184012900Y-80846185D01*
X184058655Y-80898989D01*
X184068599Y-80968147D01*
X184039574Y-81031703D01*
X184033542Y-81038181D01*
X183891735Y-81179987D01*
X183891735Y-81179988D01*
X183891733Y-81179990D01*
X183832112Y-81262050D01*
X183752907Y-81371066D01*
X183645683Y-81581503D01*
X183572696Y-81806131D01*
X183535750Y-82039402D01*
X183535750Y-82275597D01*
X183572696Y-82508868D01*
X183645683Y-82733496D01*
X183723761Y-82886731D01*
X183752907Y-82943933D01*
X183891733Y-83135010D01*
X184058740Y-83302017D01*
X184249817Y-83440843D01*
X184349241Y-83491502D01*
X184460253Y-83548066D01*
X184460255Y-83548066D01*
X184460258Y-83548068D01*
X184580662Y-83587189D01*
X184684881Y-83621053D01*
X184918153Y-83658000D01*
X184918158Y-83658000D01*
X185154347Y-83658000D01*
X185387618Y-83621053D01*
X185612242Y-83548068D01*
X185822683Y-83440843D01*
X186013760Y-83302017D01*
X186180767Y-83135010D01*
X186319593Y-82943933D01*
X186426818Y-82733492D01*
X186499803Y-82508868D01*
X186502034Y-82494784D01*
X186536750Y-82275597D01*
X186536750Y-82039402D01*
X198035750Y-82039402D01*
X198035750Y-82275597D01*
X198072696Y-82508868D01*
X198145683Y-82733496D01*
X198223761Y-82886731D01*
X198252907Y-82943933D01*
X198391733Y-83135010D01*
X198558740Y-83302017D01*
X198749817Y-83440843D01*
X198849241Y-83491502D01*
X198960253Y-83548066D01*
X198960255Y-83548066D01*
X198960258Y-83548068D01*
X199080662Y-83587189D01*
X199184881Y-83621053D01*
X199418153Y-83658000D01*
X199418158Y-83658000D01*
X199654347Y-83658000D01*
X199887618Y-83621053D01*
X200112242Y-83548068D01*
X200322683Y-83440843D01*
X200513760Y-83302017D01*
X200680767Y-83135010D01*
X200819593Y-82943933D01*
X200926818Y-82733492D01*
X200999803Y-82508868D01*
X201002034Y-82494784D01*
X201036750Y-82275597D01*
X201036750Y-82039402D01*
X200999803Y-81806131D01*
X200941961Y-81628114D01*
X200926818Y-81581508D01*
X200926816Y-81581505D01*
X200926816Y-81581503D01*
X200819592Y-81371066D01*
X200680767Y-81179990D01*
X200513760Y-81012983D01*
X200322683Y-80874157D01*
X200321168Y-80873385D01*
X200112246Y-80766933D01*
X199887618Y-80693946D01*
X199654347Y-80657000D01*
X199654342Y-80657000D01*
X199418158Y-80657000D01*
X199418153Y-80657000D01*
X199184881Y-80693946D01*
X198960253Y-80766933D01*
X198749816Y-80874157D01*
X198704384Y-80907166D01*
X198558740Y-81012983D01*
X198558738Y-81012985D01*
X198558737Y-81012985D01*
X198391735Y-81179987D01*
X198391735Y-81179988D01*
X198391733Y-81179990D01*
X198332112Y-81262050D01*
X198252907Y-81371066D01*
X198145683Y-81581503D01*
X198072696Y-81806131D01*
X198035750Y-82039402D01*
X186536750Y-82039402D01*
X186499803Y-81806131D01*
X186441961Y-81628114D01*
X186426818Y-81581508D01*
X186426816Y-81581505D01*
X186426816Y-81581503D01*
X186319592Y-81371066D01*
X186180767Y-81179990D01*
X186013760Y-81012983D01*
X186006651Y-81007818D01*
X185963985Y-80952488D01*
X185958006Y-80882875D01*
X185990612Y-80821080D01*
X186006651Y-80807182D01*
X186006750Y-80807109D01*
X186013760Y-80802017D01*
X186180767Y-80635010D01*
X186319593Y-80443933D01*
X186426818Y-80233492D01*
X186499803Y-80008868D01*
X186522054Y-79868382D01*
X186536750Y-79775597D01*
X186536750Y-79539402D01*
X186499803Y-79306131D01*
X186428964Y-79088114D01*
X186426818Y-79081508D01*
X186426816Y-79081505D01*
X186426816Y-79081503D01*
X186369346Y-78968713D01*
X186319593Y-78871067D01*
X186250043Y-78775340D01*
X186226564Y-78709536D01*
X186242389Y-78641482D01*
X186276051Y-78603189D01*
X186278578Y-78601296D01*
X186278581Y-78601296D01*
X186393796Y-78515046D01*
X186480046Y-78399831D01*
X186530341Y-78264983D01*
X186536750Y-78205373D01*
X186536749Y-76580999D01*
X186556434Y-76513961D01*
X186609237Y-76468206D01*
X186660749Y-76457000D01*
X197935153Y-76457000D01*
X197964593Y-76465644D01*
X197994580Y-76472168D01*
X197999595Y-76475922D01*
X198002192Y-76476685D01*
X198022834Y-76493319D01*
X198083450Y-76553935D01*
X198116935Y-76615258D01*
X198113700Y-76679933D01*
X198072697Y-76806128D01*
X198035750Y-77039402D01*
X198035750Y-77275597D01*
X198072696Y-77508868D01*
X198145683Y-77733496D01*
X198242514Y-77923536D01*
X198252907Y-77943933D01*
X198391733Y-78135010D01*
X198558740Y-78302017D01*
X198749817Y-78440843D01*
X198800751Y-78466795D01*
X198960253Y-78548066D01*
X198960255Y-78548066D01*
X198960258Y-78548068D01*
X199000939Y-78561286D01*
X199184881Y-78621053D01*
X199418153Y-78658000D01*
X199418158Y-78658000D01*
X199654347Y-78658000D01*
X199887618Y-78621053D01*
X199942594Y-78603190D01*
X200112242Y-78548068D01*
X200322683Y-78440843D01*
X200513760Y-78302017D01*
X200680767Y-78135010D01*
X200819593Y-77943933D01*
X200926818Y-77733492D01*
X200999803Y-77508868D01*
X201016723Y-77402041D01*
X201036750Y-77275597D01*
X201036750Y-77039402D01*
X200999803Y-76806131D01*
X200937784Y-76615258D01*
X200926818Y-76581508D01*
X200926816Y-76581505D01*
X200926816Y-76581503D01*
X200863378Y-76457000D01*
X200819593Y-76371067D01*
X200680767Y-76179990D01*
X200513760Y-76012983D01*
X200322683Y-75874157D01*
X200112246Y-75766933D01*
X199887618Y-75693946D01*
X199654347Y-75657000D01*
X199654342Y-75657000D01*
X199418158Y-75657000D01*
X199418153Y-75657000D01*
X199184878Y-75693947D01*
X199058683Y-75734950D01*
X198988842Y-75736945D01*
X198932685Y-75704700D01*
X198722840Y-75494855D01*
X198722838Y-75494852D01*
X198603967Y-75375981D01*
X198603962Y-75375977D01*
X198500569Y-75316284D01*
X198500568Y-75316283D01*
X198467040Y-75296925D01*
X198467039Y-75296924D01*
X198416731Y-75283444D01*
X198314307Y-75255999D01*
X198156193Y-75255999D01*
X198148597Y-75255999D01*
X198148581Y-75256000D01*
X194758601Y-75256000D01*
X194691562Y-75236315D01*
X194645807Y-75183511D01*
X194635312Y-75118744D01*
X194636750Y-75105373D01*
X194636749Y-73009628D01*
X194630341Y-72950017D01*
X194580046Y-72815169D01*
X194580045Y-72815168D01*
X194580043Y-72815164D01*
X194493797Y-72699955D01*
X194493794Y-72699952D01*
X194378585Y-72613706D01*
X194378578Y-72613702D01*
X194303451Y-72585682D01*
X194247517Y-72543811D01*
X194223100Y-72478347D01*
X194237951Y-72410074D01*
X194287357Y-72360668D01*
X194346784Y-72345500D01*
X204230500Y-72345500D01*
X204297539Y-72365185D01*
X204343294Y-72417989D01*
X204354500Y-72469500D01*
X204354500Y-126420500D01*
X204334815Y-126487539D01*
X204282011Y-126533294D01*
X204230500Y-126544500D01*
X141578589Y-126544500D01*
X141511550Y-126524815D01*
X141477285Y-126492009D01*
X136984403Y-120127093D01*
X136936149Y-120058733D01*
X160804500Y-120058733D01*
X160804500Y-121258751D01*
X160804501Y-121258768D01*
X160815000Y-121361546D01*
X160815001Y-121361549D01*
X160870185Y-121528081D01*
X160870186Y-121528084D01*
X160962288Y-121677406D01*
X161086344Y-121801462D01*
X161235666Y-121893564D01*
X161402203Y-121948749D01*
X161504991Y-121959250D01*
X162705008Y-121959249D01*
X162807797Y-121948749D01*
X162974334Y-121893564D01*
X163123656Y-121801462D01*
X163247712Y-121677406D01*
X163339814Y-121528084D01*
X163394999Y-121361547D01*
X163405500Y-121258759D01*
X163405499Y-120058742D01*
X163405498Y-120058733D01*
X179854500Y-120058733D01*
X179854500Y-121258751D01*
X179854501Y-121258768D01*
X179865000Y-121361546D01*
X179865001Y-121361549D01*
X179920185Y-121528081D01*
X179920186Y-121528084D01*
X180012288Y-121677406D01*
X180136344Y-121801462D01*
X180285666Y-121893564D01*
X180452203Y-121948749D01*
X180554991Y-121959250D01*
X181755008Y-121959249D01*
X181857797Y-121948749D01*
X182024334Y-121893564D01*
X182173656Y-121801462D01*
X182297712Y-121677406D01*
X182389814Y-121528084D01*
X182444999Y-121361547D01*
X182455500Y-121258759D01*
X182455499Y-120058742D01*
X182455498Y-120058733D01*
X198904500Y-120058733D01*
X198904500Y-121258751D01*
X198904501Y-121258768D01*
X198915000Y-121361546D01*
X198915001Y-121361549D01*
X198970185Y-121528081D01*
X198970186Y-121528084D01*
X199062288Y-121677406D01*
X199186344Y-121801462D01*
X199335666Y-121893564D01*
X199502203Y-121948749D01*
X199604991Y-121959250D01*
X200805008Y-121959249D01*
X200907797Y-121948749D01*
X201074334Y-121893564D01*
X201223656Y-121801462D01*
X201347712Y-121677406D01*
X201439814Y-121528084D01*
X201494999Y-121361547D01*
X201505500Y-121258759D01*
X201505499Y-120058742D01*
X201494999Y-119955953D01*
X201439814Y-119789416D01*
X201347712Y-119640094D01*
X201223656Y-119516038D01*
X201074334Y-119423936D01*
X200907797Y-119368751D01*
X200907795Y-119368750D01*
X200805010Y-119358250D01*
X199604998Y-119358250D01*
X199604981Y-119358251D01*
X199502203Y-119368750D01*
X199502200Y-119368751D01*
X199335668Y-119423935D01*
X199335663Y-119423937D01*
X199186342Y-119516039D01*
X199062289Y-119640092D01*
X198970187Y-119789413D01*
X198970186Y-119789416D01*
X198915001Y-119955953D01*
X198915001Y-119955954D01*
X198915000Y-119955954D01*
X198904500Y-120058733D01*
X182455498Y-120058733D01*
X182444999Y-119955953D01*
X182389814Y-119789416D01*
X182297712Y-119640094D01*
X182173656Y-119516038D01*
X182024334Y-119423936D01*
X181857797Y-119368751D01*
X181857795Y-119368750D01*
X181755010Y-119358250D01*
X180554998Y-119358250D01*
X180554981Y-119358251D01*
X180452203Y-119368750D01*
X180452200Y-119368751D01*
X180285668Y-119423935D01*
X180285663Y-119423937D01*
X180136342Y-119516039D01*
X180012289Y-119640092D01*
X179920187Y-119789413D01*
X179920186Y-119789416D01*
X179865001Y-119955953D01*
X179865001Y-119955954D01*
X179865000Y-119955954D01*
X179854500Y-120058733D01*
X163405498Y-120058733D01*
X163394999Y-119955953D01*
X163339814Y-119789416D01*
X163247712Y-119640094D01*
X163123656Y-119516038D01*
X162974334Y-119423936D01*
X162807797Y-119368751D01*
X162807795Y-119368750D01*
X162705010Y-119358250D01*
X161504998Y-119358250D01*
X161504981Y-119358251D01*
X161402203Y-119368750D01*
X161402200Y-119368751D01*
X161235668Y-119423935D01*
X161235663Y-119423937D01*
X161086342Y-119516039D01*
X160962289Y-119640092D01*
X160870187Y-119789413D01*
X160870186Y-119789416D01*
X160815001Y-119955953D01*
X160815001Y-119955954D01*
X160815000Y-119955954D01*
X160804500Y-120058733D01*
X136936149Y-120058733D01*
X133647650Y-115400026D01*
X133600612Y-115333389D01*
X146399500Y-115333389D01*
X146399500Y-115506611D01*
X146426598Y-115677701D01*
X146480127Y-115842445D01*
X146558768Y-115996788D01*
X146660586Y-116136928D01*
X146783072Y-116259414D01*
X146923212Y-116361232D01*
X147077555Y-116439873D01*
X147242299Y-116493402D01*
X147413389Y-116520500D01*
X147413390Y-116520500D01*
X147586610Y-116520500D01*
X147586611Y-116520500D01*
X147757701Y-116493402D01*
X147922445Y-116439873D01*
X148076788Y-116361232D01*
X148216928Y-116259414D01*
X148339414Y-116136928D01*
X148441232Y-115996788D01*
X148519873Y-115842445D01*
X148573402Y-115677701D01*
X148600500Y-115506611D01*
X148600500Y-115333389D01*
X148590854Y-115272486D01*
X150329500Y-115272486D01*
X150329500Y-115567513D01*
X150361571Y-115811113D01*
X150368007Y-115859993D01*
X150442212Y-116136930D01*
X150444361Y-116144951D01*
X150444364Y-116144961D01*
X150557254Y-116417500D01*
X150557258Y-116417510D01*
X150704761Y-116672993D01*
X150884352Y-116907040D01*
X150884358Y-116907047D01*
X151092952Y-117115641D01*
X151092959Y-117115647D01*
X151327006Y-117295238D01*
X151582489Y-117442741D01*
X151582490Y-117442741D01*
X151582493Y-117442743D01*
X151855048Y-117555639D01*
X152140007Y-117631993D01*
X152432494Y-117670500D01*
X152432501Y-117670500D01*
X152727499Y-117670500D01*
X152727506Y-117670500D01*
X153019993Y-117631993D01*
X153304952Y-117555639D01*
X153577507Y-117442743D01*
X153832994Y-117295238D01*
X154067042Y-117115646D01*
X154275646Y-116907042D01*
X154455238Y-116672994D01*
X154602743Y-116417507D01*
X154715639Y-116144952D01*
X154791993Y-115859993D01*
X154830500Y-115567506D01*
X154830500Y-115333389D01*
X156559500Y-115333389D01*
X156559500Y-115506611D01*
X156586598Y-115677701D01*
X156640127Y-115842445D01*
X156718768Y-115996788D01*
X156820586Y-116136928D01*
X156943072Y-116259414D01*
X157083212Y-116361232D01*
X157237555Y-116439873D01*
X157402299Y-116493402D01*
X157573389Y-116520500D01*
X157573390Y-116520500D01*
X157746610Y-116520500D01*
X157746611Y-116520500D01*
X157917701Y-116493402D01*
X158082445Y-116439873D01*
X158236788Y-116361232D01*
X158376928Y-116259414D01*
X158499414Y-116136928D01*
X158601232Y-115996788D01*
X158679873Y-115842445D01*
X158733402Y-115677701D01*
X158760500Y-115506611D01*
X158760500Y-115333389D01*
X165449500Y-115333389D01*
X165449500Y-115506611D01*
X165476598Y-115677701D01*
X165530127Y-115842445D01*
X165608768Y-115996788D01*
X165710586Y-116136928D01*
X165833072Y-116259414D01*
X165973212Y-116361232D01*
X166127555Y-116439873D01*
X166292299Y-116493402D01*
X166463389Y-116520500D01*
X166463390Y-116520500D01*
X166636610Y-116520500D01*
X166636611Y-116520500D01*
X166807701Y-116493402D01*
X166972445Y-116439873D01*
X167126788Y-116361232D01*
X167266928Y-116259414D01*
X167389414Y-116136928D01*
X167491232Y-115996788D01*
X167569873Y-115842445D01*
X167623402Y-115677701D01*
X167650500Y-115506611D01*
X167650500Y-115333389D01*
X167640854Y-115272486D01*
X169379500Y-115272486D01*
X169379500Y-115567513D01*
X169411571Y-115811113D01*
X169418007Y-115859993D01*
X169492212Y-116136930D01*
X169494361Y-116144951D01*
X169494364Y-116144961D01*
X169607254Y-116417500D01*
X169607258Y-116417510D01*
X169754761Y-116672993D01*
X169934352Y-116907040D01*
X169934358Y-116907047D01*
X170142952Y-117115641D01*
X170142959Y-117115647D01*
X170377006Y-117295238D01*
X170632489Y-117442741D01*
X170632490Y-117442741D01*
X170632493Y-117442743D01*
X170905048Y-117555639D01*
X171190007Y-117631993D01*
X171482494Y-117670500D01*
X171482501Y-117670500D01*
X171777499Y-117670500D01*
X171777506Y-117670500D01*
X172069993Y-117631993D01*
X172354952Y-117555639D01*
X172627507Y-117442743D01*
X172882994Y-117295238D01*
X173117042Y-117115646D01*
X173325646Y-116907042D01*
X173505238Y-116672994D01*
X173652743Y-116417507D01*
X173765639Y-116144952D01*
X173841993Y-115859993D01*
X173880500Y-115567506D01*
X173880500Y-115333389D01*
X175609500Y-115333389D01*
X175609500Y-115506611D01*
X175636598Y-115677701D01*
X175690127Y-115842445D01*
X175768768Y-115996788D01*
X175870586Y-116136928D01*
X175993072Y-116259414D01*
X176133212Y-116361232D01*
X176287555Y-116439873D01*
X176452299Y-116493402D01*
X176623389Y-116520500D01*
X176623390Y-116520500D01*
X176796610Y-116520500D01*
X176796611Y-116520500D01*
X176967701Y-116493402D01*
X177132445Y-116439873D01*
X177286788Y-116361232D01*
X177426928Y-116259414D01*
X177549414Y-116136928D01*
X177651232Y-115996788D01*
X177729873Y-115842445D01*
X177783402Y-115677701D01*
X177810500Y-115506611D01*
X177810500Y-115333389D01*
X184499500Y-115333389D01*
X184499500Y-115506611D01*
X184526598Y-115677701D01*
X184580127Y-115842445D01*
X184658768Y-115996788D01*
X184760586Y-116136928D01*
X184883072Y-116259414D01*
X185023212Y-116361232D01*
X185177555Y-116439873D01*
X185342299Y-116493402D01*
X185513389Y-116520500D01*
X185513390Y-116520500D01*
X185686610Y-116520500D01*
X185686611Y-116520500D01*
X185857701Y-116493402D01*
X186022445Y-116439873D01*
X186176788Y-116361232D01*
X186316928Y-116259414D01*
X186439414Y-116136928D01*
X186541232Y-115996788D01*
X186619873Y-115842445D01*
X186673402Y-115677701D01*
X186700500Y-115506611D01*
X186700500Y-115333389D01*
X186690854Y-115272486D01*
X188429500Y-115272486D01*
X188429500Y-115567513D01*
X188461571Y-115811113D01*
X188468007Y-115859993D01*
X188542212Y-116136930D01*
X188544361Y-116144951D01*
X188544364Y-116144961D01*
X188657254Y-116417500D01*
X188657258Y-116417510D01*
X188804761Y-116672993D01*
X188984352Y-116907040D01*
X188984358Y-116907047D01*
X189192952Y-117115641D01*
X189192959Y-117115647D01*
X189427006Y-117295238D01*
X189682489Y-117442741D01*
X189682490Y-117442741D01*
X189682493Y-117442743D01*
X189955048Y-117555639D01*
X190240007Y-117631993D01*
X190532494Y-117670500D01*
X190532501Y-117670500D01*
X190827499Y-117670500D01*
X190827506Y-117670500D01*
X191119993Y-117631993D01*
X191404952Y-117555639D01*
X191677507Y-117442743D01*
X191932994Y-117295238D01*
X192167042Y-117115646D01*
X192375646Y-116907042D01*
X192555238Y-116672994D01*
X192702743Y-116417507D01*
X192815639Y-116144952D01*
X192891993Y-115859993D01*
X192930500Y-115567506D01*
X192930500Y-115333389D01*
X194659500Y-115333389D01*
X194659500Y-115506611D01*
X194686598Y-115677701D01*
X194740127Y-115842445D01*
X194818768Y-115996788D01*
X194920586Y-116136928D01*
X195043072Y-116259414D01*
X195183212Y-116361232D01*
X195337555Y-116439873D01*
X195502299Y-116493402D01*
X195673389Y-116520500D01*
X195673390Y-116520500D01*
X195846610Y-116520500D01*
X195846611Y-116520500D01*
X196017701Y-116493402D01*
X196182445Y-116439873D01*
X196336788Y-116361232D01*
X196476928Y-116259414D01*
X196599414Y-116136928D01*
X196701232Y-115996788D01*
X196779873Y-115842445D01*
X196833402Y-115677701D01*
X196860500Y-115506611D01*
X196860500Y-115333389D01*
X196833402Y-115162299D01*
X196779873Y-114997555D01*
X196701232Y-114843212D01*
X196599414Y-114703072D01*
X196476928Y-114580586D01*
X196336788Y-114478768D01*
X196182445Y-114400127D01*
X196017701Y-114346598D01*
X196017699Y-114346597D01*
X196017698Y-114346597D01*
X195886271Y-114325781D01*
X195846611Y-114319500D01*
X195673389Y-114319500D01*
X195633728Y-114325781D01*
X195502302Y-114346597D01*
X195337552Y-114400128D01*
X195183211Y-114478768D01*
X195126289Y-114520125D01*
X195043072Y-114580586D01*
X195043070Y-114580588D01*
X195043069Y-114580588D01*
X194920588Y-114703069D01*
X194920588Y-114703070D01*
X194920586Y-114703072D01*
X194876859Y-114763256D01*
X194818768Y-114843211D01*
X194740128Y-114997552D01*
X194686597Y-115162302D01*
X194659500Y-115333389D01*
X192930500Y-115333389D01*
X192930500Y-115272494D01*
X192891993Y-114980007D01*
X192815639Y-114695048D01*
X192702743Y-114422493D01*
X192647309Y-114326479D01*
X192555238Y-114167006D01*
X192375647Y-113932959D01*
X192375641Y-113932952D01*
X192167047Y-113724358D01*
X192167040Y-113724352D01*
X191932993Y-113544761D01*
X191677510Y-113397258D01*
X191677500Y-113397254D01*
X191404961Y-113284364D01*
X191404954Y-113284362D01*
X191404952Y-113284361D01*
X191119993Y-113208007D01*
X191071113Y-113201571D01*
X190827513Y-113169500D01*
X190827506Y-113169500D01*
X190532494Y-113169500D01*
X190532486Y-113169500D01*
X190254085Y-113206153D01*
X190240007Y-113208007D01*
X190065428Y-113254785D01*
X189955048Y-113284361D01*
X189955038Y-113284364D01*
X189682499Y-113397254D01*
X189682489Y-113397258D01*
X189427006Y-113544761D01*
X189192959Y-113724352D01*
X189192952Y-113724358D01*
X188984358Y-113932952D01*
X188984352Y-113932959D01*
X188804761Y-114167006D01*
X188657258Y-114422489D01*
X188657254Y-114422499D01*
X188544364Y-114695038D01*
X188544361Y-114695048D01*
X188468008Y-114980004D01*
X188468006Y-114980015D01*
X188429500Y-115272486D01*
X186690854Y-115272486D01*
X186673402Y-115162299D01*
X186619873Y-114997555D01*
X186541232Y-114843212D01*
X186439414Y-114703072D01*
X186387482Y-114651140D01*
X186353997Y-114589817D01*
X186358981Y-114520125D01*
X186400853Y-114464192D01*
X186466317Y-114439775D01*
X186494561Y-114440986D01*
X186495212Y-114441089D01*
X186495215Y-114441090D01*
X186744038Y-114480500D01*
X186744039Y-114480500D01*
X186995961Y-114480500D01*
X186995962Y-114480500D01*
X187244785Y-114441090D01*
X187484379Y-114363241D01*
X187708845Y-114248870D01*
X187912656Y-114100793D01*
X188090793Y-113922656D01*
X188238870Y-113718845D01*
X188353241Y-113494379D01*
X188431090Y-113254785D01*
X188470500Y-113005962D01*
X188470500Y-112936398D01*
X198904500Y-112936398D01*
X198904500Y-113141101D01*
X198936522Y-113343284D01*
X198999781Y-113537973D01*
X199063691Y-113663403D01*
X199091941Y-113718845D01*
X199092715Y-113720363D01*
X199213028Y-113885963D01*
X199357786Y-114030721D01*
X199454241Y-114100798D01*
X199523390Y-114151037D01*
X199639607Y-114210253D01*
X199705776Y-114243968D01*
X199705778Y-114243968D01*
X199705781Y-114243970D01*
X199810137Y-114277877D01*
X199900465Y-114307227D01*
X199977953Y-114319500D01*
X200102648Y-114339250D01*
X200102649Y-114339250D01*
X200307351Y-114339250D01*
X200307352Y-114339250D01*
X200509534Y-114307227D01*
X200704219Y-114243970D01*
X200886610Y-114151037D01*
X200979590Y-114083482D01*
X201052213Y-114030721D01*
X201052215Y-114030718D01*
X201052219Y-114030716D01*
X201196966Y-113885969D01*
X201196968Y-113885965D01*
X201196971Y-113885963D01*
X201314382Y-113724358D01*
X201317287Y-113720360D01*
X201410220Y-113537969D01*
X201473477Y-113343284D01*
X201505500Y-113141102D01*
X201505500Y-112936398D01*
X201473477Y-112734216D01*
X201410220Y-112539531D01*
X201410218Y-112539528D01*
X201410218Y-112539526D01*
X201376503Y-112473357D01*
X201317287Y-112357140D01*
X201309556Y-112346499D01*
X201196971Y-112191536D01*
X201052213Y-112046778D01*
X200886613Y-111926465D01*
X200886612Y-111926464D01*
X200886610Y-111926463D01*
X200829653Y-111897441D01*
X200704223Y-111833531D01*
X200509534Y-111770272D01*
X200334995Y-111742628D01*
X200307352Y-111738250D01*
X200102648Y-111738250D01*
X200078329Y-111742101D01*
X199900465Y-111770272D01*
X199705776Y-111833531D01*
X199523386Y-111926465D01*
X199357786Y-112046778D01*
X199213028Y-112191536D01*
X199092715Y-112357136D01*
X198999781Y-112539526D01*
X198936522Y-112734215D01*
X198904500Y-112936398D01*
X188470500Y-112936398D01*
X188470500Y-112754038D01*
X188431090Y-112505215D01*
X188353241Y-112265621D01*
X188353239Y-112265618D01*
X188353239Y-112265616D01*
X188311747Y-112184184D01*
X188238870Y-112041155D01*
X188137107Y-111901090D01*
X188090798Y-111837350D01*
X188090794Y-111837345D01*
X187912654Y-111659205D01*
X187912649Y-111659201D01*
X187708848Y-111511132D01*
X187708847Y-111511131D01*
X187708845Y-111511130D01*
X187638747Y-111475413D01*
X187484383Y-111396760D01*
X187244785Y-111318910D01*
X186995962Y-111279500D01*
X186744038Y-111279500D01*
X186619626Y-111299205D01*
X186495214Y-111318910D01*
X186255616Y-111396760D01*
X186031151Y-111511132D01*
X185827350Y-111659201D01*
X185827345Y-111659205D01*
X185649205Y-111837345D01*
X185649201Y-111837350D01*
X185501132Y-112041151D01*
X185386760Y-112265616D01*
X185308910Y-112505214D01*
X185269500Y-112754038D01*
X185269500Y-113005961D01*
X185308910Y-113254785D01*
X185386760Y-113494383D01*
X185501132Y-113718848D01*
X185649201Y-113922649D01*
X185649205Y-113922654D01*
X185649207Y-113922656D01*
X185827344Y-114100793D01*
X185827345Y-114100794D01*
X185827344Y-114100794D01*
X185833661Y-114105383D01*
X185876327Y-114160714D01*
X185882305Y-114230327D01*
X185849699Y-114292122D01*
X185788860Y-114326479D01*
X185741378Y-114328174D01*
X185686611Y-114319500D01*
X185513389Y-114319500D01*
X185473728Y-114325781D01*
X185342302Y-114346597D01*
X185177552Y-114400128D01*
X185023211Y-114478768D01*
X184966289Y-114520125D01*
X184883072Y-114580586D01*
X184883070Y-114580588D01*
X184883069Y-114580588D01*
X184760588Y-114703069D01*
X184760588Y-114703070D01*
X184760586Y-114703072D01*
X184716859Y-114763256D01*
X184658768Y-114843211D01*
X184580128Y-114997552D01*
X184526597Y-115162302D01*
X184499500Y-115333389D01*
X177810500Y-115333389D01*
X177783402Y-115162299D01*
X177729873Y-114997555D01*
X177651232Y-114843212D01*
X177549414Y-114703072D01*
X177426928Y-114580586D01*
X177286788Y-114478768D01*
X177132445Y-114400127D01*
X176967701Y-114346598D01*
X176967699Y-114346597D01*
X176967698Y-114346597D01*
X176836271Y-114325781D01*
X176796611Y-114319500D01*
X176623389Y-114319500D01*
X176583728Y-114325781D01*
X176452302Y-114346597D01*
X176287552Y-114400128D01*
X176133211Y-114478768D01*
X176076289Y-114520125D01*
X175993072Y-114580586D01*
X175993070Y-114580588D01*
X175993069Y-114580588D01*
X175870588Y-114703069D01*
X175870588Y-114703070D01*
X175870586Y-114703072D01*
X175826859Y-114763256D01*
X175768768Y-114843211D01*
X175690128Y-114997552D01*
X175636597Y-115162302D01*
X175609500Y-115333389D01*
X173880500Y-115333389D01*
X173880500Y-115272494D01*
X173841993Y-114980007D01*
X173765639Y-114695048D01*
X173652743Y-114422493D01*
X173597309Y-114326479D01*
X173505238Y-114167006D01*
X173325647Y-113932959D01*
X173325641Y-113932952D01*
X173117047Y-113724358D01*
X173117040Y-113724352D01*
X172882993Y-113544761D01*
X172627510Y-113397258D01*
X172627500Y-113397254D01*
X172354961Y-113284364D01*
X172354954Y-113284362D01*
X172354952Y-113284361D01*
X172069993Y-113208007D01*
X172021113Y-113201571D01*
X171777513Y-113169500D01*
X171777506Y-113169500D01*
X171482494Y-113169500D01*
X171482486Y-113169500D01*
X171204085Y-113206153D01*
X171190007Y-113208007D01*
X171015428Y-113254785D01*
X170905048Y-113284361D01*
X170905038Y-113284364D01*
X170632499Y-113397254D01*
X170632489Y-113397258D01*
X170377006Y-113544761D01*
X170142959Y-113724352D01*
X170142952Y-113724358D01*
X169934358Y-113932952D01*
X169934352Y-113932959D01*
X169754761Y-114167006D01*
X169607258Y-114422489D01*
X169607254Y-114422499D01*
X169494364Y-114695038D01*
X169494361Y-114695048D01*
X169418008Y-114980004D01*
X169418006Y-114980015D01*
X169379500Y-115272486D01*
X167640854Y-115272486D01*
X167623402Y-115162299D01*
X167569873Y-114997555D01*
X167491232Y-114843212D01*
X167389414Y-114703072D01*
X167337482Y-114651140D01*
X167303997Y-114589817D01*
X167308981Y-114520125D01*
X167350853Y-114464192D01*
X167416317Y-114439775D01*
X167444561Y-114440986D01*
X167445212Y-114441089D01*
X167445215Y-114441090D01*
X167694038Y-114480500D01*
X167694039Y-114480500D01*
X167945961Y-114480500D01*
X167945962Y-114480500D01*
X168194785Y-114441090D01*
X168434379Y-114363241D01*
X168658845Y-114248870D01*
X168862656Y-114100793D01*
X169040793Y-113922656D01*
X169188870Y-113718845D01*
X169303241Y-113494379D01*
X169381090Y-113254785D01*
X169420500Y-113005962D01*
X169420500Y-112936398D01*
X179854500Y-112936398D01*
X179854500Y-113141101D01*
X179886522Y-113343284D01*
X179949781Y-113537973D01*
X180013691Y-113663403D01*
X180041941Y-113718845D01*
X180042715Y-113720363D01*
X180163028Y-113885963D01*
X180307786Y-114030721D01*
X180404241Y-114100798D01*
X180473390Y-114151037D01*
X180589607Y-114210253D01*
X180655776Y-114243968D01*
X180655778Y-114243968D01*
X180655781Y-114243970D01*
X180760137Y-114277877D01*
X180850465Y-114307227D01*
X180927953Y-114319500D01*
X181052648Y-114339250D01*
X181052649Y-114339250D01*
X181257351Y-114339250D01*
X181257352Y-114339250D01*
X181459534Y-114307227D01*
X181654219Y-114243970D01*
X181836610Y-114151037D01*
X181929590Y-114083482D01*
X182002213Y-114030721D01*
X182002215Y-114030718D01*
X182002219Y-114030716D01*
X182146966Y-113885969D01*
X182146968Y-113885965D01*
X182146971Y-113885963D01*
X182264382Y-113724358D01*
X182267287Y-113720360D01*
X182360220Y-113537969D01*
X182423477Y-113343284D01*
X182455500Y-113141102D01*
X182455500Y-112936398D01*
X182423477Y-112734216D01*
X182360220Y-112539531D01*
X182360218Y-112539528D01*
X182360218Y-112539526D01*
X182326503Y-112473357D01*
X182267287Y-112357140D01*
X182259556Y-112346499D01*
X182146971Y-112191536D01*
X182002213Y-112046778D01*
X181836613Y-111926465D01*
X181836612Y-111926464D01*
X181836610Y-111926463D01*
X181779653Y-111897441D01*
X181654223Y-111833531D01*
X181459534Y-111770272D01*
X181284995Y-111742628D01*
X181257352Y-111738250D01*
X181052648Y-111738250D01*
X181028329Y-111742101D01*
X180850465Y-111770272D01*
X180655776Y-111833531D01*
X180473386Y-111926465D01*
X180307786Y-112046778D01*
X180163028Y-112191536D01*
X180042715Y-112357136D01*
X179949781Y-112539526D01*
X179886522Y-112734215D01*
X179854500Y-112936398D01*
X169420500Y-112936398D01*
X169420500Y-112754038D01*
X169381090Y-112505215D01*
X169303241Y-112265621D01*
X169303239Y-112265618D01*
X169303239Y-112265616D01*
X169261747Y-112184184D01*
X169188870Y-112041155D01*
X169087107Y-111901090D01*
X169040798Y-111837350D01*
X169040794Y-111837345D01*
X168862654Y-111659205D01*
X168862649Y-111659201D01*
X168658848Y-111511132D01*
X168658847Y-111511131D01*
X168658845Y-111511130D01*
X168588747Y-111475413D01*
X168434383Y-111396760D01*
X168194785Y-111318910D01*
X167945962Y-111279500D01*
X167694038Y-111279500D01*
X167569626Y-111299205D01*
X167445214Y-111318910D01*
X167205616Y-111396760D01*
X166981151Y-111511132D01*
X166777350Y-111659201D01*
X166777345Y-111659205D01*
X166599205Y-111837345D01*
X166599201Y-111837350D01*
X166451132Y-112041151D01*
X166336760Y-112265616D01*
X166258910Y-112505214D01*
X166219500Y-112754038D01*
X166219500Y-113005961D01*
X166258910Y-113254785D01*
X166336760Y-113494383D01*
X166451132Y-113718848D01*
X166599201Y-113922649D01*
X166599205Y-113922654D01*
X166599207Y-113922656D01*
X166777344Y-114100793D01*
X166777345Y-114100794D01*
X166777344Y-114100794D01*
X166783661Y-114105383D01*
X166826327Y-114160714D01*
X166832305Y-114230327D01*
X166799699Y-114292122D01*
X166738860Y-114326479D01*
X166691378Y-114328174D01*
X166636611Y-114319500D01*
X166463389Y-114319500D01*
X166423728Y-114325781D01*
X166292302Y-114346597D01*
X166127552Y-114400128D01*
X165973211Y-114478768D01*
X165916289Y-114520125D01*
X165833072Y-114580586D01*
X165833070Y-114580588D01*
X165833069Y-114580588D01*
X165710588Y-114703069D01*
X165710588Y-114703070D01*
X165710586Y-114703072D01*
X165666859Y-114763256D01*
X165608768Y-114843211D01*
X165530128Y-114997552D01*
X165476597Y-115162302D01*
X165449500Y-115333389D01*
X158760500Y-115333389D01*
X158733402Y-115162299D01*
X158679873Y-114997555D01*
X158601232Y-114843212D01*
X158499414Y-114703072D01*
X158376928Y-114580586D01*
X158236788Y-114478768D01*
X158082445Y-114400127D01*
X157917701Y-114346598D01*
X157917699Y-114346597D01*
X157917698Y-114346597D01*
X157786271Y-114325781D01*
X157746611Y-114319500D01*
X157573389Y-114319500D01*
X157533728Y-114325781D01*
X157402302Y-114346597D01*
X157237552Y-114400128D01*
X157083211Y-114478768D01*
X157026289Y-114520125D01*
X156943072Y-114580586D01*
X156943070Y-114580588D01*
X156943069Y-114580588D01*
X156820588Y-114703069D01*
X156820588Y-114703070D01*
X156820586Y-114703072D01*
X156776859Y-114763256D01*
X156718768Y-114843211D01*
X156640128Y-114997552D01*
X156586597Y-115162302D01*
X156559500Y-115333389D01*
X154830500Y-115333389D01*
X154830500Y-115272494D01*
X154791993Y-114980007D01*
X154715639Y-114695048D01*
X154602743Y-114422493D01*
X154547309Y-114326479D01*
X154455238Y-114167006D01*
X154275647Y-113932959D01*
X154275641Y-113932952D01*
X154067047Y-113724358D01*
X154067040Y-113724352D01*
X153832993Y-113544761D01*
X153577510Y-113397258D01*
X153577500Y-113397254D01*
X153304961Y-113284364D01*
X153304954Y-113284362D01*
X153304952Y-113284361D01*
X153019993Y-113208007D01*
X152971113Y-113201571D01*
X152727513Y-113169500D01*
X152727506Y-113169500D01*
X152432494Y-113169500D01*
X152432486Y-113169500D01*
X152154085Y-113206153D01*
X152140007Y-113208007D01*
X151965428Y-113254785D01*
X151855048Y-113284361D01*
X151855038Y-113284364D01*
X151582499Y-113397254D01*
X151582489Y-113397258D01*
X151327006Y-113544761D01*
X151092959Y-113724352D01*
X151092952Y-113724358D01*
X150884358Y-113932952D01*
X150884352Y-113932959D01*
X150704761Y-114167006D01*
X150557258Y-114422489D01*
X150557254Y-114422499D01*
X150444364Y-114695038D01*
X150444361Y-114695048D01*
X150368008Y-114980004D01*
X150368006Y-114980015D01*
X150329500Y-115272486D01*
X148590854Y-115272486D01*
X148573402Y-115162299D01*
X148519873Y-114997555D01*
X148441232Y-114843212D01*
X148339414Y-114703072D01*
X148287482Y-114651140D01*
X148253997Y-114589817D01*
X148258981Y-114520125D01*
X148300853Y-114464192D01*
X148366317Y-114439775D01*
X148394561Y-114440986D01*
X148395212Y-114441089D01*
X148395215Y-114441090D01*
X148644038Y-114480500D01*
X148644039Y-114480500D01*
X148895961Y-114480500D01*
X148895962Y-114480500D01*
X149144785Y-114441090D01*
X149384379Y-114363241D01*
X149608845Y-114248870D01*
X149812656Y-114100793D01*
X149990793Y-113922656D01*
X150138870Y-113718845D01*
X150253241Y-113494379D01*
X150331090Y-113254785D01*
X150370500Y-113005962D01*
X150370500Y-112936398D01*
X160804500Y-112936398D01*
X160804500Y-113141101D01*
X160836522Y-113343284D01*
X160899781Y-113537973D01*
X160963691Y-113663403D01*
X160991941Y-113718845D01*
X160992715Y-113720363D01*
X161113028Y-113885963D01*
X161257786Y-114030721D01*
X161354241Y-114100798D01*
X161423390Y-114151037D01*
X161539607Y-114210253D01*
X161605776Y-114243968D01*
X161605778Y-114243968D01*
X161605781Y-114243970D01*
X161710137Y-114277877D01*
X161800465Y-114307227D01*
X161877953Y-114319500D01*
X162002648Y-114339250D01*
X162002649Y-114339250D01*
X162207351Y-114339250D01*
X162207352Y-114339250D01*
X162409534Y-114307227D01*
X162604219Y-114243970D01*
X162786610Y-114151037D01*
X162879590Y-114083482D01*
X162952213Y-114030721D01*
X162952215Y-114030718D01*
X162952219Y-114030716D01*
X163096966Y-113885969D01*
X163096968Y-113885965D01*
X163096971Y-113885963D01*
X163214382Y-113724358D01*
X163217287Y-113720360D01*
X163310220Y-113537969D01*
X163373477Y-113343284D01*
X163405500Y-113141102D01*
X163405500Y-112936398D01*
X163373477Y-112734216D01*
X163310220Y-112539531D01*
X163310218Y-112539528D01*
X163310218Y-112539526D01*
X163276503Y-112473357D01*
X163217287Y-112357140D01*
X163209556Y-112346499D01*
X163096971Y-112191536D01*
X162952213Y-112046778D01*
X162786613Y-111926465D01*
X162786612Y-111926464D01*
X162786610Y-111926463D01*
X162729653Y-111897441D01*
X162604223Y-111833531D01*
X162409534Y-111770272D01*
X162234995Y-111742628D01*
X162207352Y-111738250D01*
X162002648Y-111738250D01*
X161978329Y-111742101D01*
X161800465Y-111770272D01*
X161605776Y-111833531D01*
X161423386Y-111926465D01*
X161257786Y-112046778D01*
X161113028Y-112191536D01*
X160992715Y-112357136D01*
X160899781Y-112539526D01*
X160836522Y-112734215D01*
X160804500Y-112936398D01*
X150370500Y-112936398D01*
X150370500Y-112754038D01*
X150331090Y-112505215D01*
X150253241Y-112265621D01*
X150253239Y-112265618D01*
X150253239Y-112265616D01*
X150211747Y-112184184D01*
X150138870Y-112041155D01*
X150037107Y-111901090D01*
X149990798Y-111837350D01*
X149990794Y-111837345D01*
X149812654Y-111659205D01*
X149812649Y-111659201D01*
X149608848Y-111511132D01*
X149608847Y-111511131D01*
X149608845Y-111511130D01*
X149538747Y-111475413D01*
X149384383Y-111396760D01*
X149144785Y-111318910D01*
X148895962Y-111279500D01*
X148644038Y-111279500D01*
X148519626Y-111299205D01*
X148395214Y-111318910D01*
X148155616Y-111396760D01*
X147931151Y-111511132D01*
X147727350Y-111659201D01*
X147727345Y-111659205D01*
X147549205Y-111837345D01*
X147549201Y-111837350D01*
X147401132Y-112041151D01*
X147286760Y-112265616D01*
X147208910Y-112505214D01*
X147169500Y-112754038D01*
X147169500Y-113005961D01*
X147208910Y-113254785D01*
X147286760Y-113494383D01*
X147401132Y-113718848D01*
X147549201Y-113922649D01*
X147549205Y-113922654D01*
X147549207Y-113922656D01*
X147727344Y-114100793D01*
X147727345Y-114100794D01*
X147727344Y-114100794D01*
X147733661Y-114105383D01*
X147776327Y-114160714D01*
X147782305Y-114230327D01*
X147749699Y-114292122D01*
X147688860Y-114326479D01*
X147641378Y-114328174D01*
X147586611Y-114319500D01*
X147413389Y-114319500D01*
X147373728Y-114325781D01*
X147242302Y-114346597D01*
X147077552Y-114400128D01*
X146923211Y-114478768D01*
X146866289Y-114520125D01*
X146783072Y-114580586D01*
X146783070Y-114580588D01*
X146783069Y-114580588D01*
X146660588Y-114703069D01*
X146660588Y-114703070D01*
X146660586Y-114703072D01*
X146616859Y-114763256D01*
X146558768Y-114843211D01*
X146480128Y-114997552D01*
X146426597Y-115162302D01*
X146399500Y-115333389D01*
X133600612Y-115333389D01*
X120200592Y-96350026D01*
X120200592Y-96350025D01*
X120178196Y-96318297D01*
X120166276Y-96283389D01*
X146399500Y-96283389D01*
X146399500Y-96456611D01*
X146426598Y-96627701D01*
X146480127Y-96792445D01*
X146558768Y-96946788D01*
X146660586Y-97086928D01*
X146783072Y-97209414D01*
X146923212Y-97311232D01*
X147077555Y-97389873D01*
X147242299Y-97443402D01*
X147413389Y-97470500D01*
X147413390Y-97470500D01*
X147586610Y-97470500D01*
X147586611Y-97470500D01*
X147757701Y-97443402D01*
X147922445Y-97389873D01*
X148076788Y-97311232D01*
X148216928Y-97209414D01*
X148339414Y-97086928D01*
X148441232Y-96946788D01*
X148519873Y-96792445D01*
X148573402Y-96627701D01*
X148600500Y-96456611D01*
X148600500Y-96283389D01*
X148573402Y-96112299D01*
X148519873Y-95947555D01*
X148441232Y-95793212D01*
X148339414Y-95653072D01*
X148287482Y-95601140D01*
X148253997Y-95539817D01*
X148258981Y-95470125D01*
X148300853Y-95414192D01*
X148366317Y-95389775D01*
X148394561Y-95390986D01*
X148395212Y-95391089D01*
X148395215Y-95391090D01*
X148644038Y-95430500D01*
X148644039Y-95430500D01*
X148895961Y-95430500D01*
X148895962Y-95430500D01*
X149144785Y-95391090D01*
X149384379Y-95313241D01*
X149608845Y-95198870D01*
X149812656Y-95050793D01*
X149990793Y-94872656D01*
X150138870Y-94668845D01*
X150253241Y-94444379D01*
X150331090Y-94204785D01*
X150370500Y-93955962D01*
X150370500Y-93704038D01*
X150331090Y-93455215D01*
X150253241Y-93215621D01*
X150253239Y-93215618D01*
X150253239Y-93215616D01*
X150167187Y-93046731D01*
X150138870Y-92991155D01*
X150119952Y-92965117D01*
X149990798Y-92787350D01*
X149990794Y-92787345D01*
X149812654Y-92609205D01*
X149812649Y-92609201D01*
X149608848Y-92461132D01*
X149608847Y-92461131D01*
X149608845Y-92461130D01*
X149538747Y-92425413D01*
X149384383Y-92346760D01*
X149144785Y-92268910D01*
X148895962Y-92229500D01*
X148644038Y-92229500D01*
X148519626Y-92249205D01*
X148395214Y-92268910D01*
X148155616Y-92346760D01*
X147931151Y-92461132D01*
X147727350Y-92609201D01*
X147727345Y-92609205D01*
X147549205Y-92787345D01*
X147549201Y-92787350D01*
X147401132Y-92991151D01*
X147286760Y-93215616D01*
X147208910Y-93455214D01*
X147169500Y-93704038D01*
X147169500Y-93955961D01*
X147208910Y-94204785D01*
X147286760Y-94444383D01*
X147401132Y-94668848D01*
X147549201Y-94872649D01*
X147549205Y-94872654D01*
X147549207Y-94872656D01*
X147727344Y-95050793D01*
X147727345Y-95050794D01*
X147727344Y-95050794D01*
X147733661Y-95055383D01*
X147776327Y-95110714D01*
X147782305Y-95180327D01*
X147749699Y-95242122D01*
X147688860Y-95276479D01*
X147641378Y-95278174D01*
X147586611Y-95269500D01*
X147413389Y-95269500D01*
X147373728Y-95275781D01*
X147242302Y-95296597D01*
X147077552Y-95350128D01*
X146923211Y-95428768D01*
X146866289Y-95470125D01*
X146783072Y-95530586D01*
X146783070Y-95530588D01*
X146783069Y-95530588D01*
X146660588Y-95653069D01*
X146660588Y-95653070D01*
X146660586Y-95653072D01*
X146616859Y-95713256D01*
X146558768Y-95793211D01*
X146480128Y-95947552D01*
X146426597Y-96112302D01*
X146409146Y-96222486D01*
X146399500Y-96283389D01*
X120166276Y-96283389D01*
X120155617Y-96252176D01*
X120155500Y-96246789D01*
X120155500Y-72469500D01*
X120175185Y-72402461D01*
X120227989Y-72356706D01*
X120279500Y-72345500D01*
X190725716Y-72345500D01*
X190792755Y-72365185D01*
G37*
G04 #@! TD.AperFunction*
M02*
