%TF.GenerationSoftware,KiCad,Pcbnew,9.0.7*%
%TF.CreationDate,2026-01-31T21:00:05+05:30*%
%TF.ProjectId,SnekPad,536e656b-5061-4642-9e6b-696361645f70,rev?*%
%TF.SameCoordinates,Original*%
%TF.FileFunction,Drillmap*%
%TF.FilePolarity,Positive*%
%FSLAX45Y45*%
G04 Gerber Fmt 4.5, Leading zero omitted, Abs format (unit mm)*
G04 Created by KiCad (PCBNEW 9.0.7) date 2026-01-31 21:00:05*
%MOMM*%
%LPD*%
G01*
G04 APERTURE LIST*
%ADD10C,0.050000*%
%ADD11C,0.200000*%
%ADD12C,0.170000*%
%ADD13C,0.400000*%
G04 APERTURE END LIST*
D10*
X11965500Y-9644500D02*
X11965500Y-7184500D01*
X14125500Y-12704500D02*
X11965500Y-9644500D01*
X20485500Y-12704500D02*
X14125500Y-12704500D01*
X20485500Y-7184500D02*
X20485500Y-12704500D01*
X11965500Y-7184500D02*
X20485500Y-7184500D01*
D11*
D12*
X14665000Y-9552000D02*
X14835000Y-9722000D01*
X14835000Y-9552000D02*
X14665000Y-9722000D01*
X14665000Y-11457000D02*
X14835000Y-11627000D01*
X14835000Y-11457000D02*
X14665000Y-11627000D01*
X15681000Y-9552000D02*
X15851000Y-9722000D01*
X15851000Y-9552000D02*
X15681000Y-9722000D01*
X15681000Y-11457000D02*
X15851000Y-11627000D01*
X15851000Y-11457000D02*
X15681000Y-11627000D01*
X16570000Y-9552000D02*
X16740000Y-9722000D01*
X16740000Y-9552000D02*
X16570000Y-9722000D01*
X16570000Y-11457000D02*
X16740000Y-11627000D01*
X16740000Y-11457000D02*
X16570000Y-11627000D01*
X17586000Y-9552000D02*
X17756000Y-9722000D01*
X17756000Y-9552000D02*
X17586000Y-9722000D01*
X17586000Y-11457000D02*
X17756000Y-11627000D01*
X17756000Y-11457000D02*
X17586000Y-11627000D01*
X18475000Y-9552000D02*
X18645000Y-9722000D01*
X18645000Y-9552000D02*
X18475000Y-9722000D01*
X18475000Y-11457000D02*
X18645000Y-11627000D01*
X18645000Y-11457000D02*
X18475000Y-11627000D01*
X19491000Y-9552000D02*
X19661000Y-9722000D01*
X19661000Y-9552000D02*
X19491000Y-9722000D01*
X19491000Y-11457000D02*
X19661000Y-11627000D01*
X19661000Y-11457000D02*
X19491000Y-11627000D01*
D13*
X15458000Y-9637000D02*
G75*
G02*
X15058000Y-9637000I-200000J0D01*
G01*
X15058000Y-9637000D02*
G75*
G02*
X15458000Y-9637000I200000J0D01*
G01*
X15458000Y-11542000D02*
G75*
G02*
X15058000Y-11542000I-200000J0D01*
G01*
X15058000Y-11542000D02*
G75*
G02*
X15458000Y-11542000I200000J0D01*
G01*
X17363000Y-9637000D02*
G75*
G02*
X16963000Y-9637000I-200000J0D01*
G01*
X16963000Y-9637000D02*
G75*
G02*
X17363000Y-9637000I200000J0D01*
G01*
X17363000Y-11542000D02*
G75*
G02*
X16963000Y-11542000I-200000J0D01*
G01*
X16963000Y-11542000D02*
G75*
G02*
X17363000Y-11542000I200000J0D01*
G01*
X19268000Y-9637000D02*
G75*
G02*
X18868000Y-9637000I-200000J0D01*
G01*
X18868000Y-9637000D02*
G75*
G02*
X19268000Y-9637000I200000J0D01*
G01*
X19268000Y-11542000D02*
G75*
G02*
X18868000Y-11542000I-200000J0D01*
G01*
X18868000Y-11542000D02*
G75*
G02*
X19268000Y-11542000I200000J0D01*
G01*
D11*
X12223777Y-13018484D02*
X12223777Y-12818484D01*
X12223777Y-12818484D02*
X12271396Y-12818484D01*
X12271396Y-12818484D02*
X12299967Y-12828008D01*
X12299967Y-12828008D02*
X12319015Y-12847055D01*
X12319015Y-12847055D02*
X12328539Y-12866103D01*
X12328539Y-12866103D02*
X12338062Y-12904198D01*
X12338062Y-12904198D02*
X12338062Y-12932769D01*
X12338062Y-12932769D02*
X12328539Y-12970865D01*
X12328539Y-12970865D02*
X12319015Y-12989912D01*
X12319015Y-12989912D02*
X12299967Y-13008960D01*
X12299967Y-13008960D02*
X12271396Y-13018484D01*
X12271396Y-13018484D02*
X12223777Y-13018484D01*
X12423777Y-13018484D02*
X12423777Y-12885150D01*
X12423777Y-12923246D02*
X12433301Y-12904198D01*
X12433301Y-12904198D02*
X12442824Y-12894674D01*
X12442824Y-12894674D02*
X12461872Y-12885150D01*
X12461872Y-12885150D02*
X12480920Y-12885150D01*
X12547586Y-13018484D02*
X12547586Y-12885150D01*
X12547586Y-12818484D02*
X12538062Y-12828008D01*
X12538062Y-12828008D02*
X12547586Y-12837531D01*
X12547586Y-12837531D02*
X12557110Y-12828008D01*
X12557110Y-12828008D02*
X12547586Y-12818484D01*
X12547586Y-12818484D02*
X12547586Y-12837531D01*
X12671396Y-13018484D02*
X12652348Y-13008960D01*
X12652348Y-13008960D02*
X12642824Y-12989912D01*
X12642824Y-12989912D02*
X12642824Y-12818484D01*
X12776158Y-13018484D02*
X12757110Y-13008960D01*
X12757110Y-13008960D02*
X12747586Y-12989912D01*
X12747586Y-12989912D02*
X12747586Y-12818484D01*
X13004729Y-13018484D02*
X13004729Y-12818484D01*
X13004729Y-12818484D02*
X13071396Y-12961341D01*
X13071396Y-12961341D02*
X13138062Y-12818484D01*
X13138062Y-12818484D02*
X13138062Y-13018484D01*
X13319015Y-13018484D02*
X13319015Y-12913722D01*
X13319015Y-12913722D02*
X13309491Y-12894674D01*
X13309491Y-12894674D02*
X13290443Y-12885150D01*
X13290443Y-12885150D02*
X13252348Y-12885150D01*
X13252348Y-12885150D02*
X13233301Y-12894674D01*
X13319015Y-13008960D02*
X13299967Y-13018484D01*
X13299967Y-13018484D02*
X13252348Y-13018484D01*
X13252348Y-13018484D02*
X13233301Y-13008960D01*
X13233301Y-13008960D02*
X13223777Y-12989912D01*
X13223777Y-12989912D02*
X13223777Y-12970865D01*
X13223777Y-12970865D02*
X13233301Y-12951817D01*
X13233301Y-12951817D02*
X13252348Y-12942293D01*
X13252348Y-12942293D02*
X13299967Y-12942293D01*
X13299967Y-12942293D02*
X13319015Y-12932769D01*
X13414253Y-12885150D02*
X13414253Y-13085150D01*
X13414253Y-12894674D02*
X13433301Y-12885150D01*
X13433301Y-12885150D02*
X13471396Y-12885150D01*
X13471396Y-12885150D02*
X13490443Y-12894674D01*
X13490443Y-12894674D02*
X13499967Y-12904198D01*
X13499967Y-12904198D02*
X13509491Y-12923246D01*
X13509491Y-12923246D02*
X13509491Y-12980388D01*
X13509491Y-12980388D02*
X13499967Y-12999436D01*
X13499967Y-12999436D02*
X13490443Y-13008960D01*
X13490443Y-13008960D02*
X13471396Y-13018484D01*
X13471396Y-13018484D02*
X13433301Y-13018484D01*
X13433301Y-13018484D02*
X13414253Y-13008960D01*
X13595205Y-12999436D02*
X13604729Y-13008960D01*
X13604729Y-13008960D02*
X13595205Y-13018484D01*
X13595205Y-13018484D02*
X13585682Y-13008960D01*
X13585682Y-13008960D02*
X13595205Y-12999436D01*
X13595205Y-12999436D02*
X13595205Y-13018484D01*
X13595205Y-12894674D02*
X13604729Y-12904198D01*
X13604729Y-12904198D02*
X13595205Y-12913722D01*
X13595205Y-12913722D02*
X13585682Y-12904198D01*
X13585682Y-12904198D02*
X13595205Y-12894674D01*
X13595205Y-12894674D02*
X13595205Y-12913722D01*
D12*
X11793000Y-13262000D02*
X11963000Y-13432000D01*
X11963000Y-13262000D02*
X11793000Y-13432000D01*
D11*
X12328539Y-13438484D02*
X12214253Y-13438484D01*
X12271396Y-13438484D02*
X12271396Y-13238484D01*
X12271396Y-13238484D02*
X12252348Y-13267055D01*
X12252348Y-13267055D02*
X12233301Y-13286103D01*
X12233301Y-13286103D02*
X12214253Y-13295627D01*
X12414253Y-13419436D02*
X12423777Y-13428960D01*
X12423777Y-13428960D02*
X12414253Y-13438484D01*
X12414253Y-13438484D02*
X12404729Y-13428960D01*
X12404729Y-13428960D02*
X12414253Y-13419436D01*
X12414253Y-13419436D02*
X12414253Y-13438484D01*
X12490443Y-13238484D02*
X12623777Y-13238484D01*
X12623777Y-13238484D02*
X12538062Y-13438484D01*
X12738062Y-13238484D02*
X12757110Y-13238484D01*
X12757110Y-13238484D02*
X12776158Y-13248008D01*
X12776158Y-13248008D02*
X12785682Y-13257531D01*
X12785682Y-13257531D02*
X12795205Y-13276579D01*
X12795205Y-13276579D02*
X12804729Y-13314674D01*
X12804729Y-13314674D02*
X12804729Y-13362293D01*
X12804729Y-13362293D02*
X12795205Y-13400388D01*
X12795205Y-13400388D02*
X12785682Y-13419436D01*
X12785682Y-13419436D02*
X12776158Y-13428960D01*
X12776158Y-13428960D02*
X12757110Y-13438484D01*
X12757110Y-13438484D02*
X12738062Y-13438484D01*
X12738062Y-13438484D02*
X12719015Y-13428960D01*
X12719015Y-13428960D02*
X12709491Y-13419436D01*
X12709491Y-13419436D02*
X12699967Y-13400388D01*
X12699967Y-13400388D02*
X12690443Y-13362293D01*
X12690443Y-13362293D02*
X12690443Y-13314674D01*
X12690443Y-13314674D02*
X12699967Y-13276579D01*
X12699967Y-13276579D02*
X12709491Y-13257531D01*
X12709491Y-13257531D02*
X12719015Y-13248008D01*
X12719015Y-13248008D02*
X12738062Y-13238484D01*
X12928539Y-13238484D02*
X12947586Y-13238484D01*
X12947586Y-13238484D02*
X12966634Y-13248008D01*
X12966634Y-13248008D02*
X12976158Y-13257531D01*
X12976158Y-13257531D02*
X12985682Y-13276579D01*
X12985682Y-13276579D02*
X12995205Y-13314674D01*
X12995205Y-13314674D02*
X12995205Y-13362293D01*
X12995205Y-13362293D02*
X12985682Y-13400388D01*
X12985682Y-13400388D02*
X12976158Y-13419436D01*
X12976158Y-13419436D02*
X12966634Y-13428960D01*
X12966634Y-13428960D02*
X12947586Y-13438484D01*
X12947586Y-13438484D02*
X12928539Y-13438484D01*
X12928539Y-13438484D02*
X12909491Y-13428960D01*
X12909491Y-13428960D02*
X12899967Y-13419436D01*
X12899967Y-13419436D02*
X12890443Y-13400388D01*
X12890443Y-13400388D02*
X12880920Y-13362293D01*
X12880920Y-13362293D02*
X12880920Y-13314674D01*
X12880920Y-13314674D02*
X12890443Y-13276579D01*
X12890443Y-13276579D02*
X12899967Y-13257531D01*
X12899967Y-13257531D02*
X12909491Y-13248008D01*
X12909491Y-13248008D02*
X12928539Y-13238484D01*
X13080920Y-13438484D02*
X13080920Y-13305150D01*
X13080920Y-13324198D02*
X13090443Y-13314674D01*
X13090443Y-13314674D02*
X13109491Y-13305150D01*
X13109491Y-13305150D02*
X13138063Y-13305150D01*
X13138063Y-13305150D02*
X13157110Y-13314674D01*
X13157110Y-13314674D02*
X13166634Y-13333722D01*
X13166634Y-13333722D02*
X13166634Y-13438484D01*
X13166634Y-13333722D02*
X13176158Y-13314674D01*
X13176158Y-13314674D02*
X13195205Y-13305150D01*
X13195205Y-13305150D02*
X13223777Y-13305150D01*
X13223777Y-13305150D02*
X13242824Y-13314674D01*
X13242824Y-13314674D02*
X13252348Y-13333722D01*
X13252348Y-13333722D02*
X13252348Y-13438484D01*
X13347586Y-13438484D02*
X13347586Y-13305150D01*
X13347586Y-13324198D02*
X13357110Y-13314674D01*
X13357110Y-13314674D02*
X13376158Y-13305150D01*
X13376158Y-13305150D02*
X13404729Y-13305150D01*
X13404729Y-13305150D02*
X13423777Y-13314674D01*
X13423777Y-13314674D02*
X13433301Y-13333722D01*
X13433301Y-13333722D02*
X13433301Y-13438484D01*
X13433301Y-13333722D02*
X13442824Y-13314674D01*
X13442824Y-13314674D02*
X13461872Y-13305150D01*
X13461872Y-13305150D02*
X13490443Y-13305150D01*
X13490443Y-13305150D02*
X13509491Y-13314674D01*
X13509491Y-13314674D02*
X13519015Y-13333722D01*
X13519015Y-13333722D02*
X13519015Y-13438484D01*
X13909491Y-13228960D02*
X13738063Y-13486103D01*
X14166634Y-13238484D02*
X14185682Y-13238484D01*
X14185682Y-13238484D02*
X14204729Y-13248008D01*
X14204729Y-13248008D02*
X14214253Y-13257531D01*
X14214253Y-13257531D02*
X14223777Y-13276579D01*
X14223777Y-13276579D02*
X14233301Y-13314674D01*
X14233301Y-13314674D02*
X14233301Y-13362293D01*
X14233301Y-13362293D02*
X14223777Y-13400388D01*
X14223777Y-13400388D02*
X14214253Y-13419436D01*
X14214253Y-13419436D02*
X14204729Y-13428960D01*
X14204729Y-13428960D02*
X14185682Y-13438484D01*
X14185682Y-13438484D02*
X14166634Y-13438484D01*
X14166634Y-13438484D02*
X14147586Y-13428960D01*
X14147586Y-13428960D02*
X14138063Y-13419436D01*
X14138063Y-13419436D02*
X14128539Y-13400388D01*
X14128539Y-13400388D02*
X14119015Y-13362293D01*
X14119015Y-13362293D02*
X14119015Y-13314674D01*
X14119015Y-13314674D02*
X14128539Y-13276579D01*
X14128539Y-13276579D02*
X14138063Y-13257531D01*
X14138063Y-13257531D02*
X14147586Y-13248008D01*
X14147586Y-13248008D02*
X14166634Y-13238484D01*
X14319015Y-13419436D02*
X14328539Y-13428960D01*
X14328539Y-13428960D02*
X14319015Y-13438484D01*
X14319015Y-13438484D02*
X14309491Y-13428960D01*
X14309491Y-13428960D02*
X14319015Y-13419436D01*
X14319015Y-13419436D02*
X14319015Y-13438484D01*
X14452348Y-13238484D02*
X14471396Y-13238484D01*
X14471396Y-13238484D02*
X14490444Y-13248008D01*
X14490444Y-13248008D02*
X14499967Y-13257531D01*
X14499967Y-13257531D02*
X14509491Y-13276579D01*
X14509491Y-13276579D02*
X14519015Y-13314674D01*
X14519015Y-13314674D02*
X14519015Y-13362293D01*
X14519015Y-13362293D02*
X14509491Y-13400388D01*
X14509491Y-13400388D02*
X14499967Y-13419436D01*
X14499967Y-13419436D02*
X14490444Y-13428960D01*
X14490444Y-13428960D02*
X14471396Y-13438484D01*
X14471396Y-13438484D02*
X14452348Y-13438484D01*
X14452348Y-13438484D02*
X14433301Y-13428960D01*
X14433301Y-13428960D02*
X14423777Y-13419436D01*
X14423777Y-13419436D02*
X14414253Y-13400388D01*
X14414253Y-13400388D02*
X14404729Y-13362293D01*
X14404729Y-13362293D02*
X14404729Y-13314674D01*
X14404729Y-13314674D02*
X14414253Y-13276579D01*
X14414253Y-13276579D02*
X14423777Y-13257531D01*
X14423777Y-13257531D02*
X14433301Y-13248008D01*
X14433301Y-13248008D02*
X14452348Y-13238484D01*
X14690444Y-13238484D02*
X14652348Y-13238484D01*
X14652348Y-13238484D02*
X14633301Y-13248008D01*
X14633301Y-13248008D02*
X14623777Y-13257531D01*
X14623777Y-13257531D02*
X14604729Y-13286103D01*
X14604729Y-13286103D02*
X14595206Y-13324198D01*
X14595206Y-13324198D02*
X14595206Y-13400388D01*
X14595206Y-13400388D02*
X14604729Y-13419436D01*
X14604729Y-13419436D02*
X14614253Y-13428960D01*
X14614253Y-13428960D02*
X14633301Y-13438484D01*
X14633301Y-13438484D02*
X14671396Y-13438484D01*
X14671396Y-13438484D02*
X14690444Y-13428960D01*
X14690444Y-13428960D02*
X14699967Y-13419436D01*
X14699967Y-13419436D02*
X14709491Y-13400388D01*
X14709491Y-13400388D02*
X14709491Y-13352769D01*
X14709491Y-13352769D02*
X14699967Y-13333722D01*
X14699967Y-13333722D02*
X14690444Y-13324198D01*
X14690444Y-13324198D02*
X14671396Y-13314674D01*
X14671396Y-13314674D02*
X14633301Y-13314674D01*
X14633301Y-13314674D02*
X14614253Y-13324198D01*
X14614253Y-13324198D02*
X14604729Y-13333722D01*
X14604729Y-13333722D02*
X14595206Y-13352769D01*
X14880920Y-13238484D02*
X14842825Y-13238484D01*
X14842825Y-13238484D02*
X14823777Y-13248008D01*
X14823777Y-13248008D02*
X14814253Y-13257531D01*
X14814253Y-13257531D02*
X14795206Y-13286103D01*
X14795206Y-13286103D02*
X14785682Y-13324198D01*
X14785682Y-13324198D02*
X14785682Y-13400388D01*
X14785682Y-13400388D02*
X14795206Y-13419436D01*
X14795206Y-13419436D02*
X14804729Y-13428960D01*
X14804729Y-13428960D02*
X14823777Y-13438484D01*
X14823777Y-13438484D02*
X14861872Y-13438484D01*
X14861872Y-13438484D02*
X14880920Y-13428960D01*
X14880920Y-13428960D02*
X14890444Y-13419436D01*
X14890444Y-13419436D02*
X14899967Y-13400388D01*
X14899967Y-13400388D02*
X14899967Y-13352769D01*
X14899967Y-13352769D02*
X14890444Y-13333722D01*
X14890444Y-13333722D02*
X14880920Y-13324198D01*
X14880920Y-13324198D02*
X14861872Y-13314674D01*
X14861872Y-13314674D02*
X14823777Y-13314674D01*
X14823777Y-13314674D02*
X14804729Y-13324198D01*
X14804729Y-13324198D02*
X14795206Y-13333722D01*
X14795206Y-13333722D02*
X14785682Y-13352769D01*
X14995206Y-13438484D02*
X15033301Y-13438484D01*
X15033301Y-13438484D02*
X15052348Y-13428960D01*
X15052348Y-13428960D02*
X15061872Y-13419436D01*
X15061872Y-13419436D02*
X15080920Y-13390865D01*
X15080920Y-13390865D02*
X15090444Y-13352769D01*
X15090444Y-13352769D02*
X15090444Y-13276579D01*
X15090444Y-13276579D02*
X15080920Y-13257531D01*
X15080920Y-13257531D02*
X15071396Y-13248008D01*
X15071396Y-13248008D02*
X15052348Y-13238484D01*
X15052348Y-13238484D02*
X15014253Y-13238484D01*
X15014253Y-13238484D02*
X14995206Y-13248008D01*
X14995206Y-13248008D02*
X14985682Y-13257531D01*
X14985682Y-13257531D02*
X14976158Y-13276579D01*
X14976158Y-13276579D02*
X14976158Y-13324198D01*
X14976158Y-13324198D02*
X14985682Y-13343246D01*
X14985682Y-13343246D02*
X14995206Y-13352769D01*
X14995206Y-13352769D02*
X15014253Y-13362293D01*
X15014253Y-13362293D02*
X15052348Y-13362293D01*
X15052348Y-13362293D02*
X15071396Y-13352769D01*
X15071396Y-13352769D02*
X15080920Y-13343246D01*
X15080920Y-13343246D02*
X15090444Y-13324198D01*
X15166634Y-13238484D02*
X15166634Y-13276579D01*
X15242825Y-13238484D02*
X15242825Y-13276579D01*
X15538063Y-13514674D02*
X15528539Y-13505150D01*
X15528539Y-13505150D02*
X15509491Y-13476579D01*
X15509491Y-13476579D02*
X15499968Y-13457531D01*
X15499968Y-13457531D02*
X15490444Y-13428960D01*
X15490444Y-13428960D02*
X15480920Y-13381341D01*
X15480920Y-13381341D02*
X15480920Y-13343246D01*
X15480920Y-13343246D02*
X15490444Y-13295627D01*
X15490444Y-13295627D02*
X15499968Y-13267055D01*
X15499968Y-13267055D02*
X15509491Y-13248008D01*
X15509491Y-13248008D02*
X15528539Y-13219436D01*
X15528539Y-13219436D02*
X15538063Y-13209912D01*
X15719015Y-13438484D02*
X15604729Y-13438484D01*
X15661872Y-13438484D02*
X15661872Y-13238484D01*
X15661872Y-13238484D02*
X15642825Y-13267055D01*
X15642825Y-13267055D02*
X15623777Y-13286103D01*
X15623777Y-13286103D02*
X15604729Y-13295627D01*
X15795206Y-13257531D02*
X15804729Y-13248008D01*
X15804729Y-13248008D02*
X15823777Y-13238484D01*
X15823777Y-13238484D02*
X15871396Y-13238484D01*
X15871396Y-13238484D02*
X15890444Y-13248008D01*
X15890444Y-13248008D02*
X15899968Y-13257531D01*
X15899968Y-13257531D02*
X15909491Y-13276579D01*
X15909491Y-13276579D02*
X15909491Y-13295627D01*
X15909491Y-13295627D02*
X15899968Y-13324198D01*
X15899968Y-13324198D02*
X15785682Y-13438484D01*
X15785682Y-13438484D02*
X15909491Y-13438484D01*
X16147587Y-13438484D02*
X16147587Y-13238484D01*
X16233301Y-13438484D02*
X16233301Y-13333722D01*
X16233301Y-13333722D02*
X16223777Y-13314674D01*
X16223777Y-13314674D02*
X16204730Y-13305150D01*
X16204730Y-13305150D02*
X16176158Y-13305150D01*
X16176158Y-13305150D02*
X16157110Y-13314674D01*
X16157110Y-13314674D02*
X16147587Y-13324198D01*
X16357110Y-13438484D02*
X16338063Y-13428960D01*
X16338063Y-13428960D02*
X16328539Y-13419436D01*
X16328539Y-13419436D02*
X16319015Y-13400388D01*
X16319015Y-13400388D02*
X16319015Y-13343246D01*
X16319015Y-13343246D02*
X16328539Y-13324198D01*
X16328539Y-13324198D02*
X16338063Y-13314674D01*
X16338063Y-13314674D02*
X16357110Y-13305150D01*
X16357110Y-13305150D02*
X16385682Y-13305150D01*
X16385682Y-13305150D02*
X16404730Y-13314674D01*
X16404730Y-13314674D02*
X16414253Y-13324198D01*
X16414253Y-13324198D02*
X16423777Y-13343246D01*
X16423777Y-13343246D02*
X16423777Y-13400388D01*
X16423777Y-13400388D02*
X16414253Y-13419436D01*
X16414253Y-13419436D02*
X16404730Y-13428960D01*
X16404730Y-13428960D02*
X16385682Y-13438484D01*
X16385682Y-13438484D02*
X16357110Y-13438484D01*
X16538063Y-13438484D02*
X16519015Y-13428960D01*
X16519015Y-13428960D02*
X16509491Y-13409912D01*
X16509491Y-13409912D02*
X16509491Y-13238484D01*
X16690444Y-13428960D02*
X16671396Y-13438484D01*
X16671396Y-13438484D02*
X16633301Y-13438484D01*
X16633301Y-13438484D02*
X16614253Y-13428960D01*
X16614253Y-13428960D02*
X16604730Y-13409912D01*
X16604730Y-13409912D02*
X16604730Y-13333722D01*
X16604730Y-13333722D02*
X16614253Y-13314674D01*
X16614253Y-13314674D02*
X16633301Y-13305150D01*
X16633301Y-13305150D02*
X16671396Y-13305150D01*
X16671396Y-13305150D02*
X16690444Y-13314674D01*
X16690444Y-13314674D02*
X16699968Y-13333722D01*
X16699968Y-13333722D02*
X16699968Y-13352769D01*
X16699968Y-13352769D02*
X16604730Y-13371817D01*
X16776158Y-13428960D02*
X16795206Y-13438484D01*
X16795206Y-13438484D02*
X16833301Y-13438484D01*
X16833301Y-13438484D02*
X16852349Y-13428960D01*
X16852349Y-13428960D02*
X16861873Y-13409912D01*
X16861873Y-13409912D02*
X16861873Y-13400388D01*
X16861873Y-13400388D02*
X16852349Y-13381341D01*
X16852349Y-13381341D02*
X16833301Y-13371817D01*
X16833301Y-13371817D02*
X16804730Y-13371817D01*
X16804730Y-13371817D02*
X16785682Y-13362293D01*
X16785682Y-13362293D02*
X16776158Y-13343246D01*
X16776158Y-13343246D02*
X16776158Y-13333722D01*
X16776158Y-13333722D02*
X16785682Y-13314674D01*
X16785682Y-13314674D02*
X16804730Y-13305150D01*
X16804730Y-13305150D02*
X16833301Y-13305150D01*
X16833301Y-13305150D02*
X16852349Y-13314674D01*
X16928539Y-13514674D02*
X16938063Y-13505150D01*
X16938063Y-13505150D02*
X16957111Y-13476579D01*
X16957111Y-13476579D02*
X16966634Y-13457531D01*
X16966634Y-13457531D02*
X16976158Y-13428960D01*
X16976158Y-13428960D02*
X16985682Y-13381341D01*
X16985682Y-13381341D02*
X16985682Y-13343246D01*
X16985682Y-13343246D02*
X16976158Y-13295627D01*
X16976158Y-13295627D02*
X16966634Y-13267055D01*
X16966634Y-13267055D02*
X16957111Y-13248008D01*
X16957111Y-13248008D02*
X16938063Y-13219436D01*
X16938063Y-13219436D02*
X16928539Y-13209912D01*
X17290444Y-13514674D02*
X17280920Y-13505150D01*
X17280920Y-13505150D02*
X17261873Y-13476579D01*
X17261873Y-13476579D02*
X17252349Y-13457531D01*
X17252349Y-13457531D02*
X17242825Y-13428960D01*
X17242825Y-13428960D02*
X17233301Y-13381341D01*
X17233301Y-13381341D02*
X17233301Y-13343246D01*
X17233301Y-13343246D02*
X17242825Y-13295627D01*
X17242825Y-13295627D02*
X17252349Y-13267055D01*
X17252349Y-13267055D02*
X17261873Y-13248008D01*
X17261873Y-13248008D02*
X17280920Y-13219436D01*
X17280920Y-13219436D02*
X17290444Y-13209912D01*
X17366634Y-13305150D02*
X17366634Y-13438484D01*
X17366634Y-13324198D02*
X17376158Y-13314674D01*
X17376158Y-13314674D02*
X17395206Y-13305150D01*
X17395206Y-13305150D02*
X17423777Y-13305150D01*
X17423777Y-13305150D02*
X17442825Y-13314674D01*
X17442825Y-13314674D02*
X17452349Y-13333722D01*
X17452349Y-13333722D02*
X17452349Y-13438484D01*
X17576158Y-13438484D02*
X17557111Y-13428960D01*
X17557111Y-13428960D02*
X17547587Y-13419436D01*
X17547587Y-13419436D02*
X17538063Y-13400388D01*
X17538063Y-13400388D02*
X17538063Y-13343246D01*
X17538063Y-13343246D02*
X17547587Y-13324198D01*
X17547587Y-13324198D02*
X17557111Y-13314674D01*
X17557111Y-13314674D02*
X17576158Y-13305150D01*
X17576158Y-13305150D02*
X17604730Y-13305150D01*
X17604730Y-13305150D02*
X17623777Y-13314674D01*
X17623777Y-13314674D02*
X17633301Y-13324198D01*
X17633301Y-13324198D02*
X17642825Y-13343246D01*
X17642825Y-13343246D02*
X17642825Y-13400388D01*
X17642825Y-13400388D02*
X17633301Y-13419436D01*
X17633301Y-13419436D02*
X17623777Y-13428960D01*
X17623777Y-13428960D02*
X17604730Y-13438484D01*
X17604730Y-13438484D02*
X17576158Y-13438484D01*
X17699968Y-13305150D02*
X17776158Y-13305150D01*
X17728539Y-13238484D02*
X17728539Y-13409912D01*
X17728539Y-13409912D02*
X17738063Y-13428960D01*
X17738063Y-13428960D02*
X17757111Y-13438484D01*
X17757111Y-13438484D02*
X17776158Y-13438484D01*
X17995206Y-13305150D02*
X17995206Y-13505150D01*
X17995206Y-13314674D02*
X18014254Y-13305150D01*
X18014254Y-13305150D02*
X18052349Y-13305150D01*
X18052349Y-13305150D02*
X18071396Y-13314674D01*
X18071396Y-13314674D02*
X18080920Y-13324198D01*
X18080920Y-13324198D02*
X18090444Y-13343246D01*
X18090444Y-13343246D02*
X18090444Y-13400388D01*
X18090444Y-13400388D02*
X18080920Y-13419436D01*
X18080920Y-13419436D02*
X18071396Y-13428960D01*
X18071396Y-13428960D02*
X18052349Y-13438484D01*
X18052349Y-13438484D02*
X18014254Y-13438484D01*
X18014254Y-13438484D02*
X17995206Y-13428960D01*
X18204730Y-13438484D02*
X18185682Y-13428960D01*
X18185682Y-13428960D02*
X18176158Y-13409912D01*
X18176158Y-13409912D02*
X18176158Y-13238484D01*
X18366635Y-13438484D02*
X18366635Y-13333722D01*
X18366635Y-13333722D02*
X18357111Y-13314674D01*
X18357111Y-13314674D02*
X18338063Y-13305150D01*
X18338063Y-13305150D02*
X18299968Y-13305150D01*
X18299968Y-13305150D02*
X18280920Y-13314674D01*
X18366635Y-13428960D02*
X18347587Y-13438484D01*
X18347587Y-13438484D02*
X18299968Y-13438484D01*
X18299968Y-13438484D02*
X18280920Y-13428960D01*
X18280920Y-13428960D02*
X18271396Y-13409912D01*
X18271396Y-13409912D02*
X18271396Y-13390865D01*
X18271396Y-13390865D02*
X18280920Y-13371817D01*
X18280920Y-13371817D02*
X18299968Y-13362293D01*
X18299968Y-13362293D02*
X18347587Y-13362293D01*
X18347587Y-13362293D02*
X18366635Y-13352769D01*
X18433301Y-13305150D02*
X18509492Y-13305150D01*
X18461873Y-13238484D02*
X18461873Y-13409912D01*
X18461873Y-13409912D02*
X18471396Y-13428960D01*
X18471396Y-13428960D02*
X18490444Y-13438484D01*
X18490444Y-13438484D02*
X18509492Y-13438484D01*
X18652349Y-13428960D02*
X18633301Y-13438484D01*
X18633301Y-13438484D02*
X18595206Y-13438484D01*
X18595206Y-13438484D02*
X18576158Y-13428960D01*
X18576158Y-13428960D02*
X18566635Y-13409912D01*
X18566635Y-13409912D02*
X18566635Y-13333722D01*
X18566635Y-13333722D02*
X18576158Y-13314674D01*
X18576158Y-13314674D02*
X18595206Y-13305150D01*
X18595206Y-13305150D02*
X18633301Y-13305150D01*
X18633301Y-13305150D02*
X18652349Y-13314674D01*
X18652349Y-13314674D02*
X18661873Y-13333722D01*
X18661873Y-13333722D02*
X18661873Y-13352769D01*
X18661873Y-13352769D02*
X18566635Y-13371817D01*
X18833301Y-13438484D02*
X18833301Y-13238484D01*
X18833301Y-13428960D02*
X18814254Y-13438484D01*
X18814254Y-13438484D02*
X18776158Y-13438484D01*
X18776158Y-13438484D02*
X18757111Y-13428960D01*
X18757111Y-13428960D02*
X18747587Y-13419436D01*
X18747587Y-13419436D02*
X18738063Y-13400388D01*
X18738063Y-13400388D02*
X18738063Y-13343246D01*
X18738063Y-13343246D02*
X18747587Y-13324198D01*
X18747587Y-13324198D02*
X18757111Y-13314674D01*
X18757111Y-13314674D02*
X18776158Y-13305150D01*
X18776158Y-13305150D02*
X18814254Y-13305150D01*
X18814254Y-13305150D02*
X18833301Y-13314674D01*
X18909492Y-13514674D02*
X18919016Y-13505150D01*
X18919016Y-13505150D02*
X18938063Y-13476579D01*
X18938063Y-13476579D02*
X18947587Y-13457531D01*
X18947587Y-13457531D02*
X18957111Y-13428960D01*
X18957111Y-13428960D02*
X18966635Y-13381341D01*
X18966635Y-13381341D02*
X18966635Y-13343246D01*
X18966635Y-13343246D02*
X18957111Y-13295627D01*
X18957111Y-13295627D02*
X18947587Y-13267055D01*
X18947587Y-13267055D02*
X18938063Y-13248008D01*
X18938063Y-13248008D02*
X18919016Y-13219436D01*
X18919016Y-13219436D02*
X18909492Y-13209912D01*
X11963000Y-13637000D02*
G75*
G02*
X11763000Y-13637000I-100000J0D01*
G01*
X11763000Y-13637000D02*
G75*
G02*
X11963000Y-13637000I100000J0D01*
G01*
X12309491Y-13595150D02*
X12309491Y-13728484D01*
X12261872Y-13518960D02*
X12214253Y-13661817D01*
X12214253Y-13661817D02*
X12338062Y-13661817D01*
X12414253Y-13709436D02*
X12423777Y-13718960D01*
X12423777Y-13718960D02*
X12414253Y-13728484D01*
X12414253Y-13728484D02*
X12404729Y-13718960D01*
X12404729Y-13718960D02*
X12414253Y-13709436D01*
X12414253Y-13709436D02*
X12414253Y-13728484D01*
X12547586Y-13528484D02*
X12566634Y-13528484D01*
X12566634Y-13528484D02*
X12585682Y-13538008D01*
X12585682Y-13538008D02*
X12595205Y-13547531D01*
X12595205Y-13547531D02*
X12604729Y-13566579D01*
X12604729Y-13566579D02*
X12614253Y-13604674D01*
X12614253Y-13604674D02*
X12614253Y-13652293D01*
X12614253Y-13652293D02*
X12604729Y-13690388D01*
X12604729Y-13690388D02*
X12595205Y-13709436D01*
X12595205Y-13709436D02*
X12585682Y-13718960D01*
X12585682Y-13718960D02*
X12566634Y-13728484D01*
X12566634Y-13728484D02*
X12547586Y-13728484D01*
X12547586Y-13728484D02*
X12528539Y-13718960D01*
X12528539Y-13718960D02*
X12519015Y-13709436D01*
X12519015Y-13709436D02*
X12509491Y-13690388D01*
X12509491Y-13690388D02*
X12499967Y-13652293D01*
X12499967Y-13652293D02*
X12499967Y-13604674D01*
X12499967Y-13604674D02*
X12509491Y-13566579D01*
X12509491Y-13566579D02*
X12519015Y-13547531D01*
X12519015Y-13547531D02*
X12528539Y-13538008D01*
X12528539Y-13538008D02*
X12547586Y-13528484D01*
X12738062Y-13528484D02*
X12757110Y-13528484D01*
X12757110Y-13528484D02*
X12776158Y-13538008D01*
X12776158Y-13538008D02*
X12785682Y-13547531D01*
X12785682Y-13547531D02*
X12795205Y-13566579D01*
X12795205Y-13566579D02*
X12804729Y-13604674D01*
X12804729Y-13604674D02*
X12804729Y-13652293D01*
X12804729Y-13652293D02*
X12795205Y-13690388D01*
X12795205Y-13690388D02*
X12785682Y-13709436D01*
X12785682Y-13709436D02*
X12776158Y-13718960D01*
X12776158Y-13718960D02*
X12757110Y-13728484D01*
X12757110Y-13728484D02*
X12738062Y-13728484D01*
X12738062Y-13728484D02*
X12719015Y-13718960D01*
X12719015Y-13718960D02*
X12709491Y-13709436D01*
X12709491Y-13709436D02*
X12699967Y-13690388D01*
X12699967Y-13690388D02*
X12690443Y-13652293D01*
X12690443Y-13652293D02*
X12690443Y-13604674D01*
X12690443Y-13604674D02*
X12699967Y-13566579D01*
X12699967Y-13566579D02*
X12709491Y-13547531D01*
X12709491Y-13547531D02*
X12719015Y-13538008D01*
X12719015Y-13538008D02*
X12738062Y-13528484D01*
X12928539Y-13528484D02*
X12947586Y-13528484D01*
X12947586Y-13528484D02*
X12966634Y-13538008D01*
X12966634Y-13538008D02*
X12976158Y-13547531D01*
X12976158Y-13547531D02*
X12985682Y-13566579D01*
X12985682Y-13566579D02*
X12995205Y-13604674D01*
X12995205Y-13604674D02*
X12995205Y-13652293D01*
X12995205Y-13652293D02*
X12985682Y-13690388D01*
X12985682Y-13690388D02*
X12976158Y-13709436D01*
X12976158Y-13709436D02*
X12966634Y-13718960D01*
X12966634Y-13718960D02*
X12947586Y-13728484D01*
X12947586Y-13728484D02*
X12928539Y-13728484D01*
X12928539Y-13728484D02*
X12909491Y-13718960D01*
X12909491Y-13718960D02*
X12899967Y-13709436D01*
X12899967Y-13709436D02*
X12890443Y-13690388D01*
X12890443Y-13690388D02*
X12880920Y-13652293D01*
X12880920Y-13652293D02*
X12880920Y-13604674D01*
X12880920Y-13604674D02*
X12890443Y-13566579D01*
X12890443Y-13566579D02*
X12899967Y-13547531D01*
X12899967Y-13547531D02*
X12909491Y-13538008D01*
X12909491Y-13538008D02*
X12928539Y-13528484D01*
X13080920Y-13728484D02*
X13080920Y-13595150D01*
X13080920Y-13614198D02*
X13090443Y-13604674D01*
X13090443Y-13604674D02*
X13109491Y-13595150D01*
X13109491Y-13595150D02*
X13138063Y-13595150D01*
X13138063Y-13595150D02*
X13157110Y-13604674D01*
X13157110Y-13604674D02*
X13166634Y-13623722D01*
X13166634Y-13623722D02*
X13166634Y-13728484D01*
X13166634Y-13623722D02*
X13176158Y-13604674D01*
X13176158Y-13604674D02*
X13195205Y-13595150D01*
X13195205Y-13595150D02*
X13223777Y-13595150D01*
X13223777Y-13595150D02*
X13242824Y-13604674D01*
X13242824Y-13604674D02*
X13252348Y-13623722D01*
X13252348Y-13623722D02*
X13252348Y-13728484D01*
X13347586Y-13728484D02*
X13347586Y-13595150D01*
X13347586Y-13614198D02*
X13357110Y-13604674D01*
X13357110Y-13604674D02*
X13376158Y-13595150D01*
X13376158Y-13595150D02*
X13404729Y-13595150D01*
X13404729Y-13595150D02*
X13423777Y-13604674D01*
X13423777Y-13604674D02*
X13433301Y-13623722D01*
X13433301Y-13623722D02*
X13433301Y-13728484D01*
X13433301Y-13623722D02*
X13442824Y-13604674D01*
X13442824Y-13604674D02*
X13461872Y-13595150D01*
X13461872Y-13595150D02*
X13490443Y-13595150D01*
X13490443Y-13595150D02*
X13509491Y-13604674D01*
X13509491Y-13604674D02*
X13519015Y-13623722D01*
X13519015Y-13623722D02*
X13519015Y-13728484D01*
X13909491Y-13518960D02*
X13738063Y-13776103D01*
X14166634Y-13528484D02*
X14185682Y-13528484D01*
X14185682Y-13528484D02*
X14204729Y-13538008D01*
X14204729Y-13538008D02*
X14214253Y-13547531D01*
X14214253Y-13547531D02*
X14223777Y-13566579D01*
X14223777Y-13566579D02*
X14233301Y-13604674D01*
X14233301Y-13604674D02*
X14233301Y-13652293D01*
X14233301Y-13652293D02*
X14223777Y-13690388D01*
X14223777Y-13690388D02*
X14214253Y-13709436D01*
X14214253Y-13709436D02*
X14204729Y-13718960D01*
X14204729Y-13718960D02*
X14185682Y-13728484D01*
X14185682Y-13728484D02*
X14166634Y-13728484D01*
X14166634Y-13728484D02*
X14147586Y-13718960D01*
X14147586Y-13718960D02*
X14138063Y-13709436D01*
X14138063Y-13709436D02*
X14128539Y-13690388D01*
X14128539Y-13690388D02*
X14119015Y-13652293D01*
X14119015Y-13652293D02*
X14119015Y-13604674D01*
X14119015Y-13604674D02*
X14128539Y-13566579D01*
X14128539Y-13566579D02*
X14138063Y-13547531D01*
X14138063Y-13547531D02*
X14147586Y-13538008D01*
X14147586Y-13538008D02*
X14166634Y-13528484D01*
X14319015Y-13709436D02*
X14328539Y-13718960D01*
X14328539Y-13718960D02*
X14319015Y-13728484D01*
X14319015Y-13728484D02*
X14309491Y-13718960D01*
X14309491Y-13718960D02*
X14319015Y-13709436D01*
X14319015Y-13709436D02*
X14319015Y-13728484D01*
X14519015Y-13728484D02*
X14404729Y-13728484D01*
X14461872Y-13728484D02*
X14461872Y-13528484D01*
X14461872Y-13528484D02*
X14442825Y-13557055D01*
X14442825Y-13557055D02*
X14423777Y-13576103D01*
X14423777Y-13576103D02*
X14404729Y-13585627D01*
X14699967Y-13528484D02*
X14604729Y-13528484D01*
X14604729Y-13528484D02*
X14595206Y-13623722D01*
X14595206Y-13623722D02*
X14604729Y-13614198D01*
X14604729Y-13614198D02*
X14623777Y-13604674D01*
X14623777Y-13604674D02*
X14671396Y-13604674D01*
X14671396Y-13604674D02*
X14690444Y-13614198D01*
X14690444Y-13614198D02*
X14699967Y-13623722D01*
X14699967Y-13623722D02*
X14709491Y-13642769D01*
X14709491Y-13642769D02*
X14709491Y-13690388D01*
X14709491Y-13690388D02*
X14699967Y-13709436D01*
X14699967Y-13709436D02*
X14690444Y-13718960D01*
X14690444Y-13718960D02*
X14671396Y-13728484D01*
X14671396Y-13728484D02*
X14623777Y-13728484D01*
X14623777Y-13728484D02*
X14604729Y-13718960D01*
X14604729Y-13718960D02*
X14595206Y-13709436D01*
X14776158Y-13528484D02*
X14909491Y-13528484D01*
X14909491Y-13528484D02*
X14823777Y-13728484D01*
X15080920Y-13528484D02*
X14985682Y-13528484D01*
X14985682Y-13528484D02*
X14976158Y-13623722D01*
X14976158Y-13623722D02*
X14985682Y-13614198D01*
X14985682Y-13614198D02*
X15004729Y-13604674D01*
X15004729Y-13604674D02*
X15052348Y-13604674D01*
X15052348Y-13604674D02*
X15071396Y-13614198D01*
X15071396Y-13614198D02*
X15080920Y-13623722D01*
X15080920Y-13623722D02*
X15090444Y-13642769D01*
X15090444Y-13642769D02*
X15090444Y-13690388D01*
X15090444Y-13690388D02*
X15080920Y-13709436D01*
X15080920Y-13709436D02*
X15071396Y-13718960D01*
X15071396Y-13718960D02*
X15052348Y-13728484D01*
X15052348Y-13728484D02*
X15004729Y-13728484D01*
X15004729Y-13728484D02*
X14985682Y-13718960D01*
X14985682Y-13718960D02*
X14976158Y-13709436D01*
X15166634Y-13528484D02*
X15166634Y-13566579D01*
X15242825Y-13528484D02*
X15242825Y-13566579D01*
X15538063Y-13804674D02*
X15528539Y-13795150D01*
X15528539Y-13795150D02*
X15509491Y-13766579D01*
X15509491Y-13766579D02*
X15499968Y-13747531D01*
X15499968Y-13747531D02*
X15490444Y-13718960D01*
X15490444Y-13718960D02*
X15480920Y-13671341D01*
X15480920Y-13671341D02*
X15480920Y-13633246D01*
X15480920Y-13633246D02*
X15490444Y-13585627D01*
X15490444Y-13585627D02*
X15499968Y-13557055D01*
X15499968Y-13557055D02*
X15509491Y-13538008D01*
X15509491Y-13538008D02*
X15528539Y-13509436D01*
X15528539Y-13509436D02*
X15538063Y-13499912D01*
X15699968Y-13528484D02*
X15661872Y-13528484D01*
X15661872Y-13528484D02*
X15642825Y-13538008D01*
X15642825Y-13538008D02*
X15633301Y-13547531D01*
X15633301Y-13547531D02*
X15614253Y-13576103D01*
X15614253Y-13576103D02*
X15604729Y-13614198D01*
X15604729Y-13614198D02*
X15604729Y-13690388D01*
X15604729Y-13690388D02*
X15614253Y-13709436D01*
X15614253Y-13709436D02*
X15623777Y-13718960D01*
X15623777Y-13718960D02*
X15642825Y-13728484D01*
X15642825Y-13728484D02*
X15680920Y-13728484D01*
X15680920Y-13728484D02*
X15699968Y-13718960D01*
X15699968Y-13718960D02*
X15709491Y-13709436D01*
X15709491Y-13709436D02*
X15719015Y-13690388D01*
X15719015Y-13690388D02*
X15719015Y-13642769D01*
X15719015Y-13642769D02*
X15709491Y-13623722D01*
X15709491Y-13623722D02*
X15699968Y-13614198D01*
X15699968Y-13614198D02*
X15680920Y-13604674D01*
X15680920Y-13604674D02*
X15642825Y-13604674D01*
X15642825Y-13604674D02*
X15623777Y-13614198D01*
X15623777Y-13614198D02*
X15614253Y-13623722D01*
X15614253Y-13623722D02*
X15604729Y-13642769D01*
X15957110Y-13728484D02*
X15957110Y-13528484D01*
X16042825Y-13728484D02*
X16042825Y-13623722D01*
X16042825Y-13623722D02*
X16033301Y-13604674D01*
X16033301Y-13604674D02*
X16014253Y-13595150D01*
X16014253Y-13595150D02*
X15985682Y-13595150D01*
X15985682Y-13595150D02*
X15966634Y-13604674D01*
X15966634Y-13604674D02*
X15957110Y-13614198D01*
X16166634Y-13728484D02*
X16147587Y-13718960D01*
X16147587Y-13718960D02*
X16138063Y-13709436D01*
X16138063Y-13709436D02*
X16128539Y-13690388D01*
X16128539Y-13690388D02*
X16128539Y-13633246D01*
X16128539Y-13633246D02*
X16138063Y-13614198D01*
X16138063Y-13614198D02*
X16147587Y-13604674D01*
X16147587Y-13604674D02*
X16166634Y-13595150D01*
X16166634Y-13595150D02*
X16195206Y-13595150D01*
X16195206Y-13595150D02*
X16214253Y-13604674D01*
X16214253Y-13604674D02*
X16223777Y-13614198D01*
X16223777Y-13614198D02*
X16233301Y-13633246D01*
X16233301Y-13633246D02*
X16233301Y-13690388D01*
X16233301Y-13690388D02*
X16223777Y-13709436D01*
X16223777Y-13709436D02*
X16214253Y-13718960D01*
X16214253Y-13718960D02*
X16195206Y-13728484D01*
X16195206Y-13728484D02*
X16166634Y-13728484D01*
X16347587Y-13728484D02*
X16328539Y-13718960D01*
X16328539Y-13718960D02*
X16319015Y-13699912D01*
X16319015Y-13699912D02*
X16319015Y-13528484D01*
X16499968Y-13718960D02*
X16480920Y-13728484D01*
X16480920Y-13728484D02*
X16442825Y-13728484D01*
X16442825Y-13728484D02*
X16423777Y-13718960D01*
X16423777Y-13718960D02*
X16414253Y-13699912D01*
X16414253Y-13699912D02*
X16414253Y-13623722D01*
X16414253Y-13623722D02*
X16423777Y-13604674D01*
X16423777Y-13604674D02*
X16442825Y-13595150D01*
X16442825Y-13595150D02*
X16480920Y-13595150D01*
X16480920Y-13595150D02*
X16499968Y-13604674D01*
X16499968Y-13604674D02*
X16509491Y-13623722D01*
X16509491Y-13623722D02*
X16509491Y-13642769D01*
X16509491Y-13642769D02*
X16414253Y-13661817D01*
X16585682Y-13718960D02*
X16604730Y-13728484D01*
X16604730Y-13728484D02*
X16642825Y-13728484D01*
X16642825Y-13728484D02*
X16661872Y-13718960D01*
X16661872Y-13718960D02*
X16671396Y-13699912D01*
X16671396Y-13699912D02*
X16671396Y-13690388D01*
X16671396Y-13690388D02*
X16661872Y-13671341D01*
X16661872Y-13671341D02*
X16642825Y-13661817D01*
X16642825Y-13661817D02*
X16614253Y-13661817D01*
X16614253Y-13661817D02*
X16595206Y-13652293D01*
X16595206Y-13652293D02*
X16585682Y-13633246D01*
X16585682Y-13633246D02*
X16585682Y-13623722D01*
X16585682Y-13623722D02*
X16595206Y-13604674D01*
X16595206Y-13604674D02*
X16614253Y-13595150D01*
X16614253Y-13595150D02*
X16642825Y-13595150D01*
X16642825Y-13595150D02*
X16661872Y-13604674D01*
X16738063Y-13804674D02*
X16747587Y-13795150D01*
X16747587Y-13795150D02*
X16766634Y-13766579D01*
X16766634Y-13766579D02*
X16776158Y-13747531D01*
X16776158Y-13747531D02*
X16785682Y-13718960D01*
X16785682Y-13718960D02*
X16795206Y-13671341D01*
X16795206Y-13671341D02*
X16795206Y-13633246D01*
X16795206Y-13633246D02*
X16785682Y-13585627D01*
X16785682Y-13585627D02*
X16776158Y-13557055D01*
X16776158Y-13557055D02*
X16766634Y-13538008D01*
X16766634Y-13538008D02*
X16747587Y-13509436D01*
X16747587Y-13509436D02*
X16738063Y-13499912D01*
X17099968Y-13804674D02*
X17090444Y-13795150D01*
X17090444Y-13795150D02*
X17071396Y-13766579D01*
X17071396Y-13766579D02*
X17061873Y-13747531D01*
X17061873Y-13747531D02*
X17052349Y-13718960D01*
X17052349Y-13718960D02*
X17042825Y-13671341D01*
X17042825Y-13671341D02*
X17042825Y-13633246D01*
X17042825Y-13633246D02*
X17052349Y-13585627D01*
X17052349Y-13585627D02*
X17061873Y-13557055D01*
X17061873Y-13557055D02*
X17071396Y-13538008D01*
X17071396Y-13538008D02*
X17090444Y-13509436D01*
X17090444Y-13509436D02*
X17099968Y-13499912D01*
X17176158Y-13595150D02*
X17176158Y-13728484D01*
X17176158Y-13614198D02*
X17185682Y-13604674D01*
X17185682Y-13604674D02*
X17204730Y-13595150D01*
X17204730Y-13595150D02*
X17233301Y-13595150D01*
X17233301Y-13595150D02*
X17252349Y-13604674D01*
X17252349Y-13604674D02*
X17261873Y-13623722D01*
X17261873Y-13623722D02*
X17261873Y-13728484D01*
X17385682Y-13728484D02*
X17366634Y-13718960D01*
X17366634Y-13718960D02*
X17357111Y-13709436D01*
X17357111Y-13709436D02*
X17347587Y-13690388D01*
X17347587Y-13690388D02*
X17347587Y-13633246D01*
X17347587Y-13633246D02*
X17357111Y-13614198D01*
X17357111Y-13614198D02*
X17366634Y-13604674D01*
X17366634Y-13604674D02*
X17385682Y-13595150D01*
X17385682Y-13595150D02*
X17414254Y-13595150D01*
X17414254Y-13595150D02*
X17433301Y-13604674D01*
X17433301Y-13604674D02*
X17442825Y-13614198D01*
X17442825Y-13614198D02*
X17452349Y-13633246D01*
X17452349Y-13633246D02*
X17452349Y-13690388D01*
X17452349Y-13690388D02*
X17442825Y-13709436D01*
X17442825Y-13709436D02*
X17433301Y-13718960D01*
X17433301Y-13718960D02*
X17414254Y-13728484D01*
X17414254Y-13728484D02*
X17385682Y-13728484D01*
X17509492Y-13595150D02*
X17585682Y-13595150D01*
X17538063Y-13528484D02*
X17538063Y-13699912D01*
X17538063Y-13699912D02*
X17547587Y-13718960D01*
X17547587Y-13718960D02*
X17566634Y-13728484D01*
X17566634Y-13728484D02*
X17585682Y-13728484D01*
X17804730Y-13595150D02*
X17804730Y-13795150D01*
X17804730Y-13604674D02*
X17823777Y-13595150D01*
X17823777Y-13595150D02*
X17861873Y-13595150D01*
X17861873Y-13595150D02*
X17880920Y-13604674D01*
X17880920Y-13604674D02*
X17890444Y-13614198D01*
X17890444Y-13614198D02*
X17899968Y-13633246D01*
X17899968Y-13633246D02*
X17899968Y-13690388D01*
X17899968Y-13690388D02*
X17890444Y-13709436D01*
X17890444Y-13709436D02*
X17880920Y-13718960D01*
X17880920Y-13718960D02*
X17861873Y-13728484D01*
X17861873Y-13728484D02*
X17823777Y-13728484D01*
X17823777Y-13728484D02*
X17804730Y-13718960D01*
X18014254Y-13728484D02*
X17995206Y-13718960D01*
X17995206Y-13718960D02*
X17985682Y-13699912D01*
X17985682Y-13699912D02*
X17985682Y-13528484D01*
X18176158Y-13728484D02*
X18176158Y-13623722D01*
X18176158Y-13623722D02*
X18166635Y-13604674D01*
X18166635Y-13604674D02*
X18147587Y-13595150D01*
X18147587Y-13595150D02*
X18109492Y-13595150D01*
X18109492Y-13595150D02*
X18090444Y-13604674D01*
X18176158Y-13718960D02*
X18157111Y-13728484D01*
X18157111Y-13728484D02*
X18109492Y-13728484D01*
X18109492Y-13728484D02*
X18090444Y-13718960D01*
X18090444Y-13718960D02*
X18080920Y-13699912D01*
X18080920Y-13699912D02*
X18080920Y-13680865D01*
X18080920Y-13680865D02*
X18090444Y-13661817D01*
X18090444Y-13661817D02*
X18109492Y-13652293D01*
X18109492Y-13652293D02*
X18157111Y-13652293D01*
X18157111Y-13652293D02*
X18176158Y-13642769D01*
X18242825Y-13595150D02*
X18319015Y-13595150D01*
X18271396Y-13528484D02*
X18271396Y-13699912D01*
X18271396Y-13699912D02*
X18280920Y-13718960D01*
X18280920Y-13718960D02*
X18299968Y-13728484D01*
X18299968Y-13728484D02*
X18319015Y-13728484D01*
X18461873Y-13718960D02*
X18442825Y-13728484D01*
X18442825Y-13728484D02*
X18404730Y-13728484D01*
X18404730Y-13728484D02*
X18385682Y-13718960D01*
X18385682Y-13718960D02*
X18376158Y-13699912D01*
X18376158Y-13699912D02*
X18376158Y-13623722D01*
X18376158Y-13623722D02*
X18385682Y-13604674D01*
X18385682Y-13604674D02*
X18404730Y-13595150D01*
X18404730Y-13595150D02*
X18442825Y-13595150D01*
X18442825Y-13595150D02*
X18461873Y-13604674D01*
X18461873Y-13604674D02*
X18471396Y-13623722D01*
X18471396Y-13623722D02*
X18471396Y-13642769D01*
X18471396Y-13642769D02*
X18376158Y-13661817D01*
X18642825Y-13728484D02*
X18642825Y-13528484D01*
X18642825Y-13718960D02*
X18623777Y-13728484D01*
X18623777Y-13728484D02*
X18585682Y-13728484D01*
X18585682Y-13728484D02*
X18566635Y-13718960D01*
X18566635Y-13718960D02*
X18557111Y-13709436D01*
X18557111Y-13709436D02*
X18547587Y-13690388D01*
X18547587Y-13690388D02*
X18547587Y-13633246D01*
X18547587Y-13633246D02*
X18557111Y-13614198D01*
X18557111Y-13614198D02*
X18566635Y-13604674D01*
X18566635Y-13604674D02*
X18585682Y-13595150D01*
X18585682Y-13595150D02*
X18623777Y-13595150D01*
X18623777Y-13595150D02*
X18642825Y-13604674D01*
X18719016Y-13804674D02*
X18728539Y-13795150D01*
X18728539Y-13795150D02*
X18747587Y-13766579D01*
X18747587Y-13766579D02*
X18757111Y-13747531D01*
X18757111Y-13747531D02*
X18766635Y-13718960D01*
X18766635Y-13718960D02*
X18776158Y-13671341D01*
X18776158Y-13671341D02*
X18776158Y-13633246D01*
X18776158Y-13633246D02*
X18766635Y-13585627D01*
X18766635Y-13585627D02*
X18757111Y-13557055D01*
X18757111Y-13557055D02*
X18747587Y-13538008D01*
X18747587Y-13538008D02*
X18728539Y-13509436D01*
X18728539Y-13509436D02*
X18719016Y-13499912D01*
M02*
