G04 #@! TF.GenerationSoftware,KiCad,Pcbnew,9.0.7*
G04 #@! TF.CreationDate,2026-01-31T21:00:05+05:30*
G04 #@! TF.ProjectId,SnekPad,536e656b-5061-4642-9e6b-696361645f70,rev?*
G04 #@! TF.SameCoordinates,Original*
G04 #@! TF.FileFunction,Soldermask,Top*
G04 #@! TF.FilePolarity,Negative*
%FSLAX46Y46*%
G04 Gerber Fmt 4.6, Leading zero omitted, Abs format (unit mm)*
G04 Created by KiCad (PCBNEW 9.0.7) date 2026-01-31 21:00:05*
%MOMM*%
%LPD*%
G01*
G04 APERTURE LIST*
G04 Aperture macros list*
%AMRoundRect*
0 Rectangle with rounded corners*
0 $1 Rounding radius*
0 $2 $3 $4 $5 $6 $7 $8 $9 X,Y pos of 4 corners*
0 Add a 4 corners polygon primitive as box body*
4,1,4,$2,$3,$4,$5,$6,$7,$8,$9,$2,$3,0*
0 Add four circle primitives for the rounded corners*
1,1,$1+$1,$2,$3*
1,1,$1+$1,$4,$5*
1,1,$1+$1,$6,$7*
1,1,$1+$1,$8,$9*
0 Add four rect primitives between the rounded corners*
20,1,$1+$1,$2,$3,$4,$5,0*
20,1,$1+$1,$4,$5,$6,$7,0*
20,1,$1+$1,$6,$7,$8,$9,0*
20,1,$1+$1,$8,$9,$2,$3,0*%
G04 Aperture macros list end*
%ADD10RoundRect,0.152400X1.063600X0.609600X-1.063600X0.609600X-1.063600X-0.609600X1.063600X-0.609600X0*%
%ADD11C,1.524000*%
%ADD12RoundRect,0.152400X-1.063600X-0.609600X1.063600X-0.609600X1.063600X0.609600X-1.063600X0.609600X0*%
%ADD13R,2.000000X2.000000*%
%ADD14C,2.000000*%
%ADD15R,3.200000X2.000000*%
%ADD16C,1.700000*%
%ADD17C,4.000000*%
%ADD18C,2.200000*%
%ADD19RoundRect,0.170000X0.680000X-0.680000X0.680000X0.680000X-0.680000X0.680000X-0.680000X-0.680000X0*%
%ADD20RoundRect,0.250000X0.550000X-0.550000X0.550000X0.550000X-0.550000X0.550000X-0.550000X-0.550000X0*%
%ADD21C,1.600000*%
G04 APERTURE END LIST*
D10*
G04 #@! TO.C,U1*
X123350000Y-76843750D03*
D11*
X124185000Y-76843750D03*
D10*
X123350000Y-79383750D03*
D11*
X124185000Y-79383750D03*
D10*
X123350000Y-81923750D03*
D11*
X124185000Y-81923750D03*
D10*
X123350000Y-84463750D03*
D11*
X124185000Y-84463750D03*
D10*
X123350000Y-87003750D03*
D11*
X124185000Y-87003750D03*
D10*
X123350000Y-89543750D03*
D11*
X124185000Y-89543750D03*
D10*
X123350000Y-92083750D03*
D11*
X124185000Y-92083750D03*
X139425000Y-92083750D03*
D12*
X140260000Y-92083750D03*
D11*
X139425000Y-89543750D03*
D12*
X140260000Y-89543750D03*
D11*
X139425000Y-87003750D03*
D12*
X140260000Y-87003750D03*
D11*
X139425000Y-84463750D03*
D12*
X140260000Y-84463750D03*
D11*
X139425000Y-81923750D03*
D12*
X140260000Y-81923750D03*
D11*
X139425000Y-79383750D03*
D12*
X140260000Y-79383750D03*
D11*
X139425000Y-76843750D03*
D12*
X140260000Y-76843750D03*
G04 #@! TD*
D13*
G04 #@! TO.C,SW1*
X185036250Y-77157500D03*
D14*
X185036250Y-82157500D03*
X185036250Y-79657500D03*
D15*
X192536250Y-74057500D03*
X192536250Y-85257500D03*
D14*
X199536250Y-82157500D03*
X199536250Y-77157500D03*
G04 #@! TD*
D16*
G04 #@! TO.C,S6*
X185600000Y-115420000D03*
D17*
X190680000Y-115420000D03*
D16*
X195760000Y-115420000D03*
D18*
X193220000Y-110340000D03*
X186870000Y-112880000D03*
G04 #@! TD*
D16*
G04 #@! TO.C,S5*
X166550000Y-115420000D03*
D17*
X171630000Y-115420000D03*
D16*
X176710000Y-115420000D03*
D18*
X174170000Y-110340000D03*
X167820000Y-112880000D03*
G04 #@! TD*
D16*
G04 #@! TO.C,S4*
X147500000Y-115420000D03*
D17*
X152580000Y-115420000D03*
D16*
X157660000Y-115420000D03*
D18*
X155120000Y-110340000D03*
X148770000Y-112880000D03*
G04 #@! TD*
D16*
G04 #@! TO.C,S3*
X185600000Y-96370000D03*
D17*
X190680000Y-96370000D03*
D16*
X195760000Y-96370000D03*
D18*
X193220000Y-91290000D03*
X186870000Y-93830000D03*
G04 #@! TD*
D16*
G04 #@! TO.C,S2*
X166550000Y-96370000D03*
D17*
X171630000Y-96370000D03*
D16*
X176710000Y-96370000D03*
D18*
X174170000Y-91290000D03*
X167820000Y-93830000D03*
G04 #@! TD*
D16*
G04 #@! TO.C,S1*
X147500000Y-96370000D03*
D17*
X152580000Y-96370000D03*
D16*
X157660000Y-96370000D03*
D18*
X155120000Y-91290000D03*
X148770000Y-93830000D03*
G04 #@! TD*
D19*
G04 #@! TO.C,J1*
X145055000Y-84155000D03*
D16*
X145055000Y-81615000D03*
X145055000Y-79075000D03*
X145055000Y-76535000D03*
G04 #@! TD*
D20*
G04 #@! TO.C,D6*
X200205000Y-120658750D03*
D21*
X200205000Y-113038750D03*
G04 #@! TD*
D20*
G04 #@! TO.C,D5*
X181155000Y-120658750D03*
D21*
X181155000Y-113038750D03*
G04 #@! TD*
D20*
G04 #@! TO.C,D4*
X162105000Y-120658750D03*
D21*
X162105000Y-113038750D03*
G04 #@! TD*
D20*
G04 #@! TO.C,D3*
X200205000Y-101608750D03*
D21*
X200205000Y-93988750D03*
G04 #@! TD*
D20*
G04 #@! TO.C,D2*
X181155000Y-101608750D03*
D21*
X181155000Y-93988750D03*
G04 #@! TD*
D20*
G04 #@! TO.C,D1*
X162105000Y-101608750D03*
D21*
X162105000Y-93988750D03*
G04 #@! TD*
M02*
